<mxfile host="app.diagrams.net" modified="2024-01-02T20:08:47.055Z" agent="Mozilla/5.0 (Windows NT 10.0; Win64; x64) AppleWebKit/537.36 (KHTML, like Gecko) Chrome/118.0.0.0 Safari/537.36" etag="T6aSz6cilzYfYaYnY3lR" version="22.1.16" type="github">
  <diagram name="Page-1" id="197159a0-c6a4-9194-75a8-e4174976684c">
    <mxGraphModel dx="5908" dy="2220" grid="1" gridSize="10" guides="1" tooltips="1" connect="1" arrows="1" fold="1" page="1" pageScale="1.5" pageWidth="4681" pageHeight="3300" background="none" math="0" shadow="0">
      <root>
        <mxCell id="0" style=";html=1;" />
        <mxCell id="1" style=";html=1;" parent="0" />
        <mxCell id="0v0pNmwwUlKoNdS4LQg7-42" value="" style="rounded=1;whiteSpace=wrap;html=1;arcSize=8;strokeColor=#ff0000;strokeWidth=6;fillColor=#fff5f5;" parent="1" vertex="1">
          <mxGeometry x="50" y="50" width="2150" height="1880" as="geometry" />
        </mxCell>
        <mxCell id="1257a543d1cacc4b-52" value="&lt;font style=&quot;font-size: 40px;&quot;&gt;My Homelab&lt;/font&gt;" style="text;strokeColor=none;fillColor=none;html=1;fontSize=24;fontStyle=1;verticalAlign=middle;align=center;" parent="1" vertex="1">
          <mxGeometry x="670" y="80" width="860" height="40" as="geometry" />
        </mxCell>
        <mxCell id="Xht5l7l8JJ4m-X1HlJ2U-74" value="" style="group" parent="1" vertex="1" connectable="0">
          <mxGeometry x="1130" y="170" width="990" height="1160" as="geometry" />
        </mxCell>
        <mxCell id="Xht5l7l8JJ4m-X1HlJ2U-3" value="" style="rounded=1;whiteSpace=wrap;html=1;fillColor=#dae8fc;strokeColor=#6c8ebf;" parent="Xht5l7l8JJ4m-X1HlJ2U-74" vertex="1">
          <mxGeometry x="30" y="45" width="960" height="1115" as="geometry" />
        </mxCell>
        <mxCell id="Xht5l7l8JJ4m-X1HlJ2U-4" value="" style="rounded=1;whiteSpace=wrap;html=1;fillColor=#d0cee2;strokeColor=#56517e;arcSize=8;" parent="Xht5l7l8JJ4m-X1HlJ2U-74" vertex="1">
          <mxGeometry x="240" y="130" width="540" height="220" as="geometry" />
        </mxCell>
        <mxCell id="Xht5l7l8JJ4m-X1HlJ2U-7" value="" style="fontColor=#0066CC;verticalAlign=top;verticalLabelPosition=bottom;labelPosition=center;align=center;html=1;outlineConnect=0;fillColor=#CCCCCC;strokeColor=#6881B3;gradientColor=none;gradientDirection=north;strokeWidth=2;shape=mxgraph.networks.server;" parent="Xht5l7l8JJ4m-X1HlJ2U-74" vertex="1">
          <mxGeometry x="220" y="100" width="90" height="100" as="geometry" />
        </mxCell>
        <mxCell id="Xht5l7l8JJ4m-X1HlJ2U-10" value="&lt;font size=&quot;1&quot; style=&quot;&quot;&gt;&lt;b style=&quot;font-size: 16px;&quot;&gt;Proxmox Node (pve-01)&lt;/b&gt;&lt;/font&gt;" style="text;html=1;strokeColor=none;fillColor=none;align=left;verticalAlign=middle;whiteSpace=wrap;rounded=0;" parent="Xht5l7l8JJ4m-X1HlJ2U-74" vertex="1">
          <mxGeometry x="320" y="100" width="200" height="30" as="geometry" />
        </mxCell>
        <mxCell id="Xht5l7l8JJ4m-X1HlJ2U-11" value="" style="shape=image;verticalLabelPosition=bottom;labelBackgroundColor=default;verticalAlign=top;aspect=fixed;imageAspect=0;image=data:image/png,iVBORw0KGgoAAAANSUhEUgAAAPoAAAD6CAMAAAC/MqoPAAADAFBMVEUAAAAeU38fVYMfVoQiXpEWIy8qdbQ1kN4pca4ufsI7ovk9pv87ofc6nvI5nPE8pf48pPsyidIqc7I2leYeVIIYQ2gqdLQ5nfE3l+g9pv89pv89pf45m+85nPAjYZYeKzc4mew9pf87ovo9pv89pv81kuEtfcEkZZwzi9Y6nvM7ofg5nPA8o/szjNg7ovk1kuAqc7Euf8M5nPA7ovkvgsgse70nKCg2NjY+Pj45OTk+Pj4+Pj5KSkpJSUlKSkpISEg6Ojo1NTU9PT0xNTkdKDM1k+I8pP08pPwcTXY1NTU7OztJSUlGRkZLS0tNTU1NTU1JSUlISEhEREQnJycdUHwzjNg8pf08o/o3mOtLS0tJSUlMTExMTExGRkYxhs43mOk8o/o7ovknMDlHR0dMTExEREQyidQ9pv81kuFAQkRCQkJMTExJSUlEREQzi9Y8pPw8pf41kN08PDxGRkZLS0tNTU05nPA2luY6n/Q7oPc5nfFLS0tKSko8pf4tfcBHR0dLS0syidM4mes3ludCQkIyjNc7ofhFRUUlZZw7ofg0kN4rdrY5m+84mesyiNEzjNg3l+g8pf45nPA5OTlLS0socK06n/Q0jto6n/Q9pv8ob6wxiNE5nPEyidJAQEAvgcY9PT0bS3RHR0cxh89MTEw+Pj5AQEBGRkZISEgvgcdISEhHR0c2lOQnLzcpMDc8PDw5OTlLS0syidM2leU5nPBLS0s6oPU7ofg3mOk1kuFCQkI0jto8pPxFRUUxiNE8o/s3l+glZ587oPYyMjI3l+gsLCwwg8lLS0s5m+87ofc1kuE8pf45nfJISEg/Pz8uf8M6n/U2k+I3luc6oPYyiNJLS0s6n/Q8pf0whs4zjNczjNgyidM1kd8whcw7ofgnaqU9pv8vgskqdLM7o/oWPl86nvQ6n/U3mOo5nfI8pPwocK0fV4UcTHY3mOk8pf49pv89pv82k+MzjNgrdrY7oPYobqs7ofctfL87ofgtfcE1kuEkZJkobqo9pv8tfMA1kN0aqraGAAABAHRSTlMAESQuGAMNIEl3mLjM1tzApXlPJQMLO3Sv8f/0uHs3CHDL7fr8YSEFKZ7azoRO4YEcNprFUQkLGDRZc4eZpq2fakkkEgV78PQdFEFxrOX8/8eOWSQHU/jUUjvb7/a0Eonx5w9382M99nUvlOjUa2Dj6EopiNn5jamr1lvSvLMylOsuyYFIMr98IdBCKME2moi97MhR4RG7brX4FlmmGE09Hw6/Oc2ggKHNRoJfmhofZDu3aW6ww+d9kZSOe9xASem3Kks1ZyslTpTfidSERq1a41qfxXRUPVOBpLrKqItoQ59wQx8V3RlH06wwPzTVjJd1v5FllV6haV58ykxW3YfUeTfZpAAAG39JREFUeAHk2QN3ZFkUBeDduGk7vB0bbVSlEUzMd2Lbdtu2bVvj+XnjlOu8esmsV2/VfP9gr70uD/QwZ+68P82dL/A/4rdg4aLFS5YuW/6nZUtXrFy1eo2fP3xfQGBQcIh0sDY0LDwAPi1iTWRUdIx0ITZ6aVx8AnxWYlKydC82ZZ2PNu+/PjhGqtiwcRN8TsLmLdFSXczWbdvBMZlTd+zctTstPT1j967M77Kyc2Bw83PzpGfykwrgTmFRcUmpQjaUsvKKSgHjqqpeWiM9FVtbJ+BMmOszGhoVctJU2lxkhkG1tLZJLdrj/OGoo7OskdzpKuuOgAH596RIjXr7EmBL9A8MEm9o2ASj2T4yKjUbG4eVmJicIlV70otyYCgRe3ulZr37NsPCXFxKHmns7ICBxO+vkVrFHjjoh2mmokN7yEN7DqfCMApCY6VmR47CouPYcdKgoQgGceKk1CzvVA6midNDpE1jZw6M4MxZqdnYyHZMM50rJa0az5ngfecvSM0OXPTHtKw0mgHFANkvXZaanb2CaaJoSKGZ6JqMgHfN8WiHC7l89drV6zfkP26eh8Wt2zRDynAOvOnOftXkNXcj5wn8Rcy7d/+BlEkPMU1MdtGMNRXDi7afipW8B6GPHsLqTnXw4yeYVji5h2ah9Kk/vKZvreQlR+bAnn+VNXmGQrMyNQEvEc/yJGvt4wVML8/TFZqlw2Z4x5oLktUb9gLuZafRrO2Z9NbmLlnJz8DIfkn/hafwgoS+XsmIPfsKjOdppE45/vrN28zMzLfvXh9XyKX3E9Dfh7Vs8vsPwShMJ1V73n9MFfhHTurH93vIlQwBvcVvlYyYlS1gmNX39qayikIBK1H4tKyLnHV98ofOPsdKxsonYOSUqyYf7PwCR+buQXJ2KBu68n/EJY89EgDOsT3Ea0r7Cle+HHNR/LEI6CnxgGScjQcj4lsT8QbPuWvStOM2OSr9HjoK2C8ZB+LBqThOvKmnAm6lHiZHP+RAN/4/5nMTtR4wxOlS4h3uB79FNpE95Sl0c2kDt7n/BE7WIeK9fA5ex6TiWHshdOL3s2ScqgLj+WHipZmhJmLYoXflG3Ryb610L+UhGDnvFOIoJV+gLudcI9n5xQRdnP+VG6T18H0Rr7kQnhDDXWSrqVtAB3cecwv9N38wnh4nVslzeCai2D77y2zooI7b3U8+BGNiilgNz+GpCPu9bk+RHrs7N1YcewaG+TCxDk3Ac6aPf5R333FRXWkfwH8aL6bgq8ZBw4PuROcq2FEDmGLyRkaRdZexjLAblEUsaCxgQY2pxN4SScTeUFOsG3sjYn+DvaT3Yk/v2b4r40zuMOc8d+7lziqf9/uv9eG25zznOef4v+TjEWpxOxwkt9MGOecanRxuIoyI/13KfzelW81F/kgMGAPS+cL6MAWGLO/j0hiFEFsymRjDbZBbzmdxKbucMGikNjtKz0Jo7XaQXDFbivudTvq6HoZN1N5HzyOkZkSSXGYvyClr+FzmqZFg6T9DHeIRQoVjiTG3CuReHcI/6F1hRnx3zYtuMEKoZSbJZU+HXMJWnVwmEabYu7l87kHoLEwjxh1hfALCmTMSJv1xtMtro4JQsW1OJbnOqyG3lL/dU9Y4YdaAX+/4ngiV/FxirINc1kM6b/d4mGbf5b2hUroiRKJ3EiN3OqTsOmncU0tRARse9b0w4hEae0qIscMNqd/qjNdGOVERE71//UMJCAllLzGy90EqeZWLNScZFWIf5b3jX0FI7FeJ0ZYrK+TxNfcBqKCsoSHN42OfI0arfEgd0CtPZMEQ5gPSLQshcDCVGLe6IWN/wMUa0h4V5ux+7WE/BOtVKyZGyWFIDejPf9JHOVFxGzyJTfr/wXK2egtITn3NDZms0S7WqmRYwNbD8wPuB8s1KSVGwSSmbOxipQyAJeIf8+RGsNwRMpnItdeZZXopHtZoXzYNmWeHxfKPmkzknB1crN4HwDP6cT8Ei+0gDvOkP5jO3+7dYZmssst+N6y1pDMxHL+BTLL56rNx91zNnNbAUsoY4uxVILM2xcUapsA6yVerIQ84YaWYUmKUTIfMcp3kfUUWrPR8isv18npY6ZhqsiL3Ip+8p/dQYKWsjVYX6Kr2JYZjD2SSh+gk7wqsdTzd5ToO69gaOIgxMwMS9u46yfursJjzfpfrz7DOkmbEcNSzQWLkHBerux1W+226615YZx5x0rIgobzkYqWvh+XiO7hegGUWTiZOa7PD9Lw1CIEDeSdgmYPZ5koU9vtS+GymI0LhxGPQCouDacpM4oyJhsQrvXWWKykIhYkboaHcXAjTnnAQR57D3udivZyMkLCPgsb+k6FqCKW5kDnOP+m91yJEDsVrrtvseJiWf4rMzSp30Elh4xEiigKvKuMGwbzWxAmvBomR/JOedzdCL7p1jRkwrVopcepBIv4Bw1PK1usVNcYG005HEWNbE0gM1ilLPf9fWYlWEAPTwuoT54wbYorORd+qIOTsMzX/P+PaZBOj8whIHBrCp7BLEXLuemrBQJj3J+KcVUx2DD2WhZBbXUJbYF6TacRQX4dExzn8N30iQi42jVJ7wbyDC4hRmg+Je8yXpSzsZp1bCPP2EmeMYq4i1/8NGOSu+uZbm99+5p13333vvbSjzd97791333/mg92DPnzrzaluiDRWiRbBvGpRxPkIEl3z+ItuR9BsGXVuv+XjmjVyF5BIdkmNmk0/+fSzMBv8TEojyimCabbtxCl1Qkx52aJJNue+02OeW0D6CmYfO/2bc/BxziRyDIJ51WYSw3EnJJamWLHYvsqkeQ1LoihYqY1ybusCD/d2leiRGTBvViNinGoDsSy+Czi4smHEh/W3qWTMYic8VvYlop3OkM2zPW6H2Kv8LNuceOixTd9ZQIZNawKPJkf5Xgd9VYqJoS4yl8Pm9YOOuNVNS8i4zi3hEVa2SmNsHMzbk0mM8xcgNnJIhbYUUVYuTiUT1B1uzXeNOl+EebYxqpmRi9Ivha+9K2DY6pwpIFMmZ8BjZdmswfzokE08JJ2GWPJofuAyEgxlUxqZUzAC18ylq4ajAlYT52gExP6s0z5ih9ykvQ4y6aCCMu7WnntgCUI2aNsJsfj7TY9WoxunkUnq3Ah4jCihqzahAqq0I8aClkyjLmOFApnC1iqZ1WoSPGKP0lUFiaiA/Z2JcXYJxPhpNmapdZPHU4kXte38pfB2NR+//HjNmu2a1zi/LYquUb3LaMPaqmWJZifP1bPBlGeJ08IGISd/0Yd2hMThsyox1OJ37nxr2b4uRU5cpUScq3pl2VsfvjMt0m8Z7XBPwn/qCgA4t6yEKc1Nzbl0dbH6QWJZGsk4LtXa9HkiZJRzHb+YCo9lrahMWycApTWVLIqGcdWyiVFiN9UvldITQrYrzUgs8+wHI5q4EZy4mVSm86SyJ+gSUUnjOBh2kDh/glh7/n7vA7En0khEvbRjtYKguVv7LbwaVJbUDVJgUMQWkuGyRKaBhOlaniGMPHPy6SXRMOAPBVQm8g8AMNVz80cdjIMxU78kRo2qpjK5R9dDJGO+KkpMWxbBkC6XyGOmHQC8y9IKGsOYN7OJUUuB0PP9Tbzk4taJUpTVNhgT5t3dUx3u38idedIGIzoRQ20JIfuT/IKujhCZF0nlqLnzlhjfIshBHuFNAOB18mm1EgY4GxLj1AUILRcPV/k1aPkFAZHfMQmGDcyha+4MmECYdtiaHkFm6erdJnoJYmdSOY0mFEJGcUdE2BUEKnzOd39XAwC/pFitH4Gg3ZVJApq0UYgvz4zOCmojgNzxTghF/ObgV7XGbdkyrtbX39zVRYGW+4j/d1c5RX422xAkG9sTm/sEhAbzy1Z3QWBlAflrdgWB3JM2v/+ISloF3343PhZewzPLDWTuID+N7kKQwvYSo2E0hIblGZ5nC1uskp9pA1FedPXvH29FArl1fYnBI+Q1zu559IvJz9mFCE71SGJ8B7ETfPU9GYFaquTn/CSUo1w5lktCju/c8Mi4TF5RbeAxiPyof4pGUG42U4q180lsVwQKm1t+mzpb+VJd2xKVxOaGwSN6t0pee8PgsaQm+SmZhKDcQoxT+RCa6GIdQqDTSaS14CD8KR+mkUzpMlwzPYe8kobDq2Vn8jMuAsG4TGLc32HvwHeQBDEwHuSEn0nMxvPqHlyT0UzzSLvhpfwgbnPjVQsnxiAILWfnGPOGIdAylbSeK4KW7XQaSS3Y4YRH2Gvko85jtv2sGQ1900uI8TmE/pjOzja1F/VhctvUhW1eQHKzq+Gag1HkM606fqU0Jn83Q99mYmQXQehFw1tRTDpFGqp/zatwRzZpZJ4Pv+3r2j/++OP3E2q1q9GoWQyuaaP97vkvSojeS37GhUHXd8SYCSGFb6QQ3e+DVNK4FAuNuCOp2q9964v7zvnCiqg63fclyLhNJR+1C7u/ROZ06JpNcuqdEDrEftqGrEeArGLSSN1s84tcc9pfvZsg4zxCGkdQzhh+4a1ALsllXoRQj95sZSoeAT7NJI1phcKBbOcti5ZA7nQuu6flEwWkVbwQOroQ43/2QUQZxZYj+ymCZVQqabwOjWVRVCb7jhHgxJaSxmU7yol7TSWNBR9CxyJitIuASCL7aRsiyGcyniONo3W0tTrP9z717J4wnWNXSCNpIALUbURaY8PA+4oYX0NocJ7Rjtj8BaTxlQIf5aeya6UOigVvXhJpzBbE5a5JWqUXKlKMvdnM/OqLCPSzdEpjUVlE9dtAx/TOpJE93vOHY6DVy0Fad4FV7WmS61wdQmxVrvdxBGpLGq2c8FnSkIii2jYxuFdMeBgATC2uHwaNw5dIqylYh/+H5J7OgEg8u5dctwQEKGpHGs/Cw1tQLKmnQId7B1HAe1LZneq/YbV9MWmFnwNnVmeSez+C2SbCSA/Jyr6CKQ1v2WHbiGjo2RxFWml1yi5bDlFkL2jcJW54E7uoktwxG0TW5hld8fCL9iGssQ8+u1VqdTt0xW4jP60VAKhdNnyz41cRUaSRtB+cv5Bc1B8g9DD7VU/Wm8Oe7IaXu1RQntPf0TW7LIeNKRu/Ohpor8+3pNUJnMUkVzIVQivYRx0C70gy0F7U6mYb9EQfc4j2/npWpauaZ0j7BPaCoRwluaMQG8KmchD4K2l8Cq+iLSWnwRKUYLw5bOI28tA+7eMXkEYBGIk5JDcWQj3Z+aZX9cYJkZ/BK//88Gjoiikmf/MjAOBD3wMUAZ8nSknrnNmJl7chtJadeuiJQG6VfvXlEngNb+uGLvsZ8qdOx1VLcsmj9An4FIWT1mB4cWmvwCKIKOzCXeG5JDeRxreFuEbZvhD6JjhIQ1OHHZ5EZRy/SAuNN5ucc8p+EyKJfVyMeyDwN3GyYK8OfW0akb/sgzbvRLP3b5RunvUj5D50kNQjdSCygRu25Y2EwIekscMJA2LPUjnhEb5bNpLKFNjg8wlpzYPcNypJzS8yvohzaDIEWpBGCxgQcUaVrzlzewfo6+Hzd9JqwfVDGx+xvsrlcifiIfA1/Ur9pmKLbJvFBL6pfgOfj0jrK0hFvG+8BH8PuyGygkBKLe2j+guC12YblddJkJD9HT5PsFdPI2Mmyf3d+Lx6/6UQsI/TZsdvIWgLt1B52VUFg/jv4RNDWh9D6sI/SO4LiCiPcnMPCbrlkMzVCJr3WdZoKlqlpXmGPgs29M8iSe4cRBK4t9xjEMnSzg40+hxBUlqmUnnblpXriuBDH+eGTAzJRdqMl+AftjL0OmkUYG4E/OzjQ69lg0xdkjsLoQf7c4vaLAy9qD4FyB6IcspKUp+YuOE/IrlnILS2N/OW+6N1oUeLtkWaXSgcDv9oIvS/G/+2dU1hekOXmw+dmUvR5LDiydKb4ZMf7MftZ5Jy/AIRhesJvt8Oq97wmo4ZbR1WvHzjC/EjzKY0n5BU5H6IxHPtQ2vAh27gu147lQLVRoB954koUTJSou2mKnOn6hqfc7obQkotfipMoEmkp2/49nMbNvtyj7TP4KMdoP8Dv/qetD6B1D9J6vwViCRw1akDEPuYy+GZsvu6WAA235xKJxsC2G7zn06+JdhB62skdakLRDpyGXwWvLiRmw08X7G1WZHnsZ/rq8MKXCbHeGlEN0PqaxJgpy5e4YpTkPiQNNY5oeu0qtn3ydbi2s7skhBOPQEf2+NsLq5Ri6Ta2SHyPNcHHlRT4tgI6GpKV/3iV1ToO1ASengV+JwLJ60NplrmHjc+ydoVElVJ46+F0NVQU26H+4yol8Drn36bgq3cRhqqE1KPk9TXhkfrvd+ARPQCbtpboCZdFbnPE05J2UdxOoReK4iRzXDRP2Aq9AYQupcpwb8CmVLt161O0IuL262OgH1RmrcOK/T1HWHSdrA7IHcbSX1vbAtJ/jiOd0njJHTNKqEymcUNi5PoqoL9EPt6PEzNudUkqdsNbqTIbtr9DGncCl1hi0mD/S5sj8CvnFGk4RhvLvRlENrI1CmcQXVket/IrIjJ5Gf+EogpVaHRSzA3Zzz0OhBxMg0VD3BrxAV5IuuwdvsO9WgMguFuKl6baCx0x2cQyerGT7xITNX2LWe/hSDEzfO1ujjGHkZQYpuLW9+MhR4pDn09U5R8EFK2y6RxBsGwNWkwbVu2I+rU2fFhCM7FKNIaA1Oh516ASM+hLqmRkHubNCIjEJxqK9966602VRCsn8jPanOh/0Mc+qGH5J/1BMh9yjS0WaZqCWm1ugBTKc2XC402T41OhtyFHNL4KQ6hPYyMSYL0Q/+XOPQ/DpF/1hMh515HGgWzEAIZzfllmfzwhR9k8KH3iQdjfBSzz401TqriZZlitfjQxWduSLxgD/45LI6F5SLmk5+aTnA+JplvDYf+pBOcxYKNwyxVfuHQ62DdamHoa8AakUQaffNhsbgvyU/uLLA+MBr6/0mnnVK6GmrBrlUESzk7kb+mbrD+aTT0N3pLCxU9wLLVI63O42GplaXk71PwbrEu9PSJ4BUWkFaraqF8x1GxHbyfLQz9gMF9ri4vgWWiO6WyewMKnLTuWR/SEzralJKWo3U0rLK6EfkLj4WOv1n3hv99AvRMID+Rw22hOmpSHQ89H1kX+hwn9FRvRX4KejlhhSXPqaLjx3hPWBf6aOiyzUslPzl7LIl8MZWTtMgGPXVUy3L4VdBXNJP8ORZFVzzy+lTeGei7UGBZ6FsRhOl9yV/BoDhUzOEtDiqn2aRgQj/KDFqNjdc3IgjuCVSOo2ksKmJgQwpwGkEoepckaiyByKGKhY64dgGxh+9xwqywxgVUnmNsNILgft9ggarnaGljsKGNs7T6NgiDOQsXJ1GARw4jGLYWBsuSGx6tYOi4K4oCXBoeB+PC5p2iQDltEJxvVGPF6MRV0koFghM3IZUCJI3bYzT4uDZboihQo8bRpvvN+SkI+9aKho6IpioJLO6VheDZZozJJIHsTgjWp5nGJp6wscKhY+EZYexJafNi7AiKfdIY8Y5NaoM4BOumEpJoA6EOFQ8dVWaTkHq+6R4EYVnTbSSktrVDzNASv9sNzq+fgIHY15FMq3XjY22Qcw7s1FwlsewGdgTP1pAkfoTQvVaEjoVts0kme1qtn+teCBPEH3bh09qP91VJolGnOBhxhiRqQ+geS0KH/VgmcXLHHvvl5pvWFykoY19/00e/bL8jhxilw2HMJoNtRH9msjkj4nq1Il5qZqO+Of9o2PC2mg3/kZNTkpmtEsORdiUaxry5gMRug9DzBkLnLatJFjrTBEbFnDe2Jc0BZuRmUNHuArJIWq9oGBb7tLEe2eW9mfG6Qc4Rc1PJApHr8sEzti/N+X3G9sgeDROcu2tQRamzW8KcYyS2rS5EsvowhzkZZ6t+rJlKFZAUPr4QJn1KYpLtPZxPyiqy62GKkr87ikw7ejoWpjmjSOxOY8t+njoAs841NvfM5zb91I6KeJrEzjBbzRmfeOJljNhZHEVGqAUNa89yo2K+I7F/QOgVSTk6by0qpMof1j2dTUHqO/vYSicqbLyDhNRzEFkvW9M6BRXkzqgz7/FLp5KI1eh8+E+9LoQpsEB+qaEjOpVVfFdFxShd2uy/852jKgllhz/z4cUribCKctnY8sZdzDEAVlHWf3Hzj/NafPX1x2W+/qrF5h9v/2K9AovVJrHFbkMndK7IQqVTVyWhGocNbdPxUAIqnYxwElJ7QWS9pDm693JUOrbtKgl9YGyT8AdR+dTNNHQWQg+X2ChUPkVpJCQ5xj65N7MApLKpbezcccnDPnQDKp9JOYZ2FH2RWedW2RTVJyFHG4gcf4o5bryy2UNil50QsG+UJDWohNw1SKjZDCPF+LwEVEK7VSMHzg+WNA72QCV0OI2EcoogEC/JajrYUQkdIbGTRko1Q9qjEprRl4SmVYdAoqSv5F5UQtF/cpCI2gkikmPXhyagQhJ+m4z/vn19SSjnCQh0FM9E5E1xwryew14ehevANkElofoLEcg5SjJo3wCTsto/+fu8+xNwPTS5RELqMScCJaQzu8Mb5zzeZ4jLNWcDro/TJJbUAAKjUsSJ/FIYN3LK0Kt/2+j2uE6cM0ksW3TMc8dHmUN5jch65eHRKWVTV0sVXB/MGV/ZEyIQ4H9dYi8lwoANA/rkuVzXO3LYOqkklrol3xbsEeR5T2YhSAntH5jjTY7mvKHgOoptRzKPDHKinKWSTL53d3twgfdbka45MkXBdbWyhKRqdCp35ZXuKbLZiJHQoQwetkL7k1t1ANeZ0imbpNTin36OWeKGT0fZtnspjy6Nh5SSNfh/738oRfv7VwzGdZdRi1jqpTPbP/TldxPzXBJ5HX7rhIiyYemUx8r9sZQOCbgBZEwjHaojbRY8lIdTXDLpW9eOTFagEb9+5KtTVg3pX/7PpPfLwg1hWTHpGodrEh5zyaU8tOK+Aa+UzRFm9XxwWPc+3eaI7pI5PZy4QazuS3pSB9ngcWi0S1def+7n87sNuGFEL9KPvTQGHralQ1wV8fspibiRDN9Gei5XwTUD0l2m5XVrjxtLtP49n10P19iH9XaZkzKnayJuOKvTSEfkFVyjrDEZ+8b2Cm5AUy87iBc+wxf72nQTl7zbRCduTBnP5hJvcRiucfaYYzTw0fcsxw1LuficShzHa3Hwar/VZcSc7stxQ8vYzHfuph4Jg1fWfU8Ff8UfXu7EDc4241gkMZJeg0/80qGuoAyZcsiJyuDcoMkOWeBzN3WBRtawR116+m+8OxmVxpKW301rpJK/1Jyab08vhD9l+YurenNxj354YiIqF2XZN+u+/bJgAf2HGln81/fHjJ8Koay1v5O87POGvtQjEZWRuzDjwmd1Jk3K/+yzC4URCqTiE5Y+sOqhp/I0r7X03w/dOGVwsh3/DyQfevWNYbteONHnxIkXdnXtMfHABieut38DoR25x6YNb2oAAAAASUVORK5CYII=;" parent="Xht5l7l8JJ4m-X1HlJ2U-74" vertex="1">
          <mxGeometry x="360" y="180" width="90" height="90" as="geometry" />
        </mxCell>
        <mxCell id="Xht5l7l8JJ4m-X1HlJ2U-12" value="" style="shape=image;verticalLabelPosition=bottom;labelBackgroundColor=default;verticalAlign=top;aspect=fixed;imageAspect=0;image=data:image/png,iVBORw0KGgoAAAANSUhEUgAABAAAAAQACAYAAAB/HSuDAAAABGdBTUEAALGPC/xhBQAAACBjSFJNAAB6JgAAgIQAAPoAAACA6AAAdTAAAOpgAAA6mAAAF3CculE8AAAAB3RJTUUH5QYGBzINtvi0pAAAAAZiS0dEAAAAAAAA+UO7fwAAo/1JREFUeNrs3QmY3XV96H8hiOKuKCqt17pda2tvW6/1r71P21TnTEZ2FFGqIlWrV9yu1q1SNQhzTljDJjsClUUWUWRXdoQAArIFZN9JCAmBJGSdmc//850zWMCQTJI5++v9PK8nUZFMzvL7fj/n/M7vPO95kiSpIQ3UYv3+arywUo0X9U2Ll/bX4jWjqvH6Si3emP4s//P/TH8xZqv8Zz/1dPnPfi3/+/3SQc/hsHR2/ruuXoWb8p+JVSn/zKr+HeXPGPuznuvn2K/8rH/08+ff6am/X/7nt5a/c/m7l9vgqduj3DblNiq3VbnNPHIkSZIkSS0vB9UN0mtGTRsd4N+R/jKH17/LwfafivzPH0ofSZ9I30w/yP9+j/z15DG/Sjfkfzczf31sdcN5F3ko/843l7/72G0wenuM3TY/GLutPjF2233oD7dn3rajt3He1uU2/8Ptn/eFR6QkSZIkaV2G/E3Sm/rrw/xADqEfz//8//L330+D6egxP08XpovT9emeMSt6aKhvlBVPuz2vH7uNLxy7zZ+6/ct98b20c95HH8tfK5Vp8b68r95YGYxXeiRLkiRJUo83UIsN+qvxhrF3lrfqL6er12LXHBx/lP/5pHRuuqi//m717WlWejKNGMzbTrlPnihnF6Tfj71YUO67s9Lxeb/ulffvt/L321WmxeS8j99WGYyXeBZIkiRJUncN+q/PgW9yDn9fyCGwnIZ/RP7nS/vrp97fke5Ls9PcsQF/uYG6614cWJIWpEfSg+mudGs+Dq6qlLMIqlHN//yZ/P0H8r97d3INAkmSJElqk6G+fAb/RTmwbZzD26Y5vL05/Xn+foexU/R/kr8vF61bODYAetee8b5Y8JT5+fi6Kn/9aTow7TilFv+Qv76tPObKY688BidP9WKBJEmSJE1IlcF4cd+00SH/nTl0vTd/3ay8Wzv2ue+fjH0u/N60zABLE8wde8yVx95/VqrxL2kgf/+u/mq8OX+/sWetJEmSJK1+2H9lDvtvz2GqL4epnfLXb499/d0J6anT9p8whNJGhsdeFPht+mU6In03fXb04pHT4p35uN7Es1uSJElSbw/81Xh7DkjbVmqj33N/cDozXVY+n53m+Dw+HWoozRu7eOSMsQtKHpOP913KVxzmr/97oBavdgSQJEmS1JX9867xsrGL8X0jfz08f71y7GJss8fe1Tfs0+1nCpRrUjw69pGV8m0Fl1dqsU/6XPqH8hxxpJAkSZLUEeVgv2EONa/qr8afpr/qL9/LXo3p+d/PGPuMvgvywXNfeHBZPld+W6nFkeVFgXJdgfz1f+Rz6DXpxQM1FxyUJEmS1KJyIHlhDiZlQClfnVYuzvfFdFT+56vGvnrNgAfroFKLm/P5dEr+ftfyLRf5n9+fv39HXy1ePXlqTHIUkiRJktSQyvejV8rXoNXiA2MXORtMp6br0uMGNmio8jGZB9OFoy+01WKXfD5+vL8a7xmoxSsdoSRJkiStdTlUPL8yLd6cQ8YW6VtjV+O/ZOwiffPGLnZmMIPWvSAwa+wFuNPTXulf87n6t5XBeKEjmCRJkqRVloPDa3Po36p8dn/s+87vGBsyFvj8PrT1tQSWjH0l4T2Valydz+H98/cfz9//D0c2SZIkqUcbqMV6U6qxUQ4Im+Rw8Jb0iRwUjh67Kv/wGMM+dMcFBofHntvlOV6e6+VjPK+t1OIllUEXFpQkSZK6rnLBsL5p8eoc+v86N//bpO/m73+Zw/8jhn3oKeVrN88p1/DI5/9H8zjwvsq0eMNALTZ0pJQkSZI6tPLuXm7w31ipxZT0jbELh80Y+z5ygxBQvp7zllS+aWBqv4sKSpIkSZ3T5KmxQQ7+78iBf8cc/o/IDf0F6ba02LADjOOigteWiwrm8eN7/dUYyF+9GCBJkiS1U7lJf09u1nfLX88f+7zvo2mFoQZYy+sHLEoP5THld3lsOSptM1CLVzvaSpIkSU1o8tRYr29avKhSi9flxvwv0o7pJ2NX/nbhPqCRLwiUY8yCSjXOzV+/mL/+TR6LXt9fjZeUY5MjtCRJkrSOlSv290+LV+ZG+3/lhnub/PV76cLcgM83lAAttKRSviq0OnoxwQ/l7/+2HKvKMcuRW5IkSVqzwX+jyrT4q9xY/1tutA8Zu3jfAkMH0IaeTFeXY1U5ZpVjVzmGOZJLkiRJzz30r98/Ld5SqcVnciN9TLoiPWa4ADrIY2PHrmNGj2V5TCvHNkd4SZIk6XmjX9f3uv7q6NB/Vrp97DP9LuAHdLIVY8ey2yvVOLkc48qxzhFfkiRJvTTsb5Ab4Vflpvht+etn89dfpydcxA/ogYsIPjF6zKsf+8ox8FXlmGhlkCRJUjcN/evnRve1ueF9b9opf39c/jrbUAD0sNljx8KdRo+NeYwsx0orhiRJkjp18H9Zbmr/T25uv5KOTbempTb+AH+wdOzYeOzosTKPmeXYaQWRJElSJwz9k3ID+ze5kf1GOjFdnxba5AOs1sKxY+aJo8fQPJaWY6qVRZIkSe02+D91Ib+z011P+1y/TT3AmnnqegF3jR5TXUBQkiRJraxvWmyUm9I35Ob0w+nU9HgaciE/gAm/gODQ2DH21NFjbh57yzHYSiRJkqSGNVAbPb1/00o1/qlSi//Ijehvbc4Bmu635RhcjsXlmFyOzVYoSZIkTUiTp8aGucl8V242y8X8jk8POL0foOUfEyjH4uNHj815jC7HaiuWJEmS1qq+WmxcqcXWubk8KDeZV7mYH0DbXjzwqnKsLsfscuy2gkmSJGlcTanFn1WmjV7F/4r0cFpmgw3Q9paNHbOvKMfwD+wem1jRJEmS9IcGarHelGpslBvGTXPDuEV/NU7I3y8Zu+iUDTVAZxoaPZbnMX302J7H+HKsL8d8K58kSVKPNXnq6AX9XlepxT/lxnCXsQv6LbFpBug6S8aO8buMHvPz2F/WACuhJElSl1cZjBdUqvHX6Qu5GTw23WNzDNAzyjH/2LIGjK4FuSZYGSVJkrqsyVPjhZVpsVVu/A5PM9L8se+XtiEG6C0jY2tAWQsOL2tDWSOslJIkSR3eQC1eUqnFv1SqcXZu9B5KK2x+ARhT1oSHyhpR1oqyZlg5JUmSOqj+arw4N3Nvzc3cN3NjN3Nsg+fdfgBWdVZAWStmlrWjrCFlLbGiSpIktWGTp8Z6uWF7TW7e3pd2zd/7bD8Aa2VsDdm1rCllbSlrjJVWkiSpDZpSi9dWavHx3Kgdme7wFX4ATNBXCd5RqcahaYey1lhxJUmSWlRfLTbNwX/n3KCdkWbZrALQoBcCyjVkzihrTll7rMCSJElNqr8ar82N2PfSNekxm1MAmuSxsbXne2UtsiJLkiRNcAO1WL9Si5f3DcZf5qbrkEp19OubnOYPQMvOChhbiw4pa1NZo8paZcWWJElay/pqMSk3VW/MDdZWY5/vX2DTCUCbWTC2Rm1V1qyydlnBJUmS1qD+8hVMtfhKOi3Ns8EEoM3NG1uzvlLWMCu5JEnSKpo8NSZVqvHO9P3cQJ2fFtlQAtBhytp1flnLyppW1jYrvCRJ0tPq2z3+pL8a03PTdPvY5mnEJhKADlXWsEWVatyUa9tuH9g9Xm+llyRJPdvkqbFebow26huMt+Qm6bv5+zku7AdAl14wsKxx3y1rXln7yhpoJyBJknqiD+weL8oN0LvTd3ND9Ps0bIMIQJcra93vy9pX1sCyFtoRSJKkrm3y1Hh+bn7elRufqfnrtWmFDSEAPaasfdeOrYXvKmujHYIkSeqmwf+pi/v9MDc7V6RlNoAA9LiyFl5R1kYXC5QkSV1R3+6xaW5sdhu9EJKL+wHASi8WWNbKsmbaOUiSpI7Jxf0AwMUCJUlSl9f3tIv7JRf3A4C1uFhgWUOfulhgn4sFSpKkduppF/fb1cX9AGBCLxa4q4sFSpKkdhj8XdwPAFwsUJIkdXMu7gcALhYoSZK6tP7q6Kn+m6Rvj12oyKn+ANDkjwaMrcHfHl2Tqz4aIEmSJrC+Wkyq1OKNudH45Nip/gZ/AGj9NQLKmvzJskaXtdqORZIkrVMDtXhJbiw+khuM09I8Gy4AaCtlbT6trNVlzbZzkSRJa9zYlf3fW6nGgfnrvTZYANDW7h1bs9/rGwMkSdK466/G63MD8YN0c1pqUwUAHWHp2Nr9g7KW29FIkqSVNlCLSblZ2LhSi8+lG33OHwA6+EKBuZaXNb2s7QOuDyBJkkqTp8b6lWq8JjcLW+Ym4SybJgDoIvW1fcuy1pc1385HkqQeLTcFL8gNQV86JDcHs22UAKArzS5rfVnzy9pvByRJUo/VV4s35YbgoDQzDdkcAUBXK2v9zEo19i57ADshSZJ6oIFavLRSiy/nJuCatMyGCAB6ypKyByh7gbInsDOSJKnLqkyL5/VV41WVwdgqF/0r0nIbIADoaWUvcEXZG4zuEXKvIEmSOrz+arw8F/i/r9Tip2Ov+tv0AAB/OCNgbI/wvr5avMTOSZKkDmygFs/PBf1/54JeS/fZ4AAAq3BP7ht2LXuHsoewk5IkqVPe9a/Fy9JX0lXe9QcA1uD6AFeN7SFeZkclSVKb11eLv6xU47RcuOfZyAAAa2Fe2UuUPYWdlSRJ7faOfzUm9Q3G6/PXr+Wi/XAatnkBANbB8OieIvcWY3uMSXZckiS1sIFaPG9KNV6Ri/KWuUifnZbasAAAE2jp6B4j9xplz1H2HpIkqQVVpsVf5oK8dy7M99ugAAANdH/Zc5S9hx2YJEnNHPwH4+WVWuyQi/Gvx77H18YEAGi0suf4ddmDlL2IHZkkSQ0uF943pyPTLJ/1BwBacG2AWWN7kTfbmUmSNMFNnhrrVWrxirRzLrYPpCEbEACghcpe5IGyNyl7lLJXsWOTJGld3/Gvxkv6BuMfcnE92WYDAGg3ZY9S9iplz2LnJknSWjRQi0m5qL497ZJuTyM2GQBAGxoZ26uUPcvbyx7GTk6SpHFWmTZ6yv9HKtU4NxfShTYWAEAHWFj2LqN7mGk+EiBJ0uqH/8HYNBfP/XIRfdBF/gCADrxI4INlL1P2NHZ2kiQ9q75arNc3GK/qr8anctGcmVbYQAAAHWzF6J4m9zZlj1P2OnZ8kqSe7593jQ1ycXxPLpJHpUU2DABAF1k0uscpe52qFwEkSb39zv/GlWp8OhfGa2wQAIAudk3ueT5cGYyX2wFKknquXAj/PB2U5tgUAAA94P5KNaqVafEWO0FJUk9UGYwX5OK3bS6Cl6XFNgMAQA99XeCC9Ou+avzD5Kmxvp2hJKlbB/8NcvDfJBe9w8cG/xEbAQCgF78pIPdEc/ur8e1KLV45eaprA0iSumn4nxavyIVu6+Sz/gAAYyq1OCX3R+8pZ0jaMUqSOrryinZfNd6Si9tuucjd611/AIBnGEq/S59Jr7Z7lCR1ZOWrbirV6Etn5IK20AIPAPCcZuWe6fDcP/35QM1HAiRJnfXO/0a5gJVXsu8un3OzqAMArNbSSjWurkyLLewmJUltXy5Y5UJ/70hHj13l1mIOALBm3xRQLhC42wd2j9f21XxTgCSp/d7xf17fYLysUouP5qJ1rcUbAGCdrKhU45zcW72/b/d4cdlrSZLUFvXV4k9ykarmYjXbgg0AMGFuzT3WNyuDLhAoSWqDcmH6u3RiWm6RBgCYcI+nY8uey85TktSSJk+NDSq12C4Xo6vLaWoWZwCAxn0koOy5cu+1w0AtNrITlSQ16x3/5+Xis2mlGoP5+/ljF6uxMAMANP4CgY/nHmzf/PWNFV8XKElqZAO12DAXnXfnonOmRRgAoGVm5J7s78rezA5VkjTx7/xXY+O0U7rVogsA0GLV0QsE7thXi5fbqUqSJnL4/7NcaPZKDznlHwCgbT4S8GD6fmVavM6OVZK0Tg3UYr0c/t9dqca5ubgstNACALSdck2mE/p2j7dNnho2sJKktXrX/0Vp+xz+Z+eiMmxxBQBoW0O5Z7uhMhj/UKnFC+xkJUnjavLUWD8Xjjfk8D8tF5NFFlQAgM5QqcbD+euXch/3artaSdIqqwzGBuUq/5VanGD4BwDoSHP7q7Ff3+DoRwJ8VaAkaSXDf230nf9tc9G4Ii2zeAIAdKzFlWqc1VeNf+ireRFAkvTHLwB8JReL+yyYAABdoVzD6fbKtNjaTleSVE75X/8Du8cmlWocnAvEAgslAEDXmVOpxXdyz/fqsvezA5ak3nzH//npPTn8/7JcOdbiCADQtZ7MPd9x6V391djATliSemv4n5Q+NvZ5f4siAED3W5Eu6K/GtmmSHbEk9UADtXhppRpfzwXgXgshAEDPuaNSi/87eWq8wM5Ykrq4vlpsmsP/QXngn2fxAwDo4esCVGPfymC82g5Zkrqs0VP+p8Xf5cH+3LTcogcA0PPKnvCcskcse0U7Zknqgt7/w9iwUj7rVYubLHQAADzLTWWvWPaMds6S1Mnv/A/Gy/KAvmMe2B+xuAEA8BweyT3jZ8re0Q5akjpz+H95Hsh3yQP6AxY1AADG8SLA1P5qbGonLUmdNPzX4k/zIL5/esxiBgDAOD2eDq9Miz+zo5ak9h/818sD9lvzwH1cWmYRAwBgLS4OeEHuK//m/bvF+nbYktSGTZ4ak/JA/a48YM+wcAEAsC4q1XggVSqDsZGdtiS1UQO1eEEeoD9YqcW1FiwAACbIfbnH/GxfLV5uxy1JbVBlMF6cB+Z/zQP0zWnYQgUAwAQZSQ+m71ZqsYmdtyS1sP5qvDSH/6+me8cO0BYqAAAm2ry0b3qNHbgkteKd/1q8Mg/Cu6fFhn8AABpsWe4/TytnAkyeGuvZjUtSE8oD7vr91XhTHnxPsRABANDUiwPW4pK+wfjrsie1M5ekxg7/k/KA+97+apw+9hUtFiIAAJppqFKNCyuD8Y/phXboktSA8gC7YR5sN0uXlVOwLD4AALTs4wDVuCptXfaoduqSNIH11WJSHmC3Sbe40j8AAG1geHRvWo0d0iQ7dkmagPKA+sJKLT6TB9kFLvYHAEAbKXvThblX/XRlWrzAzl2S1rJyYZVKNV7XX43q2JX+LTIAALSjhZVp8c3yDQF28ZK05sP/en2D8Y48iB6WB9T5FhUAANrc/Ny77p02tZuXpDUb/t9aqcZJ3vkHAKCDzKvU4qjcy7657Gnt7CVpNb1/t9i4Uv+av6UWEQAAOszSspcte1o7e0l6jiqDsf4Hdo/X5gHzzDxwDlk8AADoUGUve2nub99Z9rh2+pL0zOH/+Tn4/305UBr+AQDoAiO5v706/WP5Vis7fkmqD/8blANjusTwDwBAl50JcE3arlKLjez8JfX8af85+L8veecfAIBudUulFtunSSYASb38AsA7cvgvr4oOWxgAAOhi91Rq8UETgKTeG/xrsUHaLIf/m8vnoywIAAD0gAdG98C5FzYRSOqV4X+jcgpUHgDvtggAANBj7s698Ecr0+LFJgNJvTD8f7R8DsrBHwCAHnV77ol3Ti83IUjq5tP+tzf8AwBAPJx74++kDU0Kkrqu/mp8rlz8xMEeAABGza3U4msmBUnd9M7/hunr5QDnIA8AAM8wr+yVnQkgqRuG/5enb+eB7VEHdwAAWKlHy57ZNQEkdfrw/63y+SYHdQAAWO01Ab7VNxivnjw1DBOSOqf37zY6/A8a/gEAYA1eBKjGAbmXfoWJQlJHNHlqbJQHroPyALbAQRwAANbIk2UvXfbUJgtJ7f/Of334f9LBGwAA1v5FgLK3NmFIasvGPvM/6J1/AABYZwvK3tqFASW16/Dvgn8AADDBFwb0IoCkdhr+Nxz7qj/DPwAATPyLAOUrAjc0eUhqhxcAvp4HpkcdnAEAoCEeLXtuk4ekVg7+G6TP5wFproMyAAA01Nyy9y57cJOIpGYP/xul7fNAdI+DMQAANMU9ZQ9e9uImEknNHP4/mgegWxyEAQCgqW4pe3EvAkhq1mn/2xv+AQCgpS8CbO/jAJIa/QLAZnnAudtBFwAAWuru/mr8swlF0sQP/oOxfnpHpRo3O9gCAEDr5d78xtE9eu7VTSySJmr43yAPLu9L1+SBZsTBFgAA2sJI2aOP7tUHfRxA0roP/8/PA8o/pkvzADPsIAsAAG1luOzVR/fsuXc3wUha+9P+q/H36ZI8sAw5uAIAQFsaKnv20b27jwNIWps+sHu8Ng8mlxr+AQCgI14EOO8Du8UmJhlJ427y1Fjv/bvFxnkAOdPwDwAAHWNF2cOXvXzZ05tsJK12+O8bjLfmgeN0wz8AAHTkmQCnlz29FwEkrWr4X7+v/lV/J+WBY6mDJwAAdKSlZU9f9vZlj2/SkfRH5UHidZVaHJYHjMUOmgAA0NEWl7192eObdCQ9c/ivxQtTLQ8U8x0sAQCgK8wve/yy1zfxSBqtrxaT8qDwGe/8AwBAV54J8Jmy5zf5SL3+zv9gbFipxjZ5YFjg4AgAAF1pQdnzl72/CUjq0SZPjUl5INgs3ZIHhREHRgAA6Eojueef2V+N/jIDmISk3hv+yxX/35sHgsvygDDsoAgAAF1tRbqozAC+GUDqsfqr8aZ0eh4EljkYAgBAT1g2OgPkLGAiknrlc/+1eGU6JQ8Ayx0EAQCgpywvs0CZCUxGUve/8//SfNLv7sAHAAA9bfcyG5iQpG59538wXlypxlf7fd0fAAD0usVlNigzgklJ6rIGavGCfIL/a7q33xX/AQCg15VvBrg3fXLy1NjAxCR1SWNf9/fBfJLfbPgHAACe9iLAjX2DMcXXA0rdcNp/LdZL70rX9vu6PwAA4JmGy6wwNjOsZ4KSOvkFgGq8NZ/UMxzYAACAVZhRZgcTlNS57/7/aTrOwQwAAFidMjuUGcIkJXXa8D8YL69UY898Ii9zMAMAAMZhWZkhyixhopI6Z/h/WT5xd8kn8BwHMQAAYA3MKbNEmSlMVlKb9/4fxob5hN0xn7gPOHgBAABr4YEyU5TZwoQlte9n/svX/W2bT9hHHLQAAIB18EiZLcqMYdKS2vEFgGr8XT5Rb3KwAgAAJsBNZcYwaUltVl8tNs0n6LkOUgAAwAQ6t8waJi6pTRqoxUsr1Tgon5zLHaAAAIAJtDxnjQMmT40XmLyk9vjc/9fziTnPwQkAAGiAeTlzfM31AKTWDv/PTx/LJ+S9DkoAAEAD3VtmjzKDmMSkZg//g7F+Pvnek0/EKxyMAACAJriizCBlFjGRSU3sA7vHJpVq/NJBCAAAaJYyg5RZxEQmNfMMgGocnE/AIQchAACgiYbKLGIik5rzuf9y6v9X8om3wMEHAABogQVlJimziQlNatzn/jfIJ9m2+YS7z0EHAABo8UUBty4ziklNmuAmT431K9V4t4v+AQAAbWA455OLy4xSZhUTmzSxp/6/IZ2QT7RlDjYAAEAbWFZmlDKrmNikiRv+X5T2yCfYIgcZAACgjSwqs0qZWUxu0jo2UIv1+quxveEfAABo1xcBysxSZhcTnLQO5RPp3ZVqzHZQAQAA2tXozJKziwlOWvtT//8sn0jnlgtsOKgAAABtflHAc8sMY5KT1vyd/43zSbRXWuhgAgAAdICFozNMzjImOmn8n/vfMJ80O+WT5yEHEQAAoIM8VKnGDpOnxiSTnbS6d/5rUU79/9v89XdpxAEEAADoICM5z1yX/qbMNpJW/bn/TfOJcqYDBwAA0MHOLLONCU96jiZPjQ0q1Rh0sAAAADpdmW3KjGPSk1b+7v92+USZ72ABAAB0gfllxjHpSX/82f/3pKt97h8AAOiW6wGMzTjvMfFJ9dP+n9dXiz/JJ8WJaYWDBAAA0EXKjHNimXnK7CP1dH2D8bJKNar5pFju4AAAAHSh5Tnz7N63e7zUBKjeHf6rsUGlFh/NJ8RsBwUAAKCL3V+pxkfKDGQSVG9e9K8a78gnwnUOBgAAQA+4rsxAJkH14mf/N8oH/9EOAgAAQK8oM1CZhUyE6pn6q7FepRafzSfAAgcBAACghywYnYVyJjIZqhfe+V+vUo2+fODf7ckPAAD0oLvLTFRmIxOiuv3Cf2/JB/sZ+aAf9sQHAAB60HDORKdXBuPPTIjq5uH/FZVa7J4P+IWe9AAAQA97vFKNqWVGMimq66oMxgb5AN+6Uot7PdkBAIBeV2aj0Rlp0FcDqtteAKjGJumafKCPeLIDAADESJmRyqxkYlQ3vfv/gnxwH+EJDgAA8EeOKDOTyVHd8u7/tvmgXuyJDQAA8EcWl5nJ5KjOH/5r8b/yAX25U/8BAABW/lGAdFl6hwlSHVtfLTbOB/EhaYknNQAAwHOfBZAOKjOUSVId1z/vOnrV/0/ng3iOJzMAAMBqzSkzVJmlTJTqpHf+16vU4j35AL7WkxgAAGDcri2zVJmpTJbqjBcABuNV+cA9ypMXAABgjR1VZiqTpTrlwn+fygftIk9cAACANbaozFQmS7X/8D8Ym+YDdqYnLQAAwFqbWWYrE6ba99T/aqxXqcZ++WBd4QkLAACw1laU2arMWCZNtV0DtZiUD86P5AP1QU9WAACAdfZgmbHKrGXiVFuVD863V6pxbv467IkKAACwzobHZqy3mzjVPsN/NV6SD8pd0kJPUgAAgAmzcHTWypnL5KmWN3lqrNc3GP+QD8rbPTkBAAAm3O1l5iqzlwlUrX73/5XplHxQjnhiAgAATLiR0ZkrZy8TqFpapRY7e0ICAAA0Vpm9TKBq5YX/3pIe8GQEAABouDJ7vcUkqua/8z8YL88H35FpyBMRAACg4crsdWSZxUykavap/zvkg2+WJyEAAEDTzCqzmIlUTWmgFs/rq8Zf5gPv/DTsCQgAANA0ZQY7v8xkk6eGAVWNbUo1XtFfjb3zQbfckw8AAKDplleqMdi3e7zEhKrGXfSvGpPSlvmAu9+TDgAAoGXuH53NckYzqaoh9Q3G6/OBdrYnGwAAQMudXWY0k6oadeG/r+eDbKknGgAAQMstLTOaSVUT/+5/bfTCfw97kgEAALSNh8usZmLVxH32vxYvq1TjtH5X/QcAAGgnw2Oz2stMrlrnBmrx/HwwfSXN8+QCAABoO3PTF8vsZoLVun7u/3/ng+kqTyoAAIA2PQugFr8ps5sJVmt/6n81Xp4Pplpa4kkFAADQtpZUarFrXy1eYpLVml/0rxrls/9/n+7zZAIAAGh796T3lVlOWrMXAAbjVZVq/NSTCAAAoDOUGa7MciZardln/6uxtVP/AQAAOuyjADnLmWi1Jlf+f2k+cK7w5AGgk2y+Z8QnD169//eTiK8fF/FvR6z+n91mH7crAB3nijLTmWw13iv/fzkfNMs9cQBolW33rQ/oRRnWd/t53fRzIo65JOInl0X8dEbEpbf+t8tvi7jhvtW7+5GIe+ZE3PLg6v/ZK+945p9x1u/qf3Zx9MURe59Z/7n+46f1n/VfD4vYam/3HwAttbzMdCZbrf6z/7V4Uz5grvGkAaDRPn9kDvc/idjnrIijcpg+87r6kH3voxEPzIuY/XjdowsiHn+ybuGSiCXL65atiKY3NPzff/7iZRELFtd/rnkL6z/rrPkR98+t/x1+e1fEOddH/NdlEQeeF/Hvx9f/zu57AJrgmjLbmXC1qnf+X5APlIPSMk8YANbUB/eov/v9kf0jPv6jiJ0OjfjqsRGDv4g49eqIS26JuO3h+rDc6z2xOOLO2fXb5Pjf1G+jclv966H1jx6U23CbfSM229PjCoC1vhbA3mXGM+nqj5o8NdbPB0hfPlBmerIAsDplMN0+h9TPHB7xrRMifnBqxH7n5DB7ecSFMyNun1V/515rVjmboJxBcPEtET+7OuKg8+q3bfkYRLmty23uRQEAxmlmmfHKrGfi1bOv+v+adGg+SIY8UQB4tvLOfnl3unzWff9zI07IQf9XN0b87t6IOU9ELF1ueG9U5bZ96LGI6+6t3+bl2gflhYHvnVL/SMGHpnt8ArBSQ2XGK7OeiVdPv+r/pHxwbJlme5IA8NTA/7WfREw/O+K030b85raIm+6vfzZ/0dKI4RGDeSt7clnEw/Mjbn0oYsYd9fuo3FflPnMRQgCepsx4W5aZz+Sr0fqrsXE6y5MDoHdtsVd9ePzxxfVhv1wlv5zCv2BJxPKhCPN++1bum3Iflfuq3Gflviv3Ybkvy31a7luPcYAeVma9nPlMvnrq4n+f88QA6JHP7u8R8eHpEZ/4UcSXj4k44LyIq+6sX9Fe3Vm5b8s3Ehx5UcS/Hzd2kcH9IjZ3LQGAnlFmPpOvyvD/+nSjJwVAd5oyLWLbfevfUf/tE+uf3z/3hvoV6H1uv/daMRzx4Lz6RQYPPb9+TYfy2CiPkfJY8ZwB6NoXAG4ss58JuLev/P/8fDD8IK3wpADoLuXCcOUd/h/9KuKM6yJuuK/+9XsjzuXX0z468Pji+mOjPEbKY6V8ZMBFBQG6Upn5flBmQJNwr372vxbvTTd7MgB0z4X7vnNixDGX1D8Dfscsp/ZrzT4qcPeciBm3R5x4Rf3rB7c/wPMKoIuU2e+9JuHevPL/SyrVODAfAEs9EQA61zb7Rnzj+IhTr4q4b27E3IX1Qc47/VqXMwOWroh4bFH9Wx/KY+vrx0Vs7mKCAJ1uaZkByyxoIu6h+srX/lVj+3wA3OdJANBZn+ffap+IHQ+O2PVnERfcHPHEYsO+mvCiwEj9IyS/urH+2NvxkPqLTwOuGwDQae4rs2CfrwXsqQv/vTHv+NM8+AE659T+zx4e8f1TI064POL+uQZStbZyZsBpV0dUfxHx+SPrj1HPVYCOcVqZCU3GvfC5/+rohf8+meZ54AO0t08dErHbz+uD1u/ujViw2OCp9mrJ8oibH6g/RstjtTxmPXcB2t680Zmw6oKAvXDhv03SFR70AO1py70ivnVC/SJsZeif84QhU51ReayWx2x57H73JGcFALS5MhNuYkLu/hcAvtPva/8A2s52+0VMPyfixvsiHl1Qvwibj/arUy8gWC5GeeP99cd0eWx7jgO0nTITfseE3M0X/9s9/qRSjTke7ACtt9meETscGPGdn9Yv5rdwiYv5qTsvHvj4kxFnXBfxzePrj/ny2HcMAGi9MhuWGdGk3IVNnhqT8g7ezbv/AK1Vrpz+paMj9j834qb7I5YPGRLVG5XHennMl8f+l4+J+PB0xwOAVp8FUGbEMiuamLvtyv/VeGe6yYMcoPmm1OrvfJavTyvfqX7n7IjhYQOherPy2L/7kYif/7b+nPjI/o4RAC08C+CmMiuamLvr3f/n5536w7yDF3mQAzTXJ38Usd85EdfeHTH78Yghg780WnkulOfE1XfWrxXw0QMcLwBaYFGZFcvMaHLungv/vSvNSCMe4ABNGvwPjjj6kojbZ0UsWGLYk1ZVeY78/uH6c6Y8dxxDAJpmZGxWfJfJuTsu/PeiSjV2zTt0mQc3QOMMTIvYtny+/5iIs38X8cRiF/WT1uaigeW5U55D5blUnlNTpjm+ADTYsjIzltnRBN3Zp/6vl3fku/MOvc6DGqBxg/8OB0VM/Vn9SucLFhvipAk5KyCfS7+4JuK7J9WfYwNeCABopOvK7FhmSJN05174b6O0S78r/wM0xIf3i9jjlxEXzax/1ZmkCb5g4EjE3IX151h5rpXnnGMPQEOUbwTYpcyQJulOPf1/MN6Sd+BtHswAE+tjB0QM/iLiN7fVhxNJja881y6/PWKfsyK23sdxCGCildmxzJAm6c69+F9593/YgxlgYpShY68zI268P2L+kz7jL7XqGgEz7oj49okRm+/puAQwgcrsuItJujMv/rdppRpzPIgB1v0z/tvtF/EfP424Z079lGRJ7fHxgOvvi/jOifXnqGsEAEzIWQBzyixpou6si/9Nyjtut7wDhzyIAdb94n4X3RKxYsjAJbVj5blZnqPluepigQDrbKjMkmWmNFl3zsX/3plu8uAFWPtT/V3cT+qsynO1PGcHf+4aAQDreBbATWWmNFl3xrv/z88764d5xy3y4AVYM+XzxN84PuK8G1zcT+rUHnmi/hwuz2XXCABYK4vKTFlmSxN2+1/4711pRhrxwAUYv08eHHHKVREPPRYxNGyIkjq58hwuz+XynC7Pbcc4gDUyMjZTvsuE3d4X/ntRpRq75h21zIMWYPU227M+HBxzSf3K4q7qL3VXT31rQHmOf/xHER/cw3EPYJyWldmyzJgm7fY89X+9vIPenXfUdR6sAKu/wN/HD4rY+8yIO2cbkqRe6OYHIn54WsTHDnShQIBxuq7MmGXWNHG334X/Nkq75J20wgMV4LlttXfE90+NuHBmxKKlhiKpZ84GSI8tql8foHyt55Z7Ox4CrMaKMmOWWdPE3W6n/w/GW/IO+r0HKcBz+/yREWdcW/9s8LDT/aWevT7AfXMjTr0qYqdDHRcBVuP3ZdY0cbffxf/Ku//DHqAAf2yLvSKmn13f9C8fMgBJili6IuLuORHTTq8fIxwrAVaqzJi7mLjb6+J/b6hUY44HJ8Azle8CL6f63nCfwV/SyivHhnKM+O5J9WOGYyfAM5VZ8wO7x+tN3u1x8b9J/dU4zLv/AP+tXOn7346IOPnKiHkLDTiSVl/5toDysYBy7HAcBXiGoZw5dyuzpwm89Rf/e2feIbd7UALUfXh6xJ5nRFx3r4FG0pp37T0RU38WsY2zAQCefhbATWX2NIG3/gWAH+QdssiDEuh15Wu9vnxMxDnX19/1d40/SWvTSB48Zj8e8fPf1i8c6isDAUYtKrOnCbyVw38t3pp3xPlpxAMS6GWb7Rmxz1kR97vIn6QJatmKiDtmRez+8/rHihxrgR5XZs7zywxqEm/Fhf9qMSnvgK949x/oZZvn4P/pwyJm3F7/ai9JmujKsaWcWVSONeWY49gL9PJZAGUGLbOoibz57/6/MW/80zwIgV40ZVrEDgdGTD8n4oF5TveX1OCPBUT9WFOOOeXYM8XHAoDedVqZRU3kTWygFuvnDb9VmucBCPTqZ/1/dWPEwiUGE0nNqxxzytkAXzrGtQGAnlVm0K3KTGoyb1L91XhF3uhHefABvWaLvSL2OiPitocjhp3yL6kFleuM/P7h+rUBHJeBHnVUmUlN5s06/X8w/jJv9AUeeEAv+egBESdfWb/CvyS1ukcXRJxwecS2+zo+Az1nQZlJTebNOgOgFod60AG9Ysu9I753SsQdsyOGfdhfUhu1Yiji2nsivnF8/Qwlx2yghxxqMm/Oxf9eW6nGfA84oBd8/EcRx17qXX9J7d3sxyMO/nX9TCXHbqAXlJm0zKYm9Ma/+/+9NORBB3S7Lx4dccHN9c/bSlK7t3hZ/QKBnz/K8RvoCUOVanzbhN7A+mqxad7Q13iwAd1+ob/BX0Tc9IBT/iV1VuWYdf199WOYjwQAXW4kzSgzqkm9caf/75w38mMebEC3+tD0iB9fHDHnCcO/pM59EaAcw8qxrBzTHNuBLvZo+rRJvQFNqcVr88Y9w4MM6EZTpkV8+rCIK++IGPL1fpK6oHIsu+TWiB0PqR/jHOuBLj0L4IwprgUwsU2eGuv1V+MTeePO8iADuvGU/2+fGHH/XAODpO5r5gO+JQDoag9VqrFDmVlN7hN16n81XpM37JEeXEC32W6/iAPOrV9BW5K6sZGR+guc08+uH/Mc+4EuvBjgoWVmNblP3JX//z7d6cEFdNMp/586NOJnV0c8tsiAIKn7XwSYuyDipBkRH/NVgUD3KbPq35vcJ+bCfy/OG3PXfl/9B3SR8nn/a++JWLLcYCCpdypfFfjbuyL+5SDrANBdZwGUmbXMrib4dT/9/63pHg8qoFs+7/+1n9SvkD3iKv+SevRsgEeeqB8LXRcA6BZlZi2zqwl+3c8A+KYHFNAtn/ff/9yIeQsNAJJUjoXlmOi6AEDXvAiQs6sJfh0aqMVL8oac6cEEdPTn/Wv1012P/43P+0vS0yvHxP+6LOIjXgQAusPMMsOa5Nf24n/V+HjeiCs8kIBO9smDI351Y8TCJTb7kvTsHl8ccfb1Edu7OCDQ+VaUGdYkvxZNnhovrFTj7LwRRzyQgE71iR9F3HBfxPIhm3xJeq7KMfLiW+rHTGsH0MFGygxbZlkT/RrWV42t8wZ8yIMI6ESb7Rmxy0kRd852sT9JGk/Deayc+WDEzj+uH0OtJUCHeqjMsib6Nbnw32C8IG+4w53+D3SirfaOGPxFxD1zbOglaU0rx87dTovYcm/rCdChHwPIWbbMtCb78X/2/6/zRpvhwQN0mvKVVgeeFzFrvk28JK1tD8yrf0OArwkEOtSMMtOa7Mf32f9JlWp8IW+0+R44QKcN/ydcHjHX1/xJ0jpXjqXlmOpFAKADzS8zbZltTfirO/2/Fq/PG+xYF/8DOnH4f3KZTbskTVTlmOpFAKATLwZYZtoy25rwV9FALdbLG+mf8sa6x4MG6ARTptW/uupnV0csNvxL0oRXjq2nXhWx3X7WHKCj3FNm2zLjmvSf67P/tdgo7eLBAnTK8P/pwyIunBkxNGyTLkmNPBPgtKsjdjy4fuy1BgEdosy2G5n0n/sFgE3Tbz1QgE6w4yH14X+F4V+SGl451pZjbjn2WoOADlFm201N+s999f8t8gZa4oECtLv/e1TEpbd651+Smlk55l58S8RHD7AOAR1hSZlxTfrPfQbACR4kQCcM/9ffa/iXpJacCTAUcf7NXgQAOsYJJv2VNKUWb/LuP9DOBvaI+OqxETc/EDEyYhMuSa1qOI/BN91fPyaXY7M1CmjnswDev1tsYuJ/9tf/VeObeeMMeYAA7Tr8f/0nETfeb+MtSe1SOSaXY7MXAYA2NlRmXRP/0+qrxcZ5w1zhwQG0q/Iuk+FfktrzRYByjLZWAW3s8spgvMzk/98X/9smb5SHPTCAdv3MfzntX5LUnpVjdDlWW7OANvWQiwGONXlqbFipxkF5oyzzwADa9YJ/PvMvSe1bOUZfc3fEJw+2bgFtaVmZecvs67P/tXhX3iBXeVAALvgnSVrbVgxHXHJrxKcOiZgyzToGtJ2rcvb9254e/gdqMalSja/kjbHQAwJoF2XjuPOP6+/8S5I6p/L1rBfOjPj0YV4EANrO/EotvlBm4N797H8tNk3HezAA7aS8e1Q2kOXdJElS550JUI7h5VhuTQPaTJl9N+3lr/77p7wBHvRAANrFRw+on0I6ZPiXpI4+E6Acy8sx3doGtJEHywzcq1f+3yhvgO+mYQ8EoF2G//NvjlgxZPMsSR1/JsBQ/ZjuRQCgjQyPzsA5C/fi6f9vSL/1IADawYf3izjj2ohlK2yaJalbKsf0cmwvx3hrHdAmygz8hl58AeDD7nygXd75P/nKiCeX2SxLUrdVju0nzYjYzosAQPv4cC9+/d+p7nig1bbaO+Inl0UsWmqTLEnd2hOLIw67IGKLvax7QOuVWbi3hv/BeF3+xR935wOt9qNfRcx/0uZYkrq9uQsjpp9t3QPawuNlJu6ld/8/m3/pIXc80Eo/ODVi3iKbYknqlR5dEPG1n1j/gJYbKjNxr7z7Pyn/wmenEXc80AoDe0T8x08jHnrMZliSeq0H50V858RcC6ZZD4GWKbPw2WU27v4XAKrxN/mXvdudDrTCB/eov/vz+4dtgiWpFxseibj+3ogvH1NfE6yNQIvcXWbjXrj6/zfSE+5woNmmpH87IuKqOyOGhm2CJalXK2tAWQvKmjDF+gi0RpmJv9Htp/+/LP+SJ6ZhdzjQbB87MOKCmyOWD9n8SlKvV9aCsiaUtcEaCbRAmYlPLDNyN1/87//kX/J6dzbQCiddGbFshU2vJKleWRPK2mCNBFrk+jIjd+u7/+vnX/AraaE7Gmimzfasf93fUsO/JOlZLV0esc9ZrgcAtESZjb9SZuVuvPjfa/Mvd6w7GWj28P/D0+pf/SRJ0sqa80TEf57kRQCgJY4ts3I3Xvzvven37mCgaV/3Ny3i34+rX/F/ZMQGV5K08soacdMDEV8+1tcDAk1XZuT3dtvp/xvkX2qntNQdDDTLTodGzLjDFf8lSauvXBTwklsjdjzE+gk0VZmRdyozczdd/O9V6Th3LtAsH5oece4NLvonSRp/5XoAp1wVsfU+1lGgecqsXGbmbjr9/21ptjsXaIbyGc6jLvLOvyRpzVsxVL9wrOsBAE1UZuW3ddMFAD/rTgWa9bn/XU6OWLjEJlaStHaVNaSsJa4HADTtLICcmbvpDIBfu1OBZvjyMRG3PBThmn+SpLWtrCFlLSlrirUVaJJfd8sFAF+Xf5kn3KFAo33y4IgLZ9Yv5CRJ0rpU1pKyppS1xRoLNMETZXbuhgsAltP/h92hQCNtu2/Ecb+JWLzMplWSNDGVNeXoSyK22ts6CzRcmZn/pdPf/Z+Uf4mz04g7FGjkRf/2+GXEk0ttViVJE9vjT0bs/nMXBQQabqRSjZMHarF+J78A8Bf5F7nTnQk00peOiZj1uE2qJKkx3TE74vNHWW+Bhru9vxpv6fSr/891RwKN8qHpEVfeaXMqSWpsF82srznWXqCB5nbstwEM1GKj/Asck1a4I4FG2HzPiGMujRgetjGVJDW2pSsijriwvvZYg4EGKbPzMWWW7rgXAPqq8Vf5w89wJwKNMvVnEbOd+i9JalIPPhbx3ZOsv0BDzSizdKe9+79epRr/lj/8Y+5AYKJNSV88OuLmByJGRmxIJUnNqaw5198X8bkj62uRNRlogMfKLF1m6o55AaC/Gq/MH/wQdx7QCNsfEHHW7yKGnPovSWpyZe0pa1BZi6zJQIMcUmbqTrr4319XnP4PNOJz/3tFHHBuxBOLbUIlSa2prEH7nu16AEBjlFm6zNQdMfxPnjp6+v82+YMvcOcBjfjKv4ces/mUJLW2ux6J2PnH1mWgIRaUmbrM1p1w+v+L8gf+vjsNaIQrbrfplCS1vuGRiMtvsy4DDfP9Mlt3wgsAr88f9kJ3GDCRPrhHxIHnRSwfsumUJLVHZU0qa9PANOs0MOEuLLN1+78AUIu/SPPdYcCEXfU/N1bfOTFizhM2m5Kk9qp8He1X/8taDUy4MlP/RftfALAWO7qzgIm04yH1U/9d9V+S1G6tGIq48OaIHQ60XgMTfjHAHTvhDIDj3FnARNlir4jDLohYuMQmU5LUnpVvBTjk1/U1y9oNTKDjOuEFgLnuKGCifPHoiLsfsbmUJLV3Za0qa5a1G5iwMwCqcX9bD/99tfj/8gcddmcBE2H7/SMuuiViZMTGUpLU3pW1qqxZZe2yhgMTZKjM2O38+f/d84cccUcBE+HgX9tQSpI6q/KtANZwYIKMlBm7LYf/yVNjg0o1zncnARPh04e56r8kqfN66LGIHQ+2jgMT9jGA88us3X6n/1fjHfkD3uVOAtbV1vtEnH29U/8lSZ1XWbtOvyZi8z2t58CEuKvM2u138b9qfCp/uEfdQcC6qp0eMW+hTaQkqTObsyBi6s+s58CEeLTM2u312f/BWL9SjSPyh1vhDgLWxacOibj2bu/+S5I6+yyAa+6ur2nWdmAdrSizdpm52+kFgDfmD3aBOwdYF1vuHfFfl0UsW2HzKEnq7BYvizjyoogt9rK+A+vsgjJzt88LANWYkj/Ube4YYG1NmRbxzRMiHphn0yhJ6o7ueiTiq8fmGmedB9bNbWXmbper/0/KH+ab+UMtdscAa+vD0yMunGmzKEnqnoaGI35xTcQ2+1rngXVSZu3/1y4X/3tN/jBHuVOAdbHbzyOWLLdZlCR1VwuXRPznSdZ5YJ0dkbP3xq0//b8Wf50/zAx3CLC2yucj759rkyhJ6s7KGudaAMA6mlFm75YO/wO1WC9/kG3SQncIsDYGptUv/Dfsqv+SpC6trHFlrStrnrUfWEtl5t6mzOCtvPjfi/KH+IE7A1hbO/844r5HbQ4lSd3dvbnWfe5I6z6wTr6bNmrl6f+vzR/gHHcEsDa22Sfil9dGLPe1f5KkLq98xe2pV/soALBOzkibtPIMgLekR9wRwNr4z5MjHnrMplCS1BvdPSfi68dZ/4G1U2bvMoO38gyAT+YPMuLOANbU9vtHnHtDxIjP/kuSeqRyLYCzf1dfA+0FgLUwUmbw1n0FYC2OcScAa+qDe0RUT49YvMxmUJLUW81bGPG9U1wQEFhrx7TyBYC73QHA2rz7f/VdNoGSpN7sklsittvPfgBYK3e35vT/wdELAA67A4A1tc9ZEUtd+E+S1KOVNfCHP7MfANbKcJnFm/4CQF81tvYCALCmttzb1/5JknTn7PqaaG8ArOkLAGUWb8Xp/9NdABBYE1OmRex/bsTQsI2fJKm3K2thWROn2B8Aa3ghwP5q7N7U4X+gFs/PP/hiNz6wJj57eMTdj9j0Sa2unH7sYzhSe5wF8ImD7Q+ANXZxmcmb9gLAlGq8Of/QO9zwwHhtvmfEiVdELFluwye1uotm1klqbU8ui/jxxREDe9gnAGvkjjKTN+8CgLXYMv/QWW54YLy+eHTEbQ/b7Emt7sHHIr56bF35vaTWNTIS8bt7Iz59mH0CsEZmlZm8eS8AVONb+YcucMMD43r3f6+Ioy+JWOaUY6mlrRiKOOLCiC3yObnV3hHHXFL/7yS1rkVLIg76VcQHnQUAjN+CMpM35+r/tVg//8ATXAAQWJN3/2+fZZMntfSdxnT9fRGfO/K/n5ufz9/fcF/9f5PUuq67p36dHHsGYNwXAsyZvMzmzXgB4G35h13qRgfG9bV/e9XfZZTU2h5bFLHHL5/5/CzvOE4/O2L+k24fqZUtH4o48Lz69XLsHYBxurTM5s34/H9f/mG3usGB8fjM4REPzLO5k1pZOc3/1zdFbLffHz9HP3pAxMW3+HpOqdXd8mDEJ30jADB+t5bZvOEvAOQf9Nk0zw0OjMfBv7apk1rdowsi/v24536e7nJSxLyFbieppS/UDUcccK59AzBuZSb/bEOH/4FavDD/kME05AYHVnv6/94R9z1qUye1up9eEbHZKk4tLhcFPOd6t5PU6sqaWdZOewhgHMpMPlhm9Eae/v8/8g/5mRsbWJ0paf9zIoadViy1tFnzI7bff/XP2fJRgCcWu72kVlbWzP3OsYcAxu2E/mps2sgXAN6df8h1bmhgPMOEK/9LrW3p8ojaL8f/vD3k/PppyJJa120PR2y7r30EMC7XlRm9cS8AVGOz/EMed0MDq7P3md5NlFrdb24b37v/T9nhwPpXBUpqXWXtLGuovQQwDo+XGb1RX/+3Yf4BX3IjA+MZIq64PWLYl4tLLWv24xHfPyViYI/xP3fL1wJO+2XEAi/eSS2rrJ2jL94dYD8BjMuXyqzeiKv/vyr92A0MrM7gz+tXHZfUmspX+v3imogPTV/z5+/Hcui44Ga3odTqF/B+cKr9BDAuZUZ/VSNeAPjTdJUbGFiVj+wfcfb1ESPe/Zda1u8fjvjS0Wt/Ac9vn+gbPKRWnwVw+lq+iAf0nDKj/+nEvwBQjb/Kf/ESNzDwnIPDtIhvHB/x4DybN6lVPbk04vAL1u25vPmeEadeFbFshdtTalVlLf36cfYWwGotKbN6I84A2MGNC6zKVvtEnHiFTZvUyq69u34djnV9Pn/6sIg7Zrs9pVZ29CURW+5lfwGs1g6N+ArA6W5YYHUDw/3e/ZdaVnnH/psnTNxz+oBzI3yaR2pd5UW4fznI/gJYtTKrN+IrAGe4cYFVmX62K/9Lreyy39ev5D9Rz+lt9o24+QG3q9SqVgz5SkBgHC8A5Kw+ocP/P/8wXpb/4mVuXGBVXx/2gHf/pZY1d2HE54+c+Of2LifVrysgqTXddP/EvrAHdKVlfbWYNJGn//9z/ktH3LDAc/nuT737L7WqpSsiDv51xBYN+KxwuQr5GdfWv1pQUvMra2tZY+01gFUY6avFP07kBQC/4QUAYFXv/pfvDTf/S62pXPivXIOjUd/uUa5Efvcct7PUisraWtbYLVwMEFjFCwCVanxpIj//f7gbFXgunz8qYtZ8mzSpFc1bGLHPWY09RXirvSOOvTRi8TK3t9SKZj8esfPR9hvAKq8DcPhEngFwpRsVeC7/dVnEkuU2aFKzK6flX3xLxEcPaPzz/N+OiJj5oNtcakVljS1rrT0HsApXTsjw31eLP89/2V1uUOC5vvrvhvtszqRWvSv4tZ9ETGnCc31gWsRBv4pYsMTtLrWi6+6J+OSP7DuA53RXmd0n4vT/bfNfNtsNCqxsINj3rIjHn7Qxk5pd+Vzw8Zc39zlfPoN8xe1ue6kVzV0QUT29fl0OexBgJWb3VWPrdT/9vxpfz3/ZE25Q4Nk+sn/EuTfYlEmtqHztZjNO/X+2rxzrWgBSKyof+fn5byO23df+A1ip+ZXaBFwIMP9FB6flblDg2b6ag8B9c23KpGa3Yihi37Nb99w/8zr3gdSKfv9wxBd+bP8BrFSZ2Q9et9P/B+OV+S85040JPNtme0bsf67vBpda0W9ui/jYga17/v/fo+rXH5DU3JatiNjjl4391g+go/1ioBYvWZfT/9+e/5LfuCGBZ9t+f58FllrR3IURu5zU2s8Bb75nxCHnewFQakUXzozYbj/7EGClLssZ/n+uy+n/lfR7NyTwbF86pv5OhKTmtXwo4pSrIj7UBp8B3vGQiMtvjxgZcb9IzWzhkogvHm0fAqxUmd0r6/ICwE5pjhsSeLaTr7QJk5pZmbNveah9Nv4De0TsdWbEvIXuG6nZnXCFfQiwUmV232ldXgD4tgsAAiv7KjCf/5Wa25NLI468qL0++1u+CeS8G+tnJkhqXg/Oq6/F9iTASi4E+O21vQDgi/P/vJ8bEXi2rx/ntF+p2c18sDVf+7c63zwh4tEF7h+pmZU1uKzF9iTASuxXZvm1uQDgpvl/PsENCDzbz66un44sqTmVr/375vHteTwoZyT8dIYXBaWmvgAQ9bXYngRYiRPKLL82p/+/M13qBgSecfX/AyIemGfzJTWzX93Y3seF8lGAhx5zP0nNrKzF2x9gXwL8kTLDv3NtzgB4X/4fZ7oBgafb7bSI+YtsvKRmNWt+xBeOav9jw37n+GYQqZmVtbisyfYmwLPMLLP82pwBsHl6wg0IPP1U39OvrZ+OLKnxLc2B+scXR2y5dwecHbR/xJV3us+kZlXW4rImt9OFQYG2UGb4zddo+B+oxQb5f/qMGw94up0OjbjxfpsuqVlde3fEZ4+ImNIBx4fytYA/PC3iMWcISU2rrMllbbZHAZ6uUo1PTJ4a64/7BYC+WryoUovvu/GAZ5z+//OIOa72LTWl+U9G7HNWDtbTOucYsd1+EWf9zgUBpWZV1uSyNtujAM94AaAW3ysz/fhfAKjGxvl/Os6NBzxlq70jTrvaZktqRkPDERfcHPHh/TrvWPHV/4q4fZb7UGpWZW3eam/7FOAZLwAcV2b6cb8AkP+HTdMlbjzgKZ89POL6e220pGb08PyIf+/Q7/jebI+In1wWsXi5+1FqRmVtLmu0vQrwtBcALikz/ZpcAPDN6V43HlBMmRbx/VMjFiyx0ZIaXTl9/oTL64N0px4zdjzEWQBSsyprc1mjp0yzXwH+oMzyb16TFwD+PC1zwwFFuQL5sZfaZEnN6L5H61fU7/TjRu30iGHXApCaUlmjt/QxAOC/lVn+z9fkIwD/4kYDnvKxAyOuvccGS2p0w8MR08/ujuPG5ntGXOe4ITWlskaXtdqeBXjaxwB2WJMzAH7gRgOe8vkjIxY6/V9qaOXU/4tvqV9Jv1uOHV85NuKJxe5bqdGVNbqs1fYswNN8c01eAPANAMAfHHiezZXU6GY9HvHtE7vrc7xb7xNx8pU+CiA1o+nn2K8Az3DcmrwAcLUbDHjKb++ysZIa2YqhiFOvivjQ9O67gOhXj424c7b7WGp0l95qvwI8w2/W5AWAhW4w4KkLAD65zMZKamTlivlfPqY7jyFb7BVx+AU+RiQ1uvIccyFA4Gnmj2v4H6jF6/MfHnGDAcV/nlz/bLKkxrRoacSRF0V8cI/uPY7866H17yp3KJEaV1mry5pt7wKMGSmz/Xi+AWCyFwCAp/ziGpsqqWEb9nTVnd136v/K7P7ziHkL3edSIytrtr0L8NQLAH21+MfxnP6/sxsLeOoCXnf47K7UsMrHa/7jp71zPLngZmcUSY2srNnluWYPA4x+FWA1Pj2eFwCmurGA4uvHRTy6wIZKalTn3Rix2Z69c0z5wlERC3wtoNSwyppd1m57GGDM1NV/BKAaR7qhgOKwCyKeXGpDJTWiRx6P2Pno3juunHKl+15qVGXNLmu3PQwwdgbAkeN5AeBSNxZQvr7L6bpSYxrO59Wh50dsvmfvHVvKBQHvfdRjQGpEZc0ua3dZw+1lgHTO6r4BYIP8h2a6oYBPHxZx0wM2U1IjNuhX31UfhHvx2FI+8rDv2RGLfb2o1JDK2l3WcHsZoMz2ZcZf1ef/35DucEMB3zs54uHHbKSkia5cCX+vMyMG9ujd48snfhRxya3OMJIaUVm7v+frAIG6Mtu/YVVfAfie/Afud0MBh5wfsXS5jZQ0kS0fijjvhoiP7N/bx5eBafWvBXzkCY8JaaIrZ9ccdJ59DDDq3ko1/mZVZwBsnWa7oaC3bbtvxC+vtYmSJro5OfB+6wTHmKeOM7++KWJo2ONCmsjKmTWnXhWx1d6OM0DMSlus6gyAnfIfmOuGgt6206ERV91pEyVNZOXCfyfNiNhsD8eYp3z5GB81khrRlbmGf+pQxxgg5pYZf1XfAPDD/IeedENBb/v34yJmzbeBkiay++d6R25ljryo/uKIpImrrOFlLXeMgZ63KGf8qat6AeBH+Q8td0NBb382d48zIlYM2UBJE9WyFRF7nuH4sjIfmh5xzxyPEWkiK2t4WcsHfB0g9LqlOeNPX9U1AE5yI0Fv22afiFOusnmSJrLf3Bax3X6OL89lj1960VGa6MpaXtZ0xxjoeSetdPjvq8Um+T+e5waC3rbDgRG/u9fGSZqoyoX//vNk78StykcPiLj8No8VaSIra3lZ0x1joOedV2b9lb0A8Kb8Hy92A4ELAJbvKZe07pV3tcu7cOWK944vz23KtIjvnBgx+3GPGWmiKmv5Ti4ECNTiojLrr+z0/8npZjcQ9LZvHG/TJE1E5au4Zj4YsfPRjivjuhbAvhGnXBmx3EcBpAmrrOmOL9Dzru+rxvtW9gLAB9PtbiDobYddYMMkTUQLl0Qcer6v/VsTXzw64pYHI3wpgDQxlTXdsQV6XpnxP7iybwD4RP4Ps9xA0Nsu+f/Zuw9wyaoyX/gHMDGmcUwjN+i948x3x+s8M+MdvTP3+5zbV081DYoIioiCEXXMM1xRFEM7cKpoaHKSnHOSIKDkLDRJouTU0ALddNOBjqffb71djUDT4YQ6dapq//7P85vBpumus/faa6131d5r323CJDLqb/+Lmx5sPtuuXxm6TaY0Xwu4YJE2JNKK5Jiub4HKm5G1/uoWAP61/MsFDhBU22OzTJhERptlgxE7uvV2RD69f8Qdj2lDIq1Ijun6Fai8Z4tvvqT4nzA58hGAnxbLHSCornxdUBYuIh33jXqX3RN+yZ0Rk9z6P2I/O737Xgu43HML0qGLkV4FCJWXNf5PXrIA8KFd4jXlF6c6OFBtO9oAUDp0AnvTQxELFnfH533y2YgvH6o/GfXjSHd1TxudOTfi6nsillpAlQ6Mu5GAYqC/Ea948SsA31p+8SgHBqrtyMtNlKTzcu+MiC8eEnHB7yIGO/xb1ucWNzf+++ge+pPR+pcjIp6a2/ntc9GSiGOvarbRbKsinZYc2/UpUHlHZc1vAQB4icvuMlGSziuof3pa8z3xPzolYvoznf15c+O/Lx2iL2mFj02NOO7qzn8s6bZHI756ePMz73Jms82KdFJybNengAWAly4A1ONdtUb80oGB6spvLO/7g4mSdFbOuzli8z1f2KPi1N9GLFramZ/1mfkRe50fsenu+pNW2Lj4xpERdz/eue1z7nMRB1/0wjn/xN4Rv7nNdSudlbwzRZ8C1Za1ftb8f1wAKL/4nuJSBweq68uHRMyYbaIknZNHZ0Z899hmIfh8O/3a4RH3deBt1oODEZfeGbHl3vqSVsrXAh7wm4h5CzvvnOemfzc8EPHJfV60aLFbxP89Xl8qnZVsj+5MgsrLWv89L14A+JviSgcGqusnpzW/wRTphMxfFHHgRREfWc236fv/uvNus85HE/71WP3IWPj0fhFX/b7z9n+YOS9ixxNf/nmzzR5U2u6CRa5j6Zy7k3KM159ApV1RvPeFBYB6/FP5hTsdGKiuvc+PmLvQREnGP/nMdxZ82x20+ra6xV4Rtz7cQd/+l8L0pGv1IWMpXwuYBXcn5cwb1vx5v/CLiOvv7/xNK6UaybE9x3h9CVTarbVGfOCPCwC1ekwov/iQAwPVlc9WL15qoiTjn6fnRvz8jLW31x+e3Dl3ATwys/kttX5k7Gw2NeL8W5q33XfELdVzIr74i7V/5l3P6rxFC6lmcmzPMV5fApX2UNb8FgCAP7r4js6ZXEu1v/1/8cZ/a9sh/qLbx//zLlkWMfVX+o922P7QiFnzO+Oc56sec3+CtX3ebMO5IeDgoOtaxjc5tucYrx8BCwAv3gNgy2KpAwPV9JkDIm55yCRJxj8z5zbb41B2iP/20RGPj/NrAa+5J2Jr3/63560Au0Ucd9X4L1Te+GDE5w8e2mfe9kB3AUhnZFppt1vtqx+BCstaf8sXLwBs5aBAdeU7rDv5VVtSndtUdztn6O02X115yCXj9+jKH+ZE7HRSszDVj7RHLrbc/uj4tdF8POXHpw7vM+9zQfOuAZHxTI7xOdbrR6DStlpR/E9qxPrlf2zrgEB17XxKcxdzkfFMbvyXG/wN67bwwyJueqj93wrnosMp1w3/8zI6m+4eMfW8iLnPtb99ZhH/yxsjthzmOc9XQ057wPUt45vHZkXsdLI+BCpu26z9+2qNeE35Hzs6IFBdU87xCkAZ3+Smarmx36Rhfpuev3/fCyPmLGjv5/39ExHfPErfMR622b+5/0O7d9h/5OmIfztu+J930pTmK9iyjYuMV/JRlPov9R9QcTtm7d/X34jXln/4mQMC1XXYpW5RlfFLfpuer9Eb6bfpn9o34rr72lcQzl/UvGbWtQkcY7cXQL4WcMbs9rXRRUsijrqieQfCSD5ztu3Trm9ucikyHskxPvstfQhUV9b8Wfv3TazH68svTHFQoJo22yPi9OtNjmT8ctujo3829f8e3767AO6a3lx00H+Mn9z/4ZybIpa2aeHy3hmj3+zxW0c1247IeOXkayM2tXAJVTYla//cAPCtxakOCFR3U62LbzcxkvFJFu17tug1emff2J5v/3OxQd8x/nL/hweebMO3/0sjfnpaaz7zXue3/3EVkeeTY723lkClZc3/VgsAUHFf+EXE9febGEn7k7fsX3Zn833prWjL+frAsX4t4AW36jM6yQG/Gfvb6i8tbfQju7fm835yn4gr7m7//gUimRzrc8zXd4AFgHcUFzkgUE1fOzzijsdMjKT9yU2p/uWI1rXl3GwtC8KlY1QQPjE74ttH6zM6SS4e3TWGrzDNBaUdjm/tqx6zDc2a5/qX9ifH+q95FSBUWdb87+ir1eOd5R9uc0CgmnJX60dnmRhJ+3Pk5a1vz58/OOLGB1v/WfNZ80MvbT57rt/oLJPPGJtNTPPOguOuat0dKs/LzSNPuMb1L+1PjvUjeZMF0DNuy9o/FwDeVdzpgEA1fe+EiD94PZW0ObmpWt6y3+r2nK8FbJwd8WyL3xN/y8MR2x+qv+hEeVt93qbf6tw5fexe9bjtgc3XCoq0MznW55iv34CKvgWg1PxZ++cjAH9VPOOgQDXtcpZJkbQ3sxc0N1WbtNvYtOmtSkF4/i2tfRRg2gOene1k3z4m4rEW3smU3/6feM3Yfd5JK19lOOc5/YG0Nznm6zOgsrLm/6tcAHiPgwHVlJPQqeeZEEn7krdqnzWt+a3tmN7ZcnzEQ0+17nNncfmdY/QZnbwXQN6uv2hJ6875uTeN7SMfn9ov4le3jP0mhiIvTo75Y7X4CnSF91gAgArbrExuj7rChEjal/v/EPGvx459287C7aRrIxYvbc3nzj/np6e3djM4Wis3lLxremvv+vjiGN/1ka+UfPAp/YK0Lznmb2YvE6j2AkCtEZs7EFBNH98r4owbTIikPZm/qDn5bNdGep89sLV3ARx8UeteB0fr5eZ6B5VzNHdha873w083C/SxXqg6/uqI5xbrH6Q9yTE/x359BlR0H4BS++cCwBccDKimrfaNuOwuEyIZ++Rrz297NGLr/drbxvc4r/l3tyK/uS1iSxPnju/Tbn6oNec8FxL+/cyx/8yf3j/i9kdb105F1pbL7mxeJ/oLqOwCwBcsAECF5cTzpodMiGTsM2dBxA7j8Pqpj+zRutcC5j4A2xyg3+j4N5scHzGvRXcBHHJJxKZtuOvjhye37s4FkbXluvvavxALWAAAOsR2BzVvcxUZ65w5bXzaeD6zn8XVrPmj/xmWLG0+Z67v6HwX3Nqadnvh79r3bWn+XSJjnRzzc+zXT4AFAAcEKujzBzffCywy1hPOLx86fu18y72bz722Yrf1fKRA39H5vnV0xBOzR3++73ys2U+24zN/7QgLsjL2mT4r4nMH6yOg2gsA9djZwYBq2v7Q5mvZRMYqubnZfhe25zbqtd0FsMPxEQ88Ofqf5/Qb9BvdIDfXO/TSiKWj7N+efS7i60e25zPnNXLAb0b/mUXWlnxV5nguyAIdsABQ/mF/BwOq6SuHmQzJ2CY3mczd+Me7refu/UdfMfrd1vM1c/qO7vDVwyNuf2x053v58oiBX7bv9Y/5zey19+o3ZGyTY78+Aiprz1wAONCBgGr6xpEmQjKGt5o+03z+vlPa+2cPaG56uXwU260vXuod2t2kcXbE7FHu/3DqdRGbTmnfZ/7RKRGPP6P/kLGLvUyg0g60AAAVlt9siYzVbaYnX9t5xXIWhPMWjfznytuzdzxB39EtPrlPxMW3j27/h3yLxEfb2I7zHe2nXd+8hkTGIj87Xd8AFgAcCKikqeeZCEnrk9+w3zk94ouHdF6b/9jUiCvvHvnPloVkPluu/+geO50U8eSzIz/nc59rtpt2P5519+Oju1tFZE2ZajNTsADgQIAFAJFWfvtf/2XntvtvHz3y98RnQXbZnfqObpL7P5w1LWJwFMX0N45s72eeNCViz181HzkRsQAAWAAAWuL4q02EpPW54YH23jI90oJwpLlnhn0Auk1uRDnnuZGf873Pb/9n3mxqxG2P6E+k9cmxX78AFgAcDKigc24yEZLW5um53bHDdL7bPW+xHklmzI747rH6j26T36iP9BV743XXR15LM+fpV6S1ybFfnwDVXgA40oEACwAio771f2nEYZc2v2HvhtvC970wYv4INgScsyBiD7fQdp2t9om4+aGRte0HnozYZEr7P3PeSXPslSNfuBCxAACs4si+ifW4xIGAavK+aWll8hV7X/hF97T/zx0UcfU9w382PJ/LPuU6/Ue3yQJ+17MiZi8YftueNT/i8+PUtnMzzd95FEBamBz79QlQUaX276vV4wYHA6rpnidMhKQ1yduUdz83YtPdu6f9b7xbxG7nlM8+d3g/a24EmG8S2GIvfUi32Xq/iPNvHf5rAXPTyMlnjM9nzmtqr1+NbOFCZHXJsV9/ANWUtb8FALAAIDKqDJZi6je3RWy5d/ddA/l6t3y+e7gF4e2PRmx/mD6k2+Siz04nRzwyc/h3fZwwjhunfWKfiItuH92bDEQsAAAWAMACgMiokvXIfTMivn5E914HeYv1E7OH93NPfyZi51P0Id0o93844ZqIhUuGd9fHNfeMzz4Az/vOMREPPqXPEQsAgAUAwAKAjFPym9EDf9P918LRVw7v5164OGK/C/Uh3erLh0bcNb25gDXU/P6J8d/j4sjLI5bYEFAsAAAWAAALADIeyc3J8vbkrt8hft+Ie2cM72fPjQDzXe36ku6Ue1YMZ3f9x2ZFfP/E8f3Mn96vXHOP6nfEAgBgAQCwACBtTr5C74c9chv8pN0ippw7vG9XcyPAzx6oH+lWm+85vN31n30uYp8Lxv9z/+gUdwGIBQBgdAsA0xwMsAAgMtyccUOziOqV62GbAyKuuHvoP3++G/4bR+lHutn3TohYtHRo5zs34OuE1z9+fM/mmwxELAAAI1gAmJYLAA86GFBNIiOeQM6I+EoP7oK/00kRM4a4IeCCRc1vY/Ul3SuL6bNvHPru+lf/PuIzB4z/5/7qYc3NN0VGktzDxPUPlV0AmN/nQIAFAJHhZO7CiH0vaL6fvNeuiS33ijjt+qF/K7zvheU4TNGXdLNvHBnx4JNDO9+5cWD+/vH+zB/do7n5Zl6LIiOJax+qywIAWAAQGXKWDUZcfldnfAs6Vr55VPMW2aF8KXzuzREf30tf0s02K8X0EZdFPLd43ef7qbkRO5/aGZ972wOb+1DkNSliAQCwAABYAJCWJ2+P/+HJvX1d5J0NWRAuHEJBeMdjEVvvpy/pdl86JOLWIWwImMX23uc3N43shI0rf3p6xJPP6pfEAgBgAQCwACAtztJS/PzyxoiP7N7718YWew1tk8x5CyO2O0hf0u2ymM7HOXKn/3XlxGs6Z/PLfBTgwt+5C0AsAAAWAAALANLi5K73W+1TnetjxxMjFg9hL4Cfn6kv6QVZTF99T8TydTz7Me2B5u33nfK585p88Cn9k1gAACwAABYApEVZuCRil7OqdX3k5n6X3bnuY3PcVfqSXtr/YfaCtZ/vp56N+NrhnfW5dz93aItVIhYAAAsAYAFAZJ3JQrhTbntul42Lfzsu4vF1vBbw+vv1Jb3krGnrfhTm+yc220enfOZ8neFVv9dPiQUAwAIAYAFARpnHn1lZ8OxWvWskFz2OvWrtz1jPWaAv6SVfOSxi+qy1XxOHXByxSQe9/jGvzbxG81oVsQAArGsB4EEHAiwAiKzp284sgD82tdq3hd/1+FqO0bJm0ahP6Q25yeVBF0UsWbbmc37R7Z23GWZeo3mtLrUhoFgAANa2AFCrxzQHAiwAiKyaweUR190b8fmDXSt7nd/8pn91ybsD9jzfMeol+WaHtW0I+MjTnbko9uVDI258cN0bGUq1k+3DdQ7VlLV/LgDc4GBANc1daCIka87TcyN2Pct1krber1kQru5RgJxMn3+rY9RLJk2JqJ/dvAbWlO0O7MzPPuWciFnz9V+y5syc5xqHCi8A3GABACpsKO85l2omC918v/jH93KdPG/nUyPmrOE98Xc8FrHZVMeol3xq3+Y1sKZHAQZ+2ZmfO6/Z/NzLPAoga0iO/a5xsADggIAFAJE/ZsacznvV2bg/G75HxK9uWf3xyk3j8vZrx6m35FsgnljDWyBOvLZzP3deu8+4C0AsAAAWAAALADKU5CZok3Zzjazqi4esfi+AvKX2p6c5Pr1m0ykRp1+/+m/Tb324gx9hKNfu0Vfox8QCAGABALAAIOvILaWw2cKt/2ssrA655OW3hS9cEnHcVY5PL/rYnhGPzVr9os8n9u7cz53XcF7LIhYAAAsAwAp3TTcRkpcmbxv+4cnN94q7Rlbvswc2d1pfNZff1XxMwDHqPXufH7Fk6UvP97PPRfzf4zv3M+c1nNeyRwFk1dz2qGsaKr0AMLEelzgYUE1X3G0iJC8kv9U+9bcRW+7t2ljXbeG7nRMxe8HL75zwysTelNfEtfe+/K6PvBukkz/3J/eJOPOGNW9kKNXMxbe7pqGySu3fV/7hSAcDqumcm0yE5IXkHSHfONJ1MRT5WsCLyiR68EXvW3/46YgdT3RsevXRj5+c9tJv03NfgN/c1tmfO+8C+NdjI+6ZoX+TF5Jjv+saKuvIXAA40IEACwBS7cxbGHHopRGbTHFdDLWwmnx6820Jzyc3B9z9XMeml+8COPvGl9/10emvytx094jDLm1e4yIWAKDyDrQAABYApOLJb7Gv+r1b/0fitN9GLH7Rs+HHXOntCb3su8dG3Puib9MfeDLiG0d1x+LFNfe89I4VqW5yIcv1DBYAHAyooBOvMRGSiKfnNgsb18TwbXtgxINPvnAsL70zYpv9HZde3v8hX6+3YPEL10797O747Pl4yuwF+juJOOoK1zJYAHAgoJKmnmciJBGnXOdaGI19LnjhWN79eMS/HOGY9Pqiz+8eiVi+PGLR0u4qpnJDQJEc+13LYAHAwQALAFLB5C3Mdq4fnXwG/JaHmsdz1ryI753gmPS6xtkv7Kx/wa0Rm+/ZHZ87r/UHntTvWQBwDYMFAAcCKikLFalusoCZcq6N/1qxIeBPT2vuBZDPWO/umPa8zfaIuG7lawFveijiS4d0x+fOdpnXvNcCVjvfOso1DFVfANjfgYBq+sphJkJVTb7C7LybI7ba13XQqk3W8vbqwXJcT/1t93wjzMjlKzPztYCPzozYsYvu+vj0/s3XF9oQsLrJsd81DJW1Z1+tHjs7EFBNXz40YtESk6Eq5sGnInY43jXQSv92XMRD5bhef7+FlSr42NSIk69rvv4xHwnYuIve/vD9EyMemakfrGJyzM+x3zUM1VRrxBf68v84GFBNnzs4YvozJkRVS+5gfuxVzQLGddA6+a1/vgYwr6ntDnI8ev7Rj5V3Adz1eHMjwI/u0V2LF9kHPP82A6lOsn/6nH1fwAKAgwHVlEXKw0+bEFUpuXP5rY9EfOEX2v9Y3VVz26PurqiKLPoPuqj5XvWt9+uuz559QC5eeBKgWskx3wIlWACwAAAVlc+C5gZWUp08tzhi8hnddbtyN5lUjut+FzY3AnQ8qnMn1QnXRHyxyxbVsg+Yck7EQo+BVSo55ufY79oFCwAOCFRQPqd8+V0mRFXKRbc3b13W/se2sNrDAkCl5FsgPntgd7bV7BOkOskx3x4lYAFgcwcDqil3Lj/nJhOiquTJZ9363y6f2McxqJKP7N69e2pkn5B9g1QjOebn2O+6hcouAGyerwF8j4MB1ZQT1uOuMiGqQhYtjTjwNxGb7q7dAy/IPuHQS5p9hPR+jrMBLFTdeywAQIVtMiVi7/NNiKqQa++N2PZAbR54udy/4IYH9JNVSI75OfZr91DhBYBaPf6qeMbBgGra5SwTol7P03Mjdj2ruUGdNg+sbjG4/stmXyG9nRzztXmo6O3/pebP2j8XAN5V3OmgQDXtdFLErPkmRb2axUsjTr+++Y567R1Yk+wjzrih2WdIbybH+hzztXeo7ALAnVn75wLAO8sv3OagQDXtcFzE9GdMjHoxy5c33/P91cO1c2DdvnlUxH0zSt+h++zJ5FifY762DpV1W9b+uQfAO4qLHBCopq8fGXH34yZGvZhFSyL2vVAbB4buoItsCNirybE+x3ztHCora/535ALAW4tTHRCopnwF1PX3mxj1YqY94HVPwPBknzHNhoA9mRzrvQoWKi1r/rdaAICK23q/iItvNzHquW//l0Z85xjtGxi+7DvcBdB7ybE+x3xtHKq+AFCP15d/mOKAQDVtOiXi5GtNjHopS5dFHHNlxEd2176B4fvoHmVcuC5i2aD+tJeSY/2mXgEIVTYla/++/ka8ttaInzkgUF2HXRqxZJnJUa/kd4+4zRMYnS8dEnHXdP1pryTH+BzrtW2orqz5s/bvK//wmvILOzooUF1Tzol4xqsAeyKzF0Ts+auITX37D4zm7rDdm31J9inS/ckxPsd6bRsqbces/fsmNWL98j+2dUCgunY+xasAe+LW/8GIi26P+PT+2jQwetmXXH5XxKD3AnZ9cozPsV67hkrbNmv/vkz5H1s5IFBd+e7ne2eYIHV7HpsV8b0TIjbeTZsGRi/7kiwaZ8zWv3Z7cozPsV67hkrbqu/5lP+xZbHUQYFq+uyBEbc8bILUzVm8NOLYqxT/QOsXAY67qtnHSPcmx/gc67VpqKys9bf84wJArR4Tyi885MBAdZ/1vOLuCHd5dm9+/0Tz/d3aM9Bq2bdkHyPdmRzbc4y3NwxU2kNZ81sAAP7orGneBNCtWbgk4senasPA2Pn5Gc2+RrovObbnGK8dgwWAFx4BqMc/lV+804GB6jrg1xHzFpkodWPOvyVisz20YWDsbLFXc5NR6b7k2J5jvHYMlXZrrREfePEeAH9TXOnAQHX98OSIWfNMlLot02dFfPeYiI21YWCM9wL412ObfY50V3JszzFeO4ZKu6J474sXAN5TXOrAQHV98Rd2eu62LFgcceBFER/17T/QBtnXHFT6nOcW63+7KTm25xivDUOlZa3/nj8uAPTX4121RvzSgYFq8yrA7smywYgrfx+x3UHaLdA+XyiF5G/vixi0a2zX5O7HtVuouqz1s+Z/YQGgEW8t/+IoBweq7bK7TJS6JU8+29yUS7sF2m3XsyKenqsf7pb85nZtFoijsua3AAC8xJGXmyh1Q5Yuizj3poiP76nNAu2XfU/2QUu9OaYrkmO7dgsWAF6yAPChXeI15RenOjBQbfkqOemOb/8/d7D2Coyf7IOyL5LOj9fEAsVAfyNe8ccFgAmTIzcC/Emx3MGB6tp6P891dnryfc67naOtAuNvnwua+5FIZ+8Xk2O79gqVljX+T/pWTa0e3yz/4lkHCKrtKd/odHSuvifiY1O1U2D8ZV807QH9cifnsVnaKRDPZq2/ugWAT5d/+bgDBNV2xd0mTJ186/8PTmq+j1tbBcZb9kXZJ3kUoHOTY7q2CpX3eNb6L1sAKP9iYvF7Bwiq7ZBLTJg6MYuXRpx4bcQWe2mjQOfIPumU33oUoFOTY7p2CpWXNf7Ely0A9Nfjn8q/uNUBgmr73gkmTJ2Y3z0a8bUjIjbWRoFOugug+NbRzXfNS+clx3TtFCrvxloj/sfLFwAa8a7yLy9zgKDavvCLiJnzTJo6KbMXROx1vlv/gc59FGDv85t9lXROnpjtjTHACpeWWv8/v3wPgIF4U/mXv3KAoNpyt+Ab7jdx6pTkbbWX3hmx+Z7aJtC5so/KvsqjAJ2THMu9AQAozp7UiNf2rS7lX54w0asAodI+XiZxp11v4tRJG/998yjtEuh83z3GhoCdlBzLP27xGKpusDi6b02p1WOP8hsWOlBQXZN2i5h6nolTp+SIy7RJoDtsMiXi+Kv1251y99iUc5tjurYJlfZcqfEba1wAKL/hB8VcBwqqLV/rNMs+AOOe+/8Q8Wm3bwJdZJsDmn2XjG+enhvx/RO1R2BFbf+DtS0AbFU86UBBtX350IhbHjKBGs/MfS7iZ6f79gbovrvIsu+au1A/Pp7JMTzHcm0SKi9r+63WuADQX4//U37DdAcKqi3f63zOTSZQ45WlyyLOnBbxiX20RaD7bLVvxK9usSHgeCbH8BzLtUeovOlZ469tAeCvym96wIECDr44YtESk6jxuvX/u8dqg0D32uG4iAef0p+PR3LszjFcOwSyts8af82bAA7E68pvutuBAn5yasQTz5hItTvzFkYceXnEZlO1QaB7ZR+Wfdk8jwK0PTl25xiuHQJZ22eN37e21BpxgwMFfOmQiNsfM5FqZ5Yvj7j1kYht9tf+gB7YEHD/Zp+WfZu0Lzl25xiuDQJZ2/etK7V6HO1gARvvFnHJHSZu7cwz8+3aDPTY3WSnRcx5Tv/ezoXkHLs3toEskAsApbZf5wJA+Y0NBwtYsQ/ARRHzF5lQtStn3KDNAb3nvJv17+1Kjtk5dmt3wEqNdd8B0IjtHSggfeeYiCefNaFqRx6bFfGFX2hzQO/Jvi37OBn75JidY7d2B6x8BGD7dS4A9Nejv/zm5Q4YsPmezR3pZWzz3OKIfS+M2GSKNgf0nuzb9v918xWnMrbJMTvHbu0OyJo+a/t1LwA04v0WAIDn/fJGE6qxzuV3RXzmAG0N6F3bHRRx3b36+7FOjtnaG/D8AkCtHv99KAsA61sAAJ7341NtBDiWeWJ2xI9OidhYWwN6WPZx2ddlnydjtwHgj73+D3jBYG0g1u8bSspvnu2AASnf5Zy3qEvrs2hJxEnXlmO8h3YGVGA82aPZ52XfJ2PzOFmO2doasPL5/yf6hppaPW5w0IDn5XucpfXf1Nz+aMSXD9W+gOr46uERdz7mzrKxSI7V2hjwIlcPeQGg/OZTHDDgeUdcZmLV6ixYHLHbOdoWUC25IeDu5zb7QGltDr5Y+wJe4vjhLAAc4IABz/vmURGLl5pctTLX3edWTaC6j5ZlHyitS47R/3KEtgW86BGAeuw+9EcAGvE5Bw143qf3j7j5IROsVmX2/IivHKZdAdWVfeCcBcaDViXH6ByrtS3gRXsAfG7ICwAbN+KDDhrw4o2bjrzcBKtV39IcdmnEplO0K6C6Nt094pgr3V3WigwujzjichvKAi+xrPj/hvMIwF8WMx044Hn5+qa5C020WvEtzecO0p4Asi90d1kL7ipbELHTSdoT8JJv/58o3j2cRwA2Kq5w8IDnbX9oxK0Pm2iNJjPnRUw5p/nNlzYFuAug2Sdm3yij2P3/4eYYrU0BL1oAuCJr+iEvAPTX483lPzjewQOe97GpEWfeYKI1mls0L/xdxCf30ZYAnpd9YvaNg14LOOLk2Pwxm8oCL10AOD5r+qEvADTiT8p/9BMHD3ix/KbmmfkmW8NNzmvv+0PEt47WhgBW9W/HRTz4ZLOvlOElx+QpXikLvHwB4CdZ0w95AWDC5Fi/Vo/PlP940AEEnvfVwyPumm7CNdwsXBJx0EXaD8CaZB+ZfaUML3eWMXl7b5UBXmppqeW3yZq+bzipNWJS+Y9nOYDA8z66R8S5N0csXWbSNZzc8rBb/wHW9SjALfaZGVZyLD77pohNvFUGeKk/1OpR6xtuyn/4vmKaAwi82C5nNt9jL0PL/EURO52s3QCsS/aVSywwD333//nNMVnbAVaRNfz7hr0AUGvEfy3/4TkOIPBin9ov4rFZJl5D3pxpWsRmNmcCWKfsK395o3FjqMmxOMdkbQdYxTlZyw97AaC/EW8u//HhDiCwqjNusFnTUPLAkxFf8WwmwJBln5l9p6x7c9kci7UZYDUOz1q+byQp//GPimUOIvBiOxxfJh9WANZ56/9e50ds6tlMgCHLPjP7zuxDZS3P/w82x2JtBljF0mKnvpGmVo/tJ9oIEFhFbgY43WMAa8yyMjG79M6IzxygrQAM17YHRlxxd7MvldXnoaeaY7H2AqziqeILI14AKP/xJsW9DiSwqhOvNQFbUx5/JuKHNv4DGJFJu0XsfEqzL5XVJ8dgbQVYjazdNxn5AkA9/qb8Adc5kMCqvnV0xOKlJmGrJnewPmuab2YARnunWfal3grw8uTYm2OwdgKsxnVZw4/8EYCBeFv5Qy50IIFVfWrfiGvvNRFbNfc/GbGNW/8BRi370gdtCPiyXHNvcwzWRoDVuDBr+L7RpPwhRxeDDibwko2ado/Y5wLfzrw4i5ZE/PwMbQOgVXY7p9m3ygt3me1+bsQmNpgFXi5r9qP7Rpvyh/y4mOeAAqv65lER9/3BhOz55KZVbv0HaO2jANm3SjM55ubYq20Aq5E1+49bsQCwXfG0Awqsaou9Is65yYTs+Y3/vndCxMa7aRcArZJ9avatNgRsJsfcHHu1DWA1smbfbtQLALVG/EP5gx5xQIHVTczy9sxZ87yP+egrIz42VZsAaLXsW7OPXVrx1wLmWJtjroVmYA0eydp91AsAGzfiLeUP+70DCqzOdgdG3PxQdSdky5dHXH9/xBcP0RYAxspXDou46aFmn1vV5FibY672AKzB77N272tFyh92jQMKrMmxV0UsrOgmTU/NjdjlLG0AYKxlX5t9bhWTY2yOtdoBsBbX9LUqtXrsVf7A5Q4qsDpfOyJixuwK3vq/LOKC33keE6Bd+85kn7u0gm+fyTE2x1rtAFiD5Vmzt2wBoL8eX7MAAKxJvo7okjsiqnZn5vRZEV8/0vkHaJfsc596tmKPmkVzjPXqP2BtCwBZs7duAaAR/2wBAFibHY6PGKzYCsABv4mYZDMmgLbJPvfgi6s11uTYmmOs8w+sdQGg1OwtWwD4P/8ebyh/6GIHFljbpCzfT1yV3PFYxMf3dN4B2i373uyDq5IcWy02A+uwOGv2vlam/KHTHFhgbfb8VTXuApizIOL7J3oVE8B4yL43++Dsi6vw7X+Orc47sA7T+lqdWj2OcGCBtdn2wIjHZvX+xn+n/jZiSxv/AYybT+wdccYNvb8h4MNPR3zWq/+AdchavfULAI34joMLrM3H9ow46drenozdNT3iGzb+Axj3uwC+fXSzT+7lHH91GVunOt/AOhcAvtryBYDyB7/fwQXWNSH73gnN3fF7MfMWRhxyScSmuzvXAOMt++Lsk7Nv7tU3zeSY6nEzYAjeNxaPALyzuMPBBdZmq30jzr+l9/YCyJ/nmnuaP5/zDNA5Y8419/bmmHP2jRFb7u0cA+v89v+OrNXH4hGAtxanO8jAuvzs9Ig/zOmtydiTz0b823HOLUCn+cFJEU8921tjzozZET89zbkFhrAAUGr0rNXH4hGA1xY/d5CBdfnUfhFX39Nb38icfK3zCtCpTr62t779v+Lu5kaHzi0wBFmjv7blCwCTGrF++YO3KZY4yMC6TD0v4tnnemMy9tBTEdsd5JwCdKrso7Ov7oXk2JljqPMKDEHW5ttkrd43FqnV40PlL3jcgQbWZYu9Iu6Z0f0TsSXLIqacEzHJJkwAHSv76Oyrl/TAawFve7Q5hjqvwBA8njV631il/AXvKS51oIGh2PeCiMHB7r4N84JbIz5l4z+Ajvfp/SMuvqO7Hz/LMXOfC5xLYMiyNv/rsVsAqMdby19wpAMNDMVmUyMemdm9E7EHn7LxH0A3yT77wS5+FCDHzBw7nUtgiH7RX483jdkCwITJsUGtHj+2DwAwVPtdGLGsC+8CWLA44pgrIz5mIgbQNbLPzr47+/BuS46VOWY6j8BQn//P2jxr9L6xzMR6bFv+shkOODAUuTHT3Y93363/Nz8c8cVDnD+AbpN99+2PRSzvskcBcqy04SwwDDOyNu8b69Qa8T/LX3azAw4MxUd2j9j/1xFLu2hjpnkLI/79TBv/AXSj7Lt3/WWzL++W5BiZY2WOmc4hMEQ3Z20+5gsAGzfiTeUvO8cBB4Zq+0Mjbn6oeyZil9wRsckU5w2gW2Ufnn15tyTHyBwrnTtgGM7J2ryvHak1Yv/yFy520IGhTsQOuihiwaLOn4TNnBex7YHOGUC3y748+/ROz/wyNh7wGwvPwLAsrNVjj752pdaIL5W/dKYDDwzVvxwRcVeH7wWweGnEgWUSNskkDKAnFp8PuaTZt3dqcp+CWx+O+JI9Z4DhmZk1edsWAPrr8fflL33IgQeGsxfAkZd39l0A190b8ZkDnCuAXvG5g5p9eyd/+3/oJRaegWF7KGvy9t0BMBCvqTVimgMPDMdnS3F9/x86cxL29NyIXc40CQPoJdmnZ9+efXwnJsfEz1p4BoYpa/GsyfvamfIX71csdwKAodq42PfC5ruOOylLlkWcOS1ii72cI4Bek337WdOafX1H7fw/2BwTN3aOgOHJGny/vnan/KXbWgAAhmuzqRH3P9lZz1/eOT3ia0c4NwC96ltHRdz9eLPP75Tk2JNjovMDjGABYNu2LwD0N+Kd5S8edAKA4fr3MyIWdcimTAsWR+x3oXMC0Ouyr88+vxOSY2COhc4LMAKDWYv3jUfKX/6gEwAM16f2jbjhgc6YhF1/f8Qn93FOAHpd9vXZ53dCcgzMsdB5AUbgwb7xSvnLj3YCgOHKVzPtelbE3OfG/xuYbx/tfABURfb5430H2qx5ET8/ozkWOifACBw9bgsAtUZs5wQAI70L4IJbIwbH6XnMwcGIE66O2HR35wKgKrLPz75/cJw2o80xL8c+3/4DI5U1+HjeAfCXxVwnAhiJH5wU8cjM8ZmE3fZo8/3QzgNAtWTfn2PAeCTHvBz7nAdghLL2/svxvAPg7eUDXOBEACPx0T0iTr8hYnGbb8ecNT9i93N9+w9Q1bsA9jgvYvaCNj92tiTilOuaY5/zAIzQBVmDj9sCQH89Xlerx4ATAYzUVw+PePjpNr53eVnEhb+L2Ho/xx6gqrbZP+I3tzXHhHbloTLWbX+oYw+M4vb/UntnDT5+dwAMxPq1RmxdPsxiJwQYiUm7RRx2Wfv2AsjbL3c8MWLj3Rx7gKrKMSDHgnY9hpZjXI51k4w9wMgtzto7a/C+8Uz5IP9U3O2EAKN5FODRme25/fLEa+y8DEBzLMgxoR1vBcgxzq3/wCjdVfxj33invx7/uXyQ050QYDR+fGrEgsVjOwG79eGILfd2rAFoyjHh7sfHduzJsS3HOMcbGKUTa43YaNwXACY14lXlw0wuljopwGgmYfls/li9mmnhkogfneI4A/BSOTbkGDFWr5zNsc3iMzBKWWtPztq7rxNSq8dnywea4cQAo3ke83snRDwyRhsC5gRsU7f+A7CKHBtyjBiLPPBkxA7H23cGGLUZWXP3dUpqjfif5UPd7MQAo7HZ1Ihjr2r9awGnPxPx7aMdXwBWL8eIHCtamecWRxxxmWf/gZa4OWvujlkA2LgRbyof6uxiuZMDjMbnD4648cGI5ctbd+v/fhc23/vs+AKwOlmkH3xx6x4FyDEsx7Ic0xxfYJSyxj47a+6+Tkr5UD8t5jtBwGhNPiPi6bmtefbyirsjtjvIMQVg7XKsyDGjFXvR5BiWY5njCrRA1tg/7eu01BqxSflgjztBwGh9ZPeIX90y+rsA/jDHBAyA4S1A59gx2m//cwz7iDvPgNZ4PGvtjlsA6G/En5UPdosTBLTClw6JeHwUz2MuWRZxzk0RW+zlWAIwNDlm5NiRY8hIk2NXjmGOJ9AKWWNnrd3XiSkf8Ej7AACtssd5I98QMCdgXzQBA2CYvjiKBegcs3LschyBFj7/f2Rfp6bWiC3KBxx0ooBW2GrfiMvuHP6jAMsGywTsXK9dAmD4cuzIMWTZ4PBv/c/XCX5iH8cQaJnBUmN/vGMXACY14i3lQ85zooBW+dZREQ8+NbxJ2LX32vUfgJHLMSTHkuEkx6ocsxw/oIXmTpgcf9LXySkf8tdOFNAqK17NdFHEs88NbQL21NyIHU+M2NixA2CkdwE0mmPJU0N8I02OUTlW5Zjl+AEt9Ou+Tk/5kN9yooBW2mb/iEvvjFg6uO5nL0+8JuLjNv4DYJRyLMkxZV170eTYlGNUjlWOG9Bi3+r4BYBaI/6ufNCFThbQSv967LpfzXTrIxFfO8K3/wC05i6AHFNybFnXK2dzjHLMgBZbmLV1598BUI93lA97uRMGtNKk3SL2//WaX800Z0HEvhc0f5/jBUCrxp4cW3KMWdMrZ3NsMvYAY+DyrK274Q6A15UPW3fCgLGQmzINLn/5rv+X3BGx+Z6ODwCtlWNLjjGrvhUgx6IckxwjYIzUs7bu+AWACZNjvYn12LJ84AVOGtBq3zgq4oEnXzoJe2J2xLePdmwAGBs5xuRY8+LkWPQNu/4DY2NB1tRZW/d1Q2qN+Pvyoac5cUCrfWT3iL3Of+lbAQ6/zHEBYGzlWPPiXf9zLPqIV84CY2Na1tR93ZKJ9XhT+dAHO3HAWPjkPhFn39S8HTO/gdlqX8cEgLGVY02OOTn25BiUY5HjAoyRg7Om7poFgEmNWK986K8Wzzh5wFj4ymERv70vYvIZERvbfAmAMZZjTY45OfbkGOSYAGMka+ivZk3d103pr8fflA9+nRMIjJXtDorYbKrjAEB75JiTY49jAYyh67KW7uu2TGrEhuXDH1MscxIBAABgrbJ2PiZr6b5uTK0R25cfYJYTCQAAAGs1K2vovm5NbSDeU36I+51IAAAAWKt7J9bjL7p5AWCDWj3OLz/IcicTAAAAVitr5lMnNWL9vm7OyscABp1QAAAAWK2smT/T1+2pDcSflx/kWScUAAAAVuvZrJ37eiG1RlzkhAIAAMDLZc3c1yup1Vc8BuDEAgAAwKoLAPUu3v1/NQsAf1k86cQCAADAS4r/J7Nm7p0FgEb8WXG8kwsAAAAvuf3/+KyZe2cBYCBeMbEeXyw/3GInGAAAAFZYnLVy1sx9vZRaPf6p/HC/d4IBAABghd9nrdzXayk/1NvLD3eMEwwAAAArHJO1cu8tAAzE+uUH+075Aec7yQAAAFTc/KyRs1bu68XUGvH/lh/yVicaAACAirs1a+S+Xk1tIN5QfsiTi0EnGwAAgIrKmvjkrJH7ejm1enyv/KDPOuEAAABU1LNZG/f1esoP+Xflh33QCQcAAKCiHszauPcXAAZig/KDXlB+4OVOOgAAABWzPGvirI37qpBaI7YvP/QyJx4AAICKWZY1cV9VUhuIP7cPAAAAAJV8/r/UxH1VSq0epzvxAAAAVEnWwn1VS/nBP+HkAwAAUDGfqOICwH8qpjn5AAAAVETWwP+pegsA9diw/OA/KgY1AgAAAHrc4IoauNTCfVVMrRETygGYriEAAADQ46ZnDdxX1ZQDsFFxgoYAAABAj8vad6PKLgBMasQG5QB8t5inMQAAANCjZtfq8fWsgfuqnFoj3lcOxvUaBAAAAD3q+lL7/n1f1TNhcryqHIgDygFZrFEAAADQYxZnzZu1b5+seCPAx8tBeULDAAAAoMc8Xmrej6r8V6a/EW+u1eM6DQMAAIBeUmrda2oD8QaV/4sXAeqxYzk4yzQQAAAAesSyrHVV/Ktk40b8l3JwFmogAAAA9IiFH9ol3qbiX91eAI04UQMBAACgR5yo0l/zZoAfdRcAAAAAvfDtv83/1pJaPTaqNeJGDQUAAIBulrVt1rgq/TU/ArBhsbPGAgAAQJfL2nZDlf4aMqkR69Xq8b/LQXpYYwEAAKBLPZy1bda4Kv21PQbQiHeUg3VMsVyjAQAAoMtkLXtM1rYq/HVkwuTYoFaPr5cDNlvDAQAAoMvMzpo2a1sV/tDeBvC35aBdp+EAAADQZa7LmlZlP9THAAbi1bV6HFYO3FKNBwAAgC6xuNg/a1qV/TDSX4/Ny4F7XAMCAACgSzxeatnNVPTD3wvgNbVGXDDRZoAAAAB0vuVZw2Ytq6If2V4An/UYAAAAAF1gadawKvkRZlIjXlcO4p0aEgAAAB3uzqxhVfKj2RCwETtqSAAAAHSyrF1V8KN9DKAR7y4e1qAAAADoUFmzvlsFP/o7AF5b/LwczGUaFQAAAB1mWdasWbuq4FuxCFCP/1UO6v0aFgAAAB3m/qxZVe6tWwB4a60Rh7gLAAAAgA779v+QrFlV7i3KhMmxXjmg25SD+7gGBgAAQId4PGvVrFlV7i3Mxo14ezm452pgAAAAdIDlWaNmrapiH5tHAb5RDvAzGhoAAADj7OniSyr1MUp/IzYqB/hGDQ0AAIBx/vb/uqxRVepjexfATyfaDBAAAIDxkzXpTir0sV4AaMTbizkaHAAAAOOhVo8nap79b0/KAf+FRgcAAMA4OUhl3q67AAbiv5cDPlejAwAAoK3f/jfiqf6B+GuVebvuAKjHn5YDf4TGBwAAQJsdkTWpyrxNmdSI9ctB/1gxS+MDAACgTbIG/VjWpCrz9r4N4J3lwJ+pAQIAANAmZ2YtqiJvc/obsUE58N8pJ2C+RggAAMAYm581aNaiKvLxeSXgu8tJuLhYrjECAAAwRrLmvDhrUJX4+C4C/MxdAAAAAIzpt/+l9lSBj/9eAO8tJ+IODRIAAICxkDVn1p4q8HHOhMmxQTkhuxTLNEwAAABaLGvNXbL2VIF3QD68a7yj1oinNUwAAABa/O3/01lzqrw7KOXE7FwMaqAAAAC0SNaYO6u4O+21gAPxF7VG3KOBAgAA0KJv/+/JWlPF3XmbAW5Ya94FsFRDBQAAYJSWZo2ZtaaKu/M2A1yvnJx/KCfpZg0VAACAUbo5a8ysNVXcnfgYwK7xJ+UE/bycqMUaKwAAACO0OGvLrDFV2p29GeD7iuuK5RotAAAAw7R8ZU35PhV25z8K8MpaI3YpJ2u+hgsAAMAwzc+aMmtLFXZ3bAj43nLCbtdwAQAAGI6sJbOmVFl3z10AG6y8C2CZBgwAAMAQLVv57f8GKuvu2hBwo3LintaAAQAAGOK3/09nLami7s4NAXcuBjVkAAAA1iFrx51V0t16F8BA/EWtEfdoyAAAAKzj2/97soZUSXfvZoAb1pp3ASzVoAEAAFiDpVk7Zg2pku7ezQDXKyfxH8rJvFmDBgAAYA1uztoxa0iVdHdvBvgn5UT+vJzQJRo1AAAAq1iSNWPWjiro3tgM8H3FdcVyjRsAAICVlq+sFd+ncu6dRwFeWWvEv5eTOl8DBwAAYKX5WStmzahy7q0NAd9bTuztGjgAAAApa8SsFVXMvXcXwAbl5O4y0RsBAAAAaO78v0vWiirm3twQ8D+UE/y0hg4AAFD5b/+fzhpRpdzbGwLu5C4AAACAan/7n7WhCrn39wJ4W3GtBg8AAFDRb/9LTZi1oQq51+8AqMcri+3KSX9GwwcAAKicZ1bUhHU7/1flLoB3lpN+poYPAABQOSeXmvA/qoyrshlgIzaYWI9PlRP/iMYPAABQGY+UWvCTtYFYX2VcoUxqxOtqjTigNIBFLgIAAICetyhrwKwFVcTVfCPAPxZ3uBAAAAB6XtZ+/6gSrmgmTI5X1uoxeaLXAgIAAPSypVn7ZQ2oEq7yhoCNeEdpCLe5IAAAAHpT1nxZ+6mAJRcBvuqiAAAA6NEFgFLzqXzl+b0A3lyc78IAAADoMfU4vXiTyleefyPABqVhbFb8wQUCAADQM7LG2yxrPpWvvPAYQD3eWmvEL0rjWOYiAQAA6HrLssbLWk/FK6u+EWD90jj6SyO504UCAADQ9e7MGi9rPRWvrG4zwFeXRjK1WOhiAQAA6FpZ003NGk+lK2tMfyP+S2koN7pgAAAAutaNWdupcGUo+wF8uzSYJS4aAACArrMkazqVrQz1rQCvL43mWhcOAABA17k2azqVrQznLoDNS8NZ5OIBAADoGouyllPRyvD2AqjHn9UacbILCAAAoDtkDZe1nIpWhrsAkHcB/K/SiB5xIQEAAHR88f9wqeH+KWs5kWFnYj3eWBpSY6LXAgIAAHSyhbVG/Ht/I16nkpXR7AXwP0pjut4FBQAA0JEGS/F/ddZuKlgZ7RsBXlka1HeKWS4sAACAjjOz+GbWbipYGf2jAI14Q3Fmriy5uAAAADrn2/+VtdobVK7Suk0BG/HfS6N6wgUGAADQMZ7IWk3FKq3fD6ARO5QGtshFBgAAMO4WZY2mUpWxuQtg13jHxHqc70IDAAAYZ6U2yxpNpSpjsxdAPTYoDW2z4lEXHAAAwLh5dEVtVmo0laqMWTZuxJ+WhrZnscRFBwAA0HZLao0Y6B+I16tQZUwzqRF9/fUVGwJePNFbAQAAANopa7CLsyabMDkUqNKmDQHr8ZnS8Ga4AAEAANpmRtZiKlJp7wLAQLyxNL7Di2UuQgAAgDGXtdfhWYupSKX9mwI24i9q9XjMhQgAADC2VtZef6ESlfG7E6AR33AxAgAAjPECQKm9VKAyvncB1ONNxWmlQS53UQIAALTc8lL8H1O49V/GNxMmx3r99fhgaZT3ujABAABa7t6subL2UoFKJ9wF8Lpi59Iw57k4AQAAWmbeilqr1FwqT+mkRYD/p9aICyc230vpQgUAABidwRU1Vqm1VJzSUZnUiA3667FVaaTTXagAAACjNj1rrKy1VJzScSmNc73SSPcplrpYAQAARixrqn2yxlJpSsemNhAblYZ6pwsWAABgxH6XtZUKUzp/EaAeny8Ndr6LFgAAYNjml5rq0ypL6Yp8eCD+rNaII124AAAAw5O1VNZUKkvpjr0AGrFeabQfKI33JhcwAADAkN2UtVTWVCpL6Z7HABorNgT85ERvBQAAABiKR7OGqin+pUs3BHxjacB7FgtczAAAAGs0rxT+jayhVJLSvY8D1OPdpSFfVBr0oIsaAADgZQazZsraSQUp3b8IMBAfLA16lgsbAADgpbJWyppJ5Sg9kQmTY/3SsHdycQMAALzMTlkzqRylZzKxHm8qTvMoAAAAQPPW/xU1UqmVVIzSa3cBrNc/EP9Ya8RtLnQAAIC4pdRIH8haScUovbcXQCM2LI38X4oZLnYAAKDCsibavjYQr1YpSu8+CtCItxSHFotc9AAAQAUtWlkTvUWFKD2fjRvx32qNmFYa/HIXPwAAUCHLsxbKmkhlKJXIpEas11+PzUrjn6kDAAAAKmRm1kJZE6kMpWqPA+xaLNMJAAAAFZC1z64qQalkPjwQb6814gIdAQAA0Ouy9skaSCUolUx/I9YvF8GHy8Vwtw4BAADoYXdn7ZM1kEpQqnwXwGvLhfD9ckHM0SkAAAA9aE7WPFn7qACl0pkwOfpqAyteDXhssVTnAAAA9JAlxdFZ82TtIyLNDQE/UNww0asBAQCA3pC1zXX99fhbFZ/IKqnV4zMeBQAAAHrm1v9S46j0RFaTSY3YsNaIvXQUAABAt8vaJmsclZ7Imh4FqMc78zYZHQYAANDFrsvaRoUnsvYFgPVW7gdwt/0AAACALnzu/67i/VnbqPBE1v0owKtqjfhcuWim60AAAIAuMr1Wj60nTI4NVHYiQ0x/I95Ya8TPygU0WycCAAB0gdlZw2Qto6ITGe4iQD3eUS6ik4plOhMAAKCDZc1yUtYwKjmRkS4CDMRflgvpNh0KAADQwW7L2kUFJzKKTJgcfbV6fLDWiBk6FQAAoNNkrZI1S9YuIjLKlAvq1cW3ysU1UwcDAAB0kJlZq2TNonITad0iwFvKxbVP8ZxOBgAA6ABZm+yTtYqKTaTViwD1+KtycZ1fLrJBnQ0AADCOBrM2yRpFpSYyNvsBrNffiA+Wi+1eHQ4AADCO7i7F//uzRlGpiYxR+huxXn89Ni8X3FM6HQAAYBw8lTVJbUDxL9KWTKzHD8uFt0DnAwAAtNGCrEVUZCLtvBNg1xWbAh5fLNUJAQAAbZC1x/FZi6jIRNqY2kCsX6vH+8oFeImOCAAAaINLsgbJWkRFJtL+xwBeUWvEFuVCvE9nBAAAjKH7VtQepQZRiYmM150AjdigVo+v2xQQAAAYq03/subI2kMFJjLOmTA5Xl0uxr3LhblE5wQAALTQkqw1suZQeYl0zp4AuSngBTooAACghS7IWkPFJdJpiwD1eH+5QG/XSQEAAC1we9YYKi2RDszEemwwsbkpoP0AAACAUT33P7G56Z/n/kU6NR/aJV5Vq8f25WJ9UqcFAACMwJNZU2RtocIS6fz9AN5Qa8TPy4U7R+cFAAAMw5ysJbKmUFmJdM/jABuVi/fQid4MAAAADM2SFTVEqSVUVCJdlv56vKtcwJfoyAAAgCG4JGsIlZRI994J8HflQn5MZwYAAKzFY1k7qKBEujgf3iXW7x+IibV6PFIu6uU6NgAA4EWWZ62QNUPWDiookS5PbSA2rDVWvBlgug4OAAB4kUdr9fhS1gwqJ5Fe2Q+gEW8sF/ePilk6OQAAYGVt8INS/L9WxSTSa3cCNOJtxUHlIl+sswMAgErLmmCvrBFUSiK9uwjw5xPrcZYODwAAKqxZE7xVhSTS64sA9XhbcWW54Jfp/AAAoFKWZS2QNYHKSKQCmTA51isX/N+Wi/+KYqlOEAAAKmFJcVnWAlkTqIxEqrMIsH5tID5Ua8RNpRMY1BkCAEBPyzn/DaX4/+esBVREIlV7FGAgXlM6gM1rjbi7dAbLdYoAANCTluecf8Xcv9QAKiGR6i4CvGpiPbYpncI8HSMAAPSkeTnnz7m/Ckik4imdwQa1RnzJIgAAAPRe8b9irl/m/CofEVmR/nq8ulaP75cOYo5OEgAAesKcnOPnXF/FIyKr3gnwtmJq6Shm6SwBAKCrzVoxt/e6PxFZyyLARqWzOLJYpNMEAICutGjFnL7M7VU4IrLW1OrxX0uHcU6xTOcJAABdJefw5+ScXmUjIuvMhMmx3od3iTeXTuOqiV4PCAAA3WJ5zuFzLp9zepWNiAznToD31hoxrXQkgzpTAADoaIM5d885vEpGRIa/ADAQ65cO5H+XzuR3OlQAAOhoN5W5+z/nHF4lIyIjWwRoxIbF1qVDuUunCgAAHSnn6p+cWI/XqGBEpBWLAJ8qncpDOlcAAOgoD+VcPefsKhcRadUiwAbFJqWDeUwnCwAAHeGxnKPnXF3FIiJjsRCwaeloHtTZAgDAuHow5+YqFBEZywWAV6zcE+BenS4AAIzPM/8rb/t/hQpFRMY0/fV47cR6fLN0PDN0vgAA0FY5B/+aZ/5FpG2ZWI83FjuVzmemThgAANpi5oo5eJmLq0hEpN2LAK8qdigd0SydMQAAjKlZK+beZQ6uEhGR8VwI2MGdAAAAMKbf/O+g8hCRTrkTIB8HeELnDAAALfXEytv+ffMvIh2zCPDG0jn9qHhaJw0AAC3a8K8e3/fMv4h0XGoD8bbSSR1QPKezBgCAUck59X5ljv0WlYaIdFwmTI6+D+8af1o6qgOLBTptAAAYkZxLH5hz65xji4h08kLAhisXAebqvAEAYNjf/B+Yc2qVhYh0RT60S7yxVo/6iueWdOIAADC0Z/4bsV9+86+iEJGuyoqNAXPTEm8HAACAdcnd/r+fz/y77V9EunkRIF8ROFOnDgAAqzVz5av+7PYvIl2/CPCqYgeLAAAA8DKzVsyVy5xZ5SAiPZNaI75WOriHdPIAAPDHb/53UCmISC8uALyi+FTp6O7S2QMAUPkN/5q3/fvmX0R6dhFgw2JriwAAAFRYzoW/5pl/EanKIkDeCfCgzh8AgIp5MOfCOSdWGYhIlR4H2LS4o3SCyw0EAABUwGMr58CvUBGISPUWAurxntIB3lg6w0EDAgAAPeyhMu/dRAUgItVdABiI9Wv1+F+lM7yydIrLDAwAAPTiM/8rb/vfQAUgIlVfBHhFrR7/vHIRwJ0AAAD0ipzb3lR80jP/IiIvLAK8csWdAHV3AgAA0BOWl6J/Wn7RNbEerzHjFxFZ5XGAD+8Sby+d5XkWAQAA6GLLSuF/VfHenOOa6YuIrCEf3iXeXDrNc4pFBg8AALpMzmHPyTmtmb2IyDoyYXKsVxuId5eO89TiOYMIAABdYlZxZK0e/zXntGb2IiJDXQSox19PrMchpROdYzABAKDDzSlz16nFRmbzIiLDXwRYv3Sgf15rRMOdAAAAdLB5tXp8v8xd32YWLyIyitQa8Zriy6VjnZu7qRpgAADoEMtXFP+N+FJ/PV5t5i4i0oL0N2KD0rF+vLhzojcEAAAw/gbL3PTuifXYptjAjF1EpJV3AgzEq2r1mFg628uLJQYdAADGSc5Fbyhz081zjmqmLiIyBpkwOTYoHe0/lg73bIsAAACMg7wb9bIyJ/3nUvy/xgxdRGRsFwHWL53uf5lYj9MNQAAAtFMp/K8s/jbnpGbmIiJtysR6vKl0wruufEOAzQEBABhLi8v886xS/L8tX1ltNi4i0v5FgNfXGvHd4hGLAAAAjJFZxV7FW83ARUTGMbWBeG2tEV8sHfIduRurAQoAgBbJL5geLX5Q5ptvM/MWEemATGrEqyfWY5PSOd9soAIAoEXP+z9SfCm/cDLjFhHpoKx8Q8D7Smd9nQELAIBReqx/ICaW4n9DM20RkQ7MxHqsV6vHu2uNOH7FRi0GLgAAhidfNX1JmVf+3Yd3sdO/iEjHp9aI/1jsUTrvpw1iAAAM0Zzi0P56vMuMWkSkmxYBBuKNtUbsXDrx6QYzAADW4ckyd/z5xHpsZCYtItKdiwBvqNXjc6VDf8qgBgDAGjxV5ozb59zRDFpEpIvzoV3iVaVT36K43eAGAMAqco64Rc4ZzZxFRHogE+sr3hDw/tK5X7hyYxeDHQCAzf4uWDFHLHNFM2YRkR5LfyM2qjXiwNLZzzLoAQBU+Jb/RuxdG4i3mCGLiPRwJjXi9aXT36F42OAHAFA599Xq8fUJk+PVZsYiIhVI3uZVfLoMANcaBAEAKmFpcUmtEVsUbvkXEalSSsf/yuIDxbllMFhmUAQA6FkLiuNr9XjfxHq8wkxYRKSKiwADsf6Hd423lQHhoGKuwREAoPee9y9F/w/7d4235NzPDFhERPKxgO+s3Bdg0EAJAND1ck53b389NjfTFRGRl94N0Ij1i82Ly8tgsdigCQDQtZ4rc7rz+xvxwWI9M10REXn5IsBAvKL4h1o9TioDx3yDJwBA15lZ7FPmc381YbLiX0RE1pIyUKxfBoz/VGvEFIsAAADdo8zfZhTfKt5iVisiIkO/G6ARfzKxHp8q//8P9gUAAOho+Uan22r1+GCZu73aTFZERIadSY1Yb+NG/EMZUH5dzDO4AgB0nNnFSf0D8ZcTJocJrIiIjPpugHeVgWWP4oliuYEWAGDc5Zxsepmn/ay/Hu8wYxURkZZlYj3eXAaZLxS3GHABAMbdXbV6bN3fiDeaqYqISMszqRGvKgPN35cB5zyDLgDAuLmueP+EybGBGaqIiIzdnQCNyEcCNioGyj/P8UgAAEDbbvmfU+Zge02sxzsLr/gTEZH2ZMLkeEWtHp8sA9ENxVKDMgDAmFmS3/qXuddnJjViQzNREREZrzsCPpA7z64cmAzQAACtlXdcHt1fj7818xQRkXFPfyP+w8pHAh4zSAMAtMzdZY71/dpAvMWMU0REOiL5ztn+gXh9GaC2KgPVzQZrAIBRWVbmVRcUH/7wQLw251oiIiKddSdAfcW+AH+dt6kVcw3eAADD3uhvZrFrKfzf3t+I9c0wRUSk0+8I2LDWiO3L4PVgMWgwBwBYp0Vl/jStvx6bmU2KiEhXJV9NU6tHfxnIzlm5eY2BHQBg9WYUh27ciP82qeH1fiIi0p13AuQiwLtqjfh58fDK29oM8gAATXmn5C0Tm3dO2uhPRES6P/31+NNaPTYvA9uNBnoAgJXqcVr/QHygNhCvNmMUEZGeSRnYXlEGurcVhxXPuRsAAKjqt/61Rswq/3+nifV4U94xaaYoIiK9uhDw6jLYbVEGvatWLgSYCADA/9/evcBYWtZ3HO/ucmcBgS642+oqoFWQCEgUbG0HPe/s0LpisLaCoJYSmhZLk0ZaAl6Gy7xvjGJJSy0NFyUBQ60lVRPBgFhbheJSSy1URUWg3ORaYNsFdtmnv+fMC9kol2Vvc/t8km/ObDDgzs48z/85O+c5mis9lsP/VYOJ8pYc/N3wD8DckA2wvl3guek+w4AkSZoD3ZHDfzdoyz4mQQDmnEFXdm/aclw2xH8zFEiSpFlcnXV+u5kou5gAAZizDju9bNV05Y3pomyMKw0IkiRpFrWyzjj9rOO1/gAwyIb4tomyW9OW92ejvDmtNjBIkqQZXJ1l/iOzzXvqjDNw+AeAn9dMlCXZMM9Jd/bvjWuIkCRJM+aG/36GOafONCY7AHihnwhoy7z07qYrV9bbcg0TkiRphtzwf2WdYeosY6IDgPU01pUFo235lXRaNtRb0lqDhSRJmoatHc4qdWbJ7FJnGJMcAGyAbKQLB215Sx7/3oAhSZKmW01XLu5nlYUmNwDYSCPjZV421V2zwf5R05b/zma7xsAhSZKmsDV1JhnOJl3Zpc4qJjYA2NQ/EdCVvdMF6R6XBEqSpCm45O+efhbZ22QGAJtZM1F2adpydDbeq9OThhFJkrQFqjPH1XUGqbOIiQwAtqBBW/bLRnx2usNQIkmSNmN3NF2ZqLOHCQwApsBYV35hWVdekk15+WhbvpLHxw0okiRpE/Z4P2MsH0yUnUbGiwEMAKZSNuYFg7PK4qYrf5oN+m53A0iSpE3wWv+762xRZ4w6a5i4AGCaGXTDlwVcnh40vEiSpA04+D9QZ4k6U5isAGC6/0RAV3ZOJ6Xr0yrDjCRJWo9WNV35Zh5PrLOEiQoAZoixrmzdtOUN2cC7dLuhRpIkPVc5+N+WzqizQ50hTFIAMBN/GqAdvmXgm7OpX+aSQEmS9LOX/NUZIbPCoYOuLDQ5AcAMN2hLbbds7kdko7+2fx9fQ48kSXO3OgtcW2eDOiPUWQEAmGXGurJTNvs/zqZ/g/sBJEmae6/zrzNAnQXqTGAyAoC58FMBXXllBoBPppvTGgORJEmzujX9nv/JOgOYhABgjmm6sm0apPMyENxrOJIkaVZ2b93r+z1/WxMQAMxRI+NlftOWRRkOlqevGJIkSZpV1b19ed3r655v8gEA6t0ACzIg7N505YQMCd/Nx6sNTZIkzchW17287ul1b697vEkHAHhWGRgWZ3AYz9Bwk7cOlCRp5rylX9276x5e93ITDQCwXkbGy9YZIg7JAHFuHm83VEmSNK27vd+zD6l7uEkGAHjRxrqycLQtv5OB4vL0kAFLkqRp1UPDPTp7dd2zTS4AwEYZdGVB05alGS6OzeO17geQJGlavM7/2n5vXjrwOn8AYFPKkLF1how9MnSc0nTlfk8ESJI0BQf/yT34lOGe3PpxfwBgMxucVX4pA8iZ6T8zhKxMaw1lkiRtluoeu7LuuXXvrXuwSQQA2KJGxocvDXhdhpEzMphcl540pEmStEmre+t1da+te27de00gAMBUPhFQ3zHgoAwnp+fxO14aIEnSxv+of91T+731IDf7AwDTyuCsskMGlYPTaekHGVieMsBJkvSieqruof1eenDdW00YAMC0NDJe5jVt2X4wUfYenRxe6kVFawx0kiQ9b2v6PfO0uofWvbTuqSYLAGDGGJxVlrgsUJKk9brcb4nJAQCY0da5LPDM/rLAJwx9kqQ53hP95X5nutwPAJiNTwS4LFCS5HI/l/sBAHOFywIlSS73c7kfADBHuCxQkuRyPwCAOehtZ5XFo5OXBd7kskBJ0iy53K/uaWfWPc5ODwCwjnUuC/xYBqar+ycCDJKSpJlU3buurnuZy/0AANZDBqd9MjidlCHq8vSggVKSNM2re9Xlde+qe5idHADgRRh0w58IWJqB6h3pwvSoAVOSNM16tN+j3lH3rLp32cEBADbQWFfmj7blJc1E2S8D1nlNV/6nvzDQPQGSpKl4ff+aHPbvzuOnh3tT9qi6V9mxAQA2saYre2boOiVdNzp5s7InAiRJW+Lgf3+/95xS9yI7MgDAFjLoypIMYcelL6e7vI2gJGlzvI1fv8fUvea4uvfYgQEApsiyruzZtOWopit/m+HsR54IkCRtooP/j+reUveYZf7GHwBgehgZL/MyoC1Kb86wdnqGttsMr5KkDey2upcM95TsLXWPsdMCAExDGdp2HK1vI9iVk/N4c1rtngBJ0gu8vr/uFTf3e0fdQ3a0owIAzCBjXVk42pb3ZpC7on8N52qDriSp74m6Nwz3iOwVdc+wcwIAzHAj42W7QVuOaNpyfn+D88N+KkCS5uzf9j/c7wV/lb1hed0j7JQAALNMM1G2HW3L65u2/GEGv4vdFSBJc+u1/XXtH+4BdS/InmBnBACY5UbGy4KmK4szBP5GhsHT8vENeVxlOJakWdeqfo0/ra75de2ve4CdEABgjhnryrwMhdtnKFwy2pa35+PP9U8EeCtBSZrZb+G3arimZ20frvFZ6+uab+cDAOAZbz2z7DFoy8kZGL/VXxz4hGFakmbIhX5Zu+saXtdyOxoAAOulmSg7D//mqCvnZqi8Pj1mwJakaVe90O/64Vpd1+ys3XYwAAA2yMh42SaD5UEZMP8kXZruTE8ZuiVpynqqX4svrRf6ZY0+sK7VdiwAADaJsa4syLC5JIPmSB5PTSsM4ZK0xatr76n9Wrykrs12KAAANpvRtmyfwfNl6V1NW76Qx0f6S6fWGs4laZO1tl9bH+nX2ncN196swXYiAACmRDNRXtp05fgMqFdkOL21f0LAywQkacN+vL+uobfWNXW4tmaNtdMAADDdnghYkIH1gPShDK+XpRvTSgO9JL1gK/s187K6hg7X0gk/3g8AwMx4MmDnpiu/miH2pAy0F6fve0tBSfq5t+6ra+PFda0crplu8QcAYAY/ETA/g+2e6dDRtvxeBtxL8vFPDf6S5mp1Daxr4XBNzNo4XCOzVtoxAACYTU8GbJWhd7cMu69Kx+fjq9a5L8AFgpJm60V+w9f11zVvuPbVNbCuhVkT7QwAAMylJwVemsH46PT5dEt6sL/12sFB0kxtTb+W3dKvbUe7yA8AAHpjXZk/2pa9643X/Z0B16WHHCQkzaAe6teui4drWda0urZZ4QEA4LmfDNh+0Jb9M0SfkP6mmRyoH3W4kDQN+9+0oq5Vdc2qa1ddw6zkAADw4p4ImDfall2btrw+vTPD9Ufz66/n8WGHDklT2Kr0T6nNmnRk05UD61pV1ywrNwAAbKSR8eGTATukxWnfDNzvG623aHflAZcIStoCl/jVn0L6avpg1p8D6lqUx4V1bbJCAwDAFjLoypsyiJ+Vwfzq9ON0f1rt4CJpAw/8K9NdWVf+PY8X5fGdOejvYLUFAIBpIgP6VoO2vHa0Le/PwH5+BvevpR+k/3OokfQ81ScM70nfSV+sLzfKGnL4oCu7WVkBAGCaaybK/LS0acuydHIG+gv727kfc9iRlJ5I/5U+l8azTrw3h/43LevKrlZQAACYoUbGy4LRtizKcP/0ZYKnpi/n1/e5O0CaU9XX8V+RdWAi3/+/m48PyeOSsa5sY6UEAIBZZvjOAl3ZPu2RwX/vdGw+/my6tb/oy4WC0ux4Hf/Tl/fV7+3P9t/rr8rjnoO2LKw/JWRFBACAOSoHgnowOGK0/u1gO3yLrx/2rwt+1JMC0rR/W776jiA/yQF/RR7/Mh0z6MpSKxsAAPC8xrqy9bK27JXDxPKmLX/Wv074n9P30oNpjUOXNGU9uc6lfV/K9+gn8r163KAtBzYTZTsrGAAAsMEGXZk/mPzx4UEOG8fn0DGR/qE/gDziQCZt9gP/XemadF6+Bz882pZjXNoHAABsdmNd2S6Hj5eng3Mg+c30wfp+4enbzeSPIzu0SRtRDvk35XvpC/n49HRUfv3WPL520JZd68WeViEAAGBKDLqyTQ4nu6VfTvsPDyxd+Ys8/mv/dmNr3SMgPetFfWv775EVOeRfmE7IxwflcWm+hxbl4x3HOhf2AQAAM8BhZ5Sdc5A5LAeZD6Xz+ycFfpzuTQ/3P97sQKjZWr2J/7F0f7o9fT99Kwf8Tw3a8geDrvx6/R6xUgAAALNSDj2vqe840Ey+dODT6R/Tv/SHo/s9KaAZ2up0X7olXZeu7N9m88Pp2PqSmWVd+UUrAAAAMGeNdWXhaFtenUNSkz6Q/jyds867D9zsskFNw8N+/SmW+rZ7X0oXpFP6r9/D8/W8fzNR9vDdDQAA8AJyeNoxh6glOUy9Lo+H5vG30u83XflouiR9o2mHP1L9hMOoNnNr8vV29/BrbvJr7yP52qsX8zXD1+t3Za9BV3b3XQsAALCJjHVlqxy0dhi0ZfccupbkALZXDmCvycdH5fHkdEn/N7KPuXhQG3Ah31P1oJ/Hb/ZfS+fm1+/L46/lcZ/6NVe/9urX4Mi4i/kAAACmy5MFi+sFa01bjssBbjyPF6Qr+5cT/DDdlu5JD6SV6XEH4Vl3qK9vSflo+mm6s7988ntNfbvKdvja/C4fH59D/SC/3q+ZcKgHAACYTU8MbJWD38ty4Dsgj2/PAfAD+bg+QVDftvDv0lfT19ON/WVu9/T3D/hpgul5yK9/Nnf1F0jekK5JX0yX5s/0E/19Eu/OIf+w9Ooc8hf6LgAAAKC+Q8Ee6ZWDyXsHDs8h8ph0Yj7+SJpIn6k1k+9cUA+b3+ifLPhJ32oH801ywd7Tn88b+8/xNf3n/DN99c+ivhb/xPSefDyaf/6G/Nm9fKwrO/pKBgAAYGOeHKh3ECwa1pZX5NC5b72kMAfPN+YQOlLLr4+sf+Ocjqn3EuSffSyPH0+f77sqfTf/25vTQ3PlUF9/r/X3XH/v/efg6c/Hx/vP0cn956x+7o58+vNZP7fDiyDzua6f82c+//mz8BUJAADAlBvryvwcXrfLQbW+m8FOOcAu6lucg+3S9Ipm8q0P65MI++Z/e8Tw5Qg/U/7Z2emvn6OL8u/+Wv49336OVryIA/qK5/r31P/G8L/13P8/zn62/+/19/TM76/++P3k73lp/Rw88/nI56Z+jurnqn7OfOUAwObx/+r7KobTZUduAAAAJXRFWHRkYXRlOmNyZWF0ZQAyMDIxLTA2LTA2VDA3OjUwOjEzKzAwOjAwJJ/Q3AAAACV0RVh0ZGF0ZTptb2RpZnkAMjAyMS0wNi0wNlQwNzo1MDoxMyswMDowMFXCaGAAAAAASUVORK5CYII=;" parent="Xht5l7l8JJ4m-X1HlJ2U-74" vertex="1">
          <mxGeometry x="500" y="175" width="100" height="100" as="geometry" />
        </mxCell>
        <mxCell id="Xht5l7l8JJ4m-X1HlJ2U-13" value="&lt;span style=&quot;font-size: 16px;&quot;&gt;OpenSpeedTest&lt;/span&gt;" style="text;html=1;strokeColor=none;fillColor=none;align=center;verticalAlign=middle;whiteSpace=wrap;rounded=0;" parent="Xht5l7l8JJ4m-X1HlJ2U-74" vertex="1">
          <mxGeometry x="340" y="280" width="130" height="30" as="geometry" />
        </mxCell>
        <mxCell id="Xht5l7l8JJ4m-X1HlJ2U-15" value="&lt;span style=&quot;font-size: 16px;&quot;&gt;NordVPN &lt;br&gt;(Mesh)&lt;/span&gt;" style="text;html=1;strokeColor=none;fillColor=none;align=center;verticalAlign=middle;whiteSpace=wrap;rounded=0;" parent="Xht5l7l8JJ4m-X1HlJ2U-74" vertex="1">
          <mxGeometry x="485" y="280" width="130" height="50" as="geometry" />
        </mxCell>
        <mxCell id="Xht5l7l8JJ4m-X1HlJ2U-16" value="" style="rounded=1;whiteSpace=wrap;html=1;fillColor=#d0cee2;strokeColor=#56517e;arcSize=8;" parent="Xht5l7l8JJ4m-X1HlJ2U-74" vertex="1">
          <mxGeometry x="240" y="420" width="690" height="390" as="geometry" />
        </mxCell>
        <mxCell id="Xht5l7l8JJ4m-X1HlJ2U-17" value="" style="fontColor=#0066CC;verticalAlign=top;verticalLabelPosition=bottom;labelPosition=center;align=center;html=1;outlineConnect=0;fillColor=#CCCCCC;strokeColor=#6881B3;gradientColor=none;gradientDirection=north;strokeWidth=2;shape=mxgraph.networks.server;" parent="Xht5l7l8JJ4m-X1HlJ2U-74" vertex="1">
          <mxGeometry x="220" y="390" width="90" height="100" as="geometry" />
        </mxCell>
        <mxCell id="Xht5l7l8JJ4m-X1HlJ2U-18" value="&lt;font size=&quot;1&quot; style=&quot;&quot;&gt;&lt;b style=&quot;font-size: 16px;&quot;&gt;Proxmox Node (pve-02)&lt;/b&gt;&lt;/font&gt;" style="text;html=1;strokeColor=none;fillColor=none;align=left;verticalAlign=middle;whiteSpace=wrap;rounded=0;" parent="Xht5l7l8JJ4m-X1HlJ2U-74" vertex="1">
          <mxGeometry x="320" y="390" width="200" height="30" as="geometry" />
        </mxCell>
        <mxCell id="Xht5l7l8JJ4m-X1HlJ2U-21" value="&lt;span style=&quot;font-size: 16px;&quot;&gt;Bazarr&lt;/span&gt;" style="text;html=1;strokeColor=none;fillColor=none;align=center;verticalAlign=middle;whiteSpace=wrap;rounded=0;" parent="Xht5l7l8JJ4m-X1HlJ2U-74" vertex="1">
          <mxGeometry x="340" y="570" width="130" height="30" as="geometry" />
        </mxCell>
        <mxCell id="Xht5l7l8JJ4m-X1HlJ2U-38" value="" style="shape=image;verticalLabelPosition=bottom;labelBackgroundColor=default;verticalAlign=top;aspect=fixed;imageAspect=0;image=data:image/png,iVBORw0KGgoAAAANSUhEUgAAAgAAAAIACAYAAAD0eNT6AAAACXBIWXMAAAsSAAALEgHS3X78AAAgAElEQVR4nO3d7XXaWPf38Z9m3e/FvwK4KoBUAKkApgKUCsxUEKYCkwosVxBcgeUKIiqwXIGhgnO/AHmI4wd0dKSjh+9nrb2uKzOWOBMn3lv7PCgwxghAswVBMJI0Ov1yIGny6ktmb1w2kDQu+dE7Sfs3/nny6tfp2ddlxpis5OcCqFhAAQD4EwRBnszPk3r+axcJ3Le8gNjrWCRI/xUPqTHmreICQA0oAICKnT29z/Rfou9CcnclLxLyLkIiughA5SgAAEeCIJjomOgnpxiJJF/WTlKmY3GQ6lgYpB9eAeAiFACAhSAIZvov0U9Eoq/bTv8VBakxJvE7HKB9KACAT5DsW4OiACiAAgA4c1qUNzvFRNLU53hQ2oOOBUEiKWHRIfAfCgD02quEPxNP912306kYEAUBeo4CAL1CwscrFAToLQoAdN5pdf5Cx4RPSx8fedCxGNiy2wBdRwGAzjl7yl+cIvQ6ILTVQdL2FHQH0DkUAOiE02E7Mx0T/tznWNBZd/qvGMg8jwUojQIArXVK+gtJkXowlz8ejzUYDCRJo9FIo9Ho5d+9/nVuMpm8XFPUfr9Xmv7ZBc+yTFmWvfnr/X6v3W5n9Xkts5MU6zhVkPkdCmCHAgCt0sWkH4bhS6KeTI6vA5jNZpLeT+xtcF4YJEkiSUrT9KWwOBwO/gbnFsUAWokCAI13mtNfSFqppUl/OBxqNBq9JPrZbPZbwu+rvCBIkuSlMMiyTE9PT76HZmsnaaNjMcCaATQaBQAaKwiC/Em/NXP6eaKfzWYvT+/50zyKSZLkpYuQ//+WFQZ3kmJjzNb3QIC3UACgUU5b9lZqwer98XisyWTyW9jOt+MyeZfgPFqw5iDfTbBhayGahAIA3p1a/JEaPK8fhqFms5kmk4lmsxlP9Q2TJImSJFGapkqSpMnrC/L1AjFTBPCNAgDenF6yE0la+h3Jn/Kn+zzZt3UhXl/l0wZ5UdDQLsGtjoVA4nsg6CcKANSqqQv6xuPxS7LPF+ihO/KFhkmSaLvdNm0tAQsH4QUFAGpx2r630vGJ3/vcfhiGWiwWPOH31HmHYLvdNmXK4KDj9MCG7YSoAwUAKnVq86/UgJX84/FYURS9zOUDuTRNtd1utd1umzJdcKdjIZD4Hgi6iwIAlQiCIJLnNn++cG+xWGixWNDWx0X2+/1LMdCABYU7HQuB2Ocg0E0UAHDmbDX/StLQxxjy1n4eQFl5MeB5quBJx3UC7B6AMxQAKO2U+FenqH1+n6SPujSgGDjoWAhsKARQFgUArJ0W9kXykPhJ+vDNczGQFwIxCwZhiwIAhZ0S/1oe9u/P53MtFgtFUVT3RwPviuNY2+1Wd3d3Pj7+VtKaQgBFUQDgYr4Sf756P4oiFvKh0fb7veI4VhzHPnYTUAigEAoAfMrHHH/e4l+tVmzZQyulaarNZlP3FAFrBHAxCgC8y0fin06nL0/7QFfkXYGHh4e6PpJCAJ+iAMCbgiBY6djurzzx87SPvvDQFTjoOC2wqePD0C4UAPjN6QCftWrYxz8cDrVarZjbR+/kawU2m01d7yV40rEQiOv4MLQDBQAkvRzZu5Y0rfqzptOpVqsV2/cAHbcTbjabuqYHHnQsBJI6PgzNRgHQc6eV/RvVcFb/crmkzQ+8I58euL29rePj7iSt2DHQbxQAPXW2wO97lZ8ThqGiKNJqteKNe8AFsizTZrNRHMd1rBP4VywU7C0KgB4KgmCh41N/ZfP8YRhqtVpptVoxvw9Y2O/32mw22mw2VRcCTzp2A7ZVfgiahwKgR07t/lgVzvOT+AG3aiwEHiRFTAv0BwVAD9TR7h8Oh1qv1+zfByqSv6Z4vV5XvXOAaYGeoADouNPq/lgVtft54gfqt16vq+4IPOnYDUiq+gD4RwHQUaen/lgVre4n8QN+1TQ1cKdjIUA3oIMoADqoylP8SPxAs9RQCHCaYEdRAHRI1Yv8lsul1us12/mABsqyTOv1uspzBFgk2DEUAB1R5VP/dDpVHMckfqAFsixTFEVVnSxIN6BD/vI9AJQTBMEoCIJE0rUcJ//xeKz7+3slSULyB1piNBopSRLd399rPB67vn0o6ToIguTUcUSLUQC02OmpP5Xjln8Yhrq5uVGapprNZi5vDaAms9lMaZrq5uZGYei+MSgpPf0MQksxBdBCpxX+W1Uw1391daX1es0CP6BD9vu91uu1fvz4UcXtHyQt2CnQPhQALXM6xjeW43b/dDrVZrPhRT1Ah6VpqtVqVcX6gIOOCwQ5TrhFmAJoiSAIBkEQxJJ+ymHyz9v9SZKQ/IGOm0wmSpKkimmBUNLPIAjiU4cSLUAB0AJBEEx0nOtfurzv1dXVy4phAP0RRZGyLNPV1ZXrWy91XBvA00QLMAXQcKdFNtcu7zkej7XZbFjgB0BJkmi1Wmm327m+9T9sF2w2OgANdWr5b+U4+X///p3V/QBe5LsFvn93/q6w6yAItkwJNBcdgAY6tc+2cvgCHw7zAfCZihYJPum4SyB1eVOURwegYU4t/19ylPzDMNT19TWH+QD4VL5I8Pr62uUiwaGkX5wZ0Dx0ABqiirf38dQPwFZFRwrzdsEGoQPQAKeWfyKHyZ+nfgBl5EcKO14bMJeUsEugGegAeOb6YJ/xeKw4jtnTD8CZNE0VRZHLnQIcHNQAdAA8CoJgLYcH+1xdXSlNU5I/AKcmk4nSNHV5bkB+cNDa1Q1RHB0AD1zP94dhqO12y9Y+AJVLkkSLxUKHw8HVLVkX4AkdgJqdXqGZyFHyn8/nyrKM5A+gFrPZTFmWaT53tmQpXxcwcnVDXIYCoEZnR/o6eUn39fW1ttstb+4DUKvBYKDtdqvra2fnlI3FEcK1YwqgJkEQRJJuXNxrOBxqu90y1w/AuzRNtVgs9PT05OqW34wxsaub4X10AGoQBMFGjpL/fD5noR+AxsgXCDqcErg5/cxExSgAKnT2Cl8nS2dp+QNoogqmBK54tXD1mAKoyOkPbiIH8/1hGCpJEp76ATRe/rIxR7sEdpJm7BCoBh2ACpyt9C+d/MfjsbIsI/kDaIXJZKIsyzQeO1nrPBY7BCpDAeCYy5X+y+VSaZrS8gfQKoPBQGmaarlcurgdOwQqQgHg0NmZ/qVP9ru5uVEcx2VvAwDexHGsmxsn659D8Q4B51gD4IirbX7M9wPoGsfrAtgm6AgdAAdcJf/xeMwWPwCdk28VdLQu4Ob0MxclUQCU5Cr5z+dzXt8LoLPy1ws7Oi+AIsABCoASTm+yKp38r66u2N8PoPPy8wIcvVXwhrcJlsMaAEunA35KL3G9ublRFEWlxwMAbRLHsb59++biVrfGmMjFjfqGAsCCi+QfhqHiONZisXAzKABome12qyiKXCwOpAiwQAFQkKvkz0p/AHC6Q4AioCDWABTgIvmPx2OSPwCcTCYTJUniYofA8vQzGheiA3Ahl8mfxX4A8Lv9fq/ZbKbdblf2VnQCLkQH4AIkfwCo1mAwoBNQMwqAT7hI/pzpDwCfc/gOAYqAC1AAfMBV8udMfwC4XBzHFAE1oAB4x+mACZI/AHjgsAhYOxhOJ7EI8A0ujvcl+QNAeVEU6fb2tuxteIHQG+gAvELyB4DmcNQJ4N0Bb6AAOEPyB4DmoQioBlMAJ0EQTCT9KnMPkj8AVMfRdMAXY0zqYjxtRwdAL8k/KXMPkj8AVMtRJyA5/czvvd53AIIgGElKJYW29yD5A0B9HHQCDpImxpjMzYjaqdcdgCAIBpK2IvkDQGs46ASEkranHNBbvS0ATt/4RJL1uZMkfwDww0ERMNZxOqC3RUBvCwBJG5H8AaC1HBUBG0fDaZ1eFgBBEGxU4pQ/kj8ANIODImB5ygm907tFgGX3+o/HY6UpO0gAoEkmk0nZVwn37rTAXnUATls/SiX/JEncDQgA4ISDVwnf9G17YG8KgNN2v8T2+jz580pfAGiewWDgoghITrmiF3pRAJTd7heGoeI4JvkDQIMNBgPFcawwtN7Z3avtgb0oACTFslzxH4ahkiTRZNKrzhAAtNJkMlGSJGWKgLGOOaPzOl8AnN4FPbe9Po5jkj8AtMhkMim7U2t+yh2d1ukCIAiChaTvttff3NxosVg4HBEAoA6LxUI3N6Ve7vr9lEM6q7MFwGk1Z2x7/dXVlaIocjYeAEC9oijS1dVVmVvEXd4Z0MlzAMoe8zufz7Xdbp2OCQDgx2Kx0N3dne3lO0kzY8ze4ZAaoasFwFaW8/5s9wOAbtnv95rNZmUOCrozxnRuOqBzBUAQBCtJ1zbXhmGoNE01Go3cDgoA4FWWZZpMJjocDra3+McY06kjgztVAJzman7ZXv/r1y9W/ANAR6Vpqi9fvpS5xRdjTGfOgu/MIsCzw36s3NzckPwBoMMmk0nZnQGdOiSoMwWAjiv+hzYXLpdLVvwDQA9EUVTm7YFDdeiQoE5MAZSZ9+ftfgDQPyXfHtiJ9QCtLwDKzPuHYagsy1jxDwA9s9/vNRqNyiwKbP16gFZPAZSd92e7HwD0U/72wBLitq8H+H++B1DSRpbz/tfX1yz6w8WK/qDIskxZljn57DRNtd+36wyS0WjkbDvtbDbz9tnotslkouvra/3zzz82l491zEGR00HVqLVTAKczmn/aXMtJf+3xUSL9LMlekjgfHh5KjA5tNhwOPy0UJpPJh13Cj4qTz65Fc5Q8KfBvY0wrE0orC4BT2yXT8d3NhQyHQ6Vpyl9MR95Lwm89Me/3+3cXXJKI0RdhGL7ZfRwMBm/+8/c6GkU7I3jffr/XZDLR09OTzeUHSaM2HhXc1gIgkTS1uZbDfv5Mzm8l5rcSe5Zltn9BANRgPB7/8XDzVifidfHAtEnpQ4IejDEzh8OpResKgDJb/q6vr7VarRyPqF6vk/frX79ue5O0AdiYTn9/xnpdSLwuGrpQRGw2G9v1AFILtwa2qgAIgmAkKZVF678N8/5Jkrw8eeeJPU3TMttUAMCLvBuRFwaz2awVRUKJ9QAHSRNjTOZ2RNVpWwGQyKL139T9/kmSvARz4AD6IAxDzWYzzWYzLRaLxhUEJc8HaNdUgDGmFSFpJcnYxP39vWmC5+dnc3NzY+bzuQnD0Oq/hSAIoksxHA7N1dWV+fXrl+8f0S/u7+/L/DetTANy5iXhfQAXDVIaSdrbfDOurq4Kfuvdu7+/N8vlkqRPEATxQQyHQ3N9fW2en599/9g2V1dXtv8dex13BXjPnZ+F9wFcNEgpsflGjMfjot9zp25ubsx4PPb+l4ogCKJtsVwuvXcFSvz8TkwDcudn4X0Anw6wROvf1x+em5sbMxwOvf8FIgiCaHtMp1Nv07i/fv0qM/bGTwV4H8CHg5MGsmz9f//+vfh3uyQSP0EQRDUxnU69PNR9//7ddsx7SQPTgFz6XngfwIeDO77ox+oPSp3u7+9J/ARBEDXEcrmsfY3AdDq1He/WNCCXvhfeB/DuwKSFzW94GIbm8fHR5ntc2PPzs5nP597/QhAEQfQpwjA019fXtfycN8aYx8fHMou4Z6YBOfWt8D6ANwd1bP1nNr/Zdf2huL6+ZlU/QRCEx5hOp7U98F1fX9uOM1NDpwK8D+DNQUlr2z8MVeOpnyAIojlRZzegxFTA2jQgt74O7wP4Y0DHPf9Wv8lVLxC5v7/nqZ8gCKKBMZ/PK18bUHJXwMg0IMeeh/cB/DEgyz3/Va/6L7ESlCAIgqghhsNh5Q+CJXJBYhqQY8/D+wB+G4zlwr8qD/yh5U8QBNGeCMPQ3NzcVJYTjCl1QNDCNCDX5uF9AC8DKbHwr6pDIp6fnznJjyAIooVRZVe4xLsCMjVoQaD3AbwMxHLhX1Vn/f/69Yv5foIgiBbHcrmsJD8YU+pdAWvTgJxrjGnG64CDIBhJeix6XVWv+U3TVLPZzPZ1kACAhlgul4rj2Pl9S742+H/GmMzxkAr7y/cATjZWF202JH8AwLtub2+1WCy03++d3ncwGGizsUpdkmXOc853C0LSTBZtlCr2/NP2JwiC6GZUNR1Q4myAmfGdf70PwHLbn+utHiR/giCIbkcVRUCJswES4zv/ev1wKbL5jXO98K/kOc8EQRBES6KKIqDEgsDI9LgAyIr+hoVh6PS0J7b6EQRB9CtcHx38/Pxs+xCZmT4WAJJWNt841wc8cMgPQRBE/+Lnz59Oc8nNzY3tWFamTwWAjof+7Iv+Rrk+8Y/jfQmCIPoZYRg6X0tm2U3ey9PhQL4KgLXNN8zliX8/f/70/geQIAiC8Bfj8djplHKJEwLXpg8FgCyf/l1u+ysxX0MQBEF0KFwvCrTcFuilC9Cap//Hx0ff3yCCIAiig+FyPcDj46PtOGrvAtSd/Ec2vzEuK7Tr62vvf9gIgiCI5oTr3WXL5dJmHHtJI9PhAiD2+Y1hvz9BEATxVszncyd5pmSuiU2NObm2dwGcXvizLHrdarVydt7/arXijH8AwB/u7u6UJImTe41GI61WK5tLl6dcWYva3gYYBEGsggWAy7f9JUmir1+/lr4PAKCbhsOhsixzcq8Sbwu8NcZETgbxiVo6AE14+o+iyMl9AADd9PT0VOYNf78ZDAbN7wLUMc+g46sPC82FuJz7L3FCE0EQBNGjcJl7Smw5X5surAEIgmCg40t/Clmv186e/tfrtZP7AAC67XA4NKELsDrlzmpVXWHIYt//cDh0Un0Zw9M/QRAEUSxcdwGGw6HNOCrvAlSd/K1O/XP5wh/L33iCIAiix/H9+3dnecjyQbTy0wGrngKIJIVFLgjDUIvFwsmHx3Gsp6cnJ/cCAPRHHMfO7rVYLBSGhVKhdMydkbNBvKHqAqDw5IfLlf8uv4EAgP54enrSdrt1cq8yawGcDOA9VbUWdKxcCrU8XJ/6V/TzCYIgCCIPl6cDltgREJkWTgHw9A8AaK27uztnBwM1sgtQRVUhaaaCVY7rlzGw+I8gCIIoG9fX187yUokuwMy0qANQuGKJosjZ03+apiz+AwCU5rKbPBgMbE+lraQL4LwAOB1hOC96nWVr5E2uFm4AAPptt9tpv987u59lrptXcTxwFR2Awv91y+VSo9HI2QBcvdEJAACXD5Wj0UjL5dLmUuddAKdvAzwdXZip4N7/x8dHpwVAEATO7gUA6Lflcul0KiBNU3358qXoZQdJI2OMs3aE6w7AQgWT/3Q65ekfANBYaZo6vd9kMtF0Oi16WahjjnXGdQFgtfXPJQoAAIBLrtcBSNa5z2nCdFYABEEwkzQucs1wOHR27G/OdaUGAIDr3LJYLDQcDoteNj7lWidcdgCiohe4fvqX5OzQBgAAclU8XFrmwMjV5zspAE6L/wotawzD0HY/5Id2u53zewIA+s31FIB0PP/G4iVBy1POLc1VByAqesFisXB28E+uim8QAABVrC8bDAa20+CRi8/3VgBU0f5n/h8A0CY+pwFKFwBBEExUcPHfdDrVZDIp+9EAANSiqgdMyy2B41PuLcVFB8Dq3P8qsAUQAFCFw+FQ2b19vR/ARQFQaAKjqsV/AABUqapdZovFwmYxYOk99KUKgCAIIhU8+a/K5M8aAABAVaoqACwXA4ZBEJQqAsp2AAp/eJUFALsAAABVqTLH+FgMaF0AnPYhFnrt73g8rnTxH4cAAQCqUmWXeTKZaDwutJ5eOr4m2Ho/fZkOQKOe/iXp6emp0vsDAFAVyxxpPQ1g/TrgIAhSFdz+9/z87Pzwn3O8BhgAUJX5fK7tdlvZ/ff7vf7v//6v6GU7Y4xVa92qAxAEwUgFk/98Pq80+bMFEABQparXmQ0GA83nhWbWpeOZACObz7OdAmhc+x8AgCrVsdDc8mhgq4uspgCKtv/DMKz8Ny6OY3379q3SzwAA9JvttHkRg8Gg6MFDVtMAhTsANu1/y4qmEHYAAAC6wCJnWk0D2EwBFB5ZHQUAAABVq+PAubqmAWwKgKjIF4dhWEsBwCmAAICq1bUOwOJo4KjoBYUKgKa2/yVOAQQAdEcd0wBFOwCzgl9PAQAA6Iy6tpxb5s5ZkS8uWgAUfvNfXQXAbrer5XMAAKhaHW8IvLgAsDn7n8V/AIAuqbPbbJFDC70boEgHYFZ0JHUVAGwBBADUoc4F51VPAxQpABrb/qcAAAB0TdXTAJUVALPZrMiXAwDQeHU/cFrk0osvuKgACIJgIqlQGVLn/D8dAABAHep+7bxFLh2ecvanLu0ANPr0PwoAAEAXVXkq4KUFwKzIJ4/H40pf/QsAgC91PnQOBgONx4XO35MuzNmfFgCnLQXTIp9c9/Y/OgAAgLrUnXMscur0ku2Al3QAZkU/mQIAAAA3qtoO6LwACMNQk0nh1xIDANAKdR89P5lMbLYDzj77AucFgI/T/3gPAACgLj7ePmuRW2effcGHBcBpDqHQ6gMf+/95DwAAoMsscuv4s3UAn3UACn8iBwABAOCWZW798CKnBcB4PNZoNCpyCQAArVLXK4HPjUYjDYfDopfNPvqXTgsAH0//Pr4RAADUzfU6gHcLgLbM/wMA0Aeu1wF81AEo/EkUAACArvN19ozrdQDOCgBfx/+yBRAAUKe6XwiUc30s8EcFQKHTfHwd/uNjPyYAAD5Y5Np3L/ioACh0/j/tfwAAqmWRa9/N5W8WAEEQFP4ECgAAQF/46j7b5Nr3cvp7HYBCPYbhcOht/z8vAgIA1M3X+rPRaGTzXoA3c7qTAsDny38oAAAAfWLRBehmAQAAQJ+4Wgj4XgHAAUAAALzD5w40mwOB3vqHfxQAbVsAyDkAAIC6+cw9Nl33t3L7Wx2AQne2OJTAKV4FDADoE8sDgf7I7aULAOb/AQCol4t1ABQAAAAU5HsHWlUFQKG+AgUAAKBvWlgA/JHbfysAgiAoXlJ4LAB4DwAAoI8sFwL+dtHrDsCoyM2Gw6GXNwDm2AEAAOijwWCg4XBY9LLR+S9eFwCFSgpfx/8CANB3Fjn4ww5AoQKAA4AAAH3kew2AVP5I4FJTAHQAAAB99PT05HsINjn4twteFwCFdgD4LgBYBAgA6CuLHPxbjn8pAIIgKHwn31MALAIEAPSVTQ4+z/XnHYDR6y/8iMXqQwAA4FCZnQDnBcCs0B2Y/wcAwCuLXDzL/895AVBoQz8nAAIA+qwJ69DK5OLzAqDQXXweAAQAgG9NWIdmkYtn+f+x7gD4XgAoNaP6AgDAF4tc/JLrzwuAQlsAm9ABaEL1BQCALxa5+CXX/yVJQRAUvgNrAAAA8MvypUAD6b8OQKE7hGFY+AMBAIB7Fjl5Iv15EuBlV/L0DwBAI9jm5LwAmBW5qAnz/wAA+NSUhei2OwHoAAAAYKEpC9HLdgBamdGb8psPAECL/LYGoHVnAEjSbrfzPQQAALyyPQvAqgAAAACt9VsBUOgQIF4EBABAM1jk5LFkuQiQAgAAgGawzcl/BUFgdyUAAGilIAhGf0kaFbloPC40WwAAACpmkZtHhacAOAQIAIBmscnNf4kdAAAAFJYkie8hlDH4SwUPAWIBIAAAzWKRmyeFpwAoAAAAaBab3Gy1DRAAALRbawsA3gMAAIC9v1TwVcBNmQJoymsYAQDwzSI3z1gDAABAy7EGAAAAXIQCAACAHqIAAACghzgJEACA/hn8pdN7gS81mRQ6OBAAAFTMIjePeRkQAAAtZ/syIAAA0DMUAAAA9BAFAAAAPUQBAABAD1EAAADQQxQAAAD0EAUAAAA9RAEAAEAPUQAAANBDFAAAAPQQBQAAAD1EAQAAQA+1tgAYjUa+hwAAQGsVLgD2+30V4yiMAgAAgCOb3PyXpF2RC9I0LfwhAACgOha5efeXpGY80gMAgLrsW7sGAAAA2KMAAADAwmAw8D2EUigAAACwMJlMfA+hlMIFQJZlFQwDAADYssnNf0lKqv4QAABQHYvcnDAFAABAD1EAAADQQ6wBAACg5WzXABQ6PqhJBUAYhr6HAACAdxa5OW31SYBt34IBAIAnxU8CbMrLgAAAwJHty4CyIhfsdoXeHQQAQCc16a20Frk5+8sYk1UwFgAAOq1JBUBRxpjMahtgkxYCAgDQZ7Y5OS8ACvUOKAAAAGgGi5y8k/4rAFjZBwBAP+wlywIgSRLXg7HCNkAAQN9Z5OTfCoBChwE1RdvfxQwAgAepZPkugDRtZb0AAIAzTdkFYJuTrToAHAYEAOi7phQAFjk5kSzXANABAACgGWrtABwOB6sPAwAAblnk5P/WABhjCvcPmtAFaEr7BQAAH2xycZ7zzxcBFjoMqAnrACgAAAB9ZpGLX3L9eQHQyrMAAACo23g89j0ESfZnAEi/FwDsBAAA4AJNOYfGIhe/5HrrDkAT1gAAANBnFrn4zQ5AUuQOTXghEGsAAAB9ZpGLk/z/nBcAhe7y9PRU9EOdowAAAPSZRS7O8v/zUgAYY7K3vvIjLAQEAPTRbDbzPQSrHHye61+/C6DQVsAmTAMAANBHFjn4txz/ugAodDcKAAAA/LDIwb9d8LoAKLScsAlTAE3ZiwkAQJ0scvBvOb5UAdCEDkBT9mICAPqjCYvQLXLwhwVAobs9PT1xIBAAoHd8FwD7/b7UDgDpVQFgjCl8ogAHAgEAUC/LlwB92AGQCu4E8F0ATCYTr58PAEDdLHLvw+t/8FYBUOiuvgsA1gAAAOrmewrAIvdmr/9B6wsAAADq1sIC4I8LShcAu12hGQMAAFCSRe79I7cHxpg/vioIgj//4Qfu7++9HYuYJIm+fv3q5bObYjKZMBUCoDZpmvZ+B9hbubMuNnnPGBO8/mf/752v3Um6+ISdJEkacS5yn8xmM0VRpMVioTAMfQ8HQM/sdjvFcaw4jntXDPg+gM7iAKA32wVvTQFIrANorMFgoDiOdX9/r+VySfIH4MV4PNb19bWyLNNisfA9nFr57ri6mP+XHBUAPo8E9v2NqNNgMFCSJFoul76HAgCSpDAM9fPnT202G99D6Y2yRwDnnBQAh8PB2y5ckugAABuCSURBVLHAfTkHIE/+vltPAPCWq6srrVYr38Oohc8HzyzLdDgcil52eQFgjEmK3r0JLwbqsvV6TfIH0GjX19e9eCjz+d9ok2vfy+nvdQCkN04N+ggFQHVGo5Gurq58DwMAPrVer30PodMscu27ufyjAqA1CwGn06m3z65DX9pqANpvPp97PySny1wtAJQ+LgCSIp+w2+16txWkLmyxBNAmXf+Z5eu/b7/f2xwAlLz3L5wVABLTAFVh7h9Am9ABqIZljn33oncLAGPMXgXfDOirAOjDohMAaIuudwB8sTkA6JTL3/RRB0Aq2AXwVQD06SwAAGi6rk8H+3ro3G63RS9JPvqXTguA3W7n7TwAAEAzdP10WB8PnVmW6enpqehlyUf/0mkBIPnpAnR9CuDhodCOTADwqusFgA+u5/+lTwqAtqwD6PoUgEXbBwC86fKCcF+Lsl3P/0ufdwCkgl0AkpV7cRzbHP0IALW7vb3t9BoAXw+cruf/pQoKgMPhUHv7p+tTAPv9ntO1ADTe4XDg4LIKpGlq8xCYfPYFzgsAqf4uQNenACRps9no9vbW9zAA4F2LxaLTT/+Sny2Oljk1+ewLPi0ATnMIhVahMQ1QjSiKKAIANM7hcNDff//d6bl/nyxy6sNn8//SZR0AqQXHAnf9fQC5KIr0zz//sCYAQCM8PDxoMpn05sGv7o6z6+N/z11aABT+zvblD4MPm81Go9FI3759093dHcUAgFrtdjv9+PFDX79+1Ww269X5L3WvObPMpZddZIy5KCTtJZlLYz6fmzotl8uLx0YQBEEQNnF/f19rbpvP50XHmJkL8/qlHQCpYBeg7rkgXj4BAKha3bnGIpdefEFlBcDhcGAaAADQKXUWANvt1maK9+LEW6QASAqPosYCoOtnAQAA+qWq7X+5iwsAc9xScFdkFHUWAH04CwAA4E/du80scuiduWD7X65IB0Bq8DQABQAAoCuqbv9LxQuApODX11YAMAUAAKhS3fP/FpIiX1yoADDGZCr4dkAWAgIAuqDhBcDulKMvVrQDIElxkS+ucxqgL6cBAgC6y7L9Hxe9wKYA4FRAAEDv1PUioEpP/ztTuABo8jQAhwEBANqujva/ZNcBkCymAeK40CVWKAAAAFWpY7F5HMe1tP8l+wKgkdMAbAUEAFSljhxTV/tfsiwAbKYB7u7uKn9FMFsBAQBVGA6HlX/Gfr/X3V2h8/Yky/a/ZN8BkKRN0QvqmAYAAMC1OqaYLXNk4VycK1MAFG45VF0A1LVCEwDQL3W0/y1zpPX8unUBYPNugN1upzRNbT8SAAAvqp5iTtNUu12hmXWp4Nn/r5XpAEgWKw83G+tuxUU4DAgA4FrVUwCWuTEu85mlCgBjzFZSof0KVe8GYCsgAMC1qjsAFrnxcMrB1v5fmYtPtpKWl35xfiZAFEUOPvpPk8lEt7e3ldwb1RiNRhRu6JU0TSvfFQW3qiwALPf+l3+aNsaUCkkTSaZITKdTU5Vfv34VGgvhJ0ajkYnj2Oz3+8r+LABNlqapiaLI+99F4vOoMmcZY8x0OrUZ18SUzN9l1wDIGJOq4JkADw8PlS0GnEwmCsOwknvDjfV6rcfHRy2XS75X6K3xeKybmxtlWcYZJg1X5fcnTVM9PDwUvWx3yr2llC4ATuKiF1S5GJDtgM00GAy03W71/ft330MBGmM4HOrXr1+VTYuivMViUdm9fSz+ywXm2MYvd5MgGEh6LnJNGIbKsqySvZVxHOvbt2/O74ty4jjWcrn0PQygsb5+/aokSXwPA2fCMKxsvcZ+v9doNLKZ//8/U2L7X85JB+A0kEIr76p8QRAdgOaJoojkD3wijmPeadIwVeYTy8V/ty6Sv+RuCkBq0DTAaDTSeDyu5N6ws16vfQ8BaLzhcKjVauV7GDjT1fa/5LAAMMYkKrgY8OnpqbJzAfhL1ByLxaKWF2kAXcBagOYIw7Cy78d2u9XT01PRy3anXOuEyw6AZPFSgqq6AIvFghXmDcGUDHC54XDIroCGaODTv9OE6boAKHwyYFVbAgeDQaXfPFyOH2ZAMawDaIaqOsmWW/8OcnH4zxmnBcBpYUJc9LqqugBMAwBoI7pm/k2n08oeXmzn/l0t/su57gBIFi2K29tbZVnmfCCTyYSXAwFonSp+HqKYqub+syyzPa7e+ZOy8wLAGJOp4GuCpeq6AKw+948zz4FiKAD8Gg6HlRUAlrnu7pRbnaqiAyBZVCpxHFeSKGazGV0AzzjYBCimqqPScZmqHhz3+73t+TeVPCFXUgDYbAk8HA50ATqq6ldAA11yd3dH18yj8Xhc6dO/xcE/Trf+nauqAyBZbgmsqgswn8+d3xeXKTHnBfROle9Jweeq+v3f7/eN2Pp3rrICwBgTSyp0ykGVXQD+Uvm1Xq9tKl+gV+7u7pgy82g+n1e2A8Py6f/plEsrUWUHQGpQF2A0GvEWOo+yLOOEM+ADu92OvyMehWHYq6d/qfoCIFbBg4EOh0Nlc8br9ZojaT3abrf6+++/6QQArzw8PGg2mzH379FqtdJoNKrk3pZP/wc5PPf/TcaYSkPSWpIpEsPh0Dw/P5sq3N/fFxoL4T5Go5GJ47iS7y/QJvv93qxWK+9/J/se4/G4su/x8/OzCcPQZlxrU3F+DswxSVcmCIKBpExSoYP5v3//Xtnq/fV6rX///beSe+Nyo9FIi8VCs9mMo0/RK1mWKUmSyl6JjsuFYagkSSo79c8y3xwkjYzjk//+UHWFYSy7AGEYVtYFMMaY8XjsveokCIIg/MbNzU1leabJT//GmMrXAOTiohdUuSNAOs5H87ZAAOiv5XJZ6cJLy7l/qeLFfy/qqDLMsQsQq2AVVHUX4OfPn96rT4IgCKL+GI/HleaXEk//sakpL9fVAZCO0wCFVN0FWCwWbA0EgJ4Jw1Db7bbStUclnv7XjofyvroqDVOiC/D4+OiyMPvDcrn0Xo0SBEEQ9cSvX78qzSmPj4+Nf/o3xqjuAmAkaV/0N2W5XDr81rxtOp16/0NJEARBVBtVLvrLWT5U7nVc+d/NAsAci4C1zTet6i7A8/MzOwMIgiA6HHUk/8fHR9vxrU3d+bj2D5QGsugCTKdTZ9+g91AEEARBdDPqSP7GWHeT95IGpusFgCnRBbi/v3f1PXoXRQBBEES3oq7kX+Kk2dqf/o3HAsCqC1DlcY3nKAIIgiC6EXUlf2OsD5jz8vRvfBUA5lgErJr8zXx+fmZ3AEEQRIujzuR/c3NjO86V8ZSHK38XwEeCIMgkDYtcE4ahsiyr7ez4KIp0e3tby2cBAMqr+nz/1/b7vUajkc2+/ydjzKiCIV2kzoOA3rIuesHhcKjsJUFvieNYNzc3tX0eAMDeeDxWmqa1JX/p+MKfxh/68xZfrYc8JCWyaJtUfZDDa79+/TLD4dB7S4sgCIJ4O5bLZaXH+76XGyzHmxjf+df7AKSZzW9eHdsCX3t+fjbz+dz7H3KCIAjivwjDsNb5/nMlDpGbGd/51/cAzLEI2Nr8Bvr6hl9fX9se80gQBEE4jPF4XHtHOFdi4d/WNCH3+h6AORYAI5vfxKrfFviRx8dHjg8mCILwGN+/f/fy89+YUm/7q/3I3/fC+wBeBmJ5ONDV1VXJb2M5Nzc3dAMIgiBqjOl0Wvnx8J+5urqyHf/aNCDnmoYVAANJmc1vaB0nBH7k+fnZfP/+3ftfCoIgiC7HcDg0P3/+9Prz3phSJ/5l8nToz1vhfQC/DUZa2Pym1nVC4GceHx85PIggCMJxDIdDb2u+3lLipNiFaUCuzcP7AP4YkOW2QJ9zQa9RCBAEQZSPpiV+Y0yZbm9iGpBjz8P7AP4YkOWCQKn+swE+8/j4aL5//84aAYIgiAIxnU4bl/iNKbXn36ghC//Ow/sA3hyU5YJAH2cDXOrnz5+cIUAQBPFODIdDc3V15X1x30dK7Pxamwbk1tfhfQBvDqrEgsDr62vb720tnp+fzc3NjZnP53QGCILodeRJv2nd27dcX1/b/ndmatDCv/Pw+jKgjwRBMJN0X/S6MAyVpqlGo5HzMVUhSRIlSaI0TZUkie150gDQeOPxWJPJRLPZTLPZrDU/p7Ms02Qysf35/NUYkzgekhONLQAkKQiCraR50eum06mSJHE/oBrs93ulaaosy5Rl2cuvz//9brfzOEIA+F0Yhr+9fGcwGLz8ejKZaDQa1fpyHtdms5keHh5sLr0zxixcj8eVphcA+VRAWPTa79+/1/rWQF9eFwiS/ih+0jTVfr//7RqKCADSn8lbOibt81euj0aj357WzxN8163Xa/377782lx50XPi3//QrPWl0ASBJQRCsJF3bXPvr16/e/CEtK+84nHtdOLz3z7Is09PTU9VDBHAynU7/+Gevk/Z7/2w2m1U5tE5J01RfvnyxvfwfY8zG5Xhca3wBIElBECSS/vwT/4n8vdDw471pmKL/nI4F2uatBC39+SSde++J+r2vRz0mk4ntz54HY8zM8XCca0sBMJKUymIq4OrqSptNo4swlPDWFEiRf3/p1+Qs5wFRg+FweHGy/Owp+LMWd59a4H21Wq3048cPm0sPkibGmMztiNxrRQEglZsKuL+/p+0Fb96aNinrrSkbX6r4u/VW6xqoS5Ik+vr1q+3ljW/951pTAEj2UwFhGCrLMn6gAAA+tN/vNRqNbLf8taL1n/vL9wAKinRsrxRyOBwURZHzwQAAuiWKItvkf9AxR7VGqwqA05zK2ubau7s71gIAAN612Wx0d3dne/m6DfP+51o1BZCznQqQ2BoIAPhTyS1/rWr959paAFgfEDQcDpWmKesBAACSjvP+k8nE9jyTxh/4855WTQHkTr/Rkc21T09PrAcAALyIoqjMYWZRG5O/1NICQJKMMVtJtzbXsh4AACCVnve/PeWiVmrlFEDuNBWQSBrbXM96AADor5Lz/jtJs7Y+/UstLwAkKQiCiaRfNtdyPgAA9FPJ/f6S9MUY0+qz5ls7BZA7fQP+sbn2cDhwQiAA9NBsNiuT/P9pe/KXOlAASNLp2EWrSZzdbseiQADokSiKyrxg7K4tR/1+pvVTALnTeoBU0tDm+pubGwoBAOi4OI717ds328ufdHzRT2vn/c91pgCQyq0HkFgUCABdVnLRn9SBef9znZgCyJVZDyAd54Sa8oY1AIA7WZaVXfPViXn/c50qAKRy6wEOh4MWi4XzV7cCAPzZ7/daLBZlFv11Zt7/XOcKgJNIxz2ahbEoEAC6peSiv51a9pa/S3WyADg7Ktiq3Lu7u9NqtXI6JgBA/aIoKnPS30EtPur3M50sAKSX9QCR7fU/fvxQHMfOxgMAqFccx7q9tToxPhd1bd7/XGcLAOnlfQH/2l7/7ds3bbetPeYZAHpru92W2e4nSf+2+Zz/S3RqG+B7giDYSprbXBuGoZIkYXsgALREmqZlT/q7M8YsXI6pifpSAJR6aRBFAAC0g4Pk3/qX/FyqFwWAJAVBMNLxpMDQ5vrxeKwkSXhxEAA01H6/12w2K7Pi/6DjSX+Zu1E1V6fXAJw7fUNnttfvdjvNZjPOCACABnKQ/KXjk3/maEiN15sCQHrZGWC9KiQvAgAAzeEo+X/r8or/t/SqAJAkY0ws6Yft9RwUBADNslqtyib/H6fc0Cu9WQPwWhAEsaSl7fXL5ZJzAgDAsyiKyu71vzXGRI6G0yp9LgBK7QyQKAIAwCcHyX9njOnt9q7eTQHkTls8ZrJ8Z4Ak3d7eMh0AAB64SP4qsTC8C3rbAciV3R4o0QkAgDo5SP692u73nt52AHJn2wOtT42gEwAA9XCU/Hu13e89ve8A5IIgmEj6VeYedAIAoDoOkr8kfenbdr/39L4DkCt7RoBEJwAAquIo+fdur/9HKADOnPaBUgQAQIM4TP6xg+F0BgXAKxQBANAcJP/qUAC84fQH5d8y96AIAIByHCX/f0n+b2MR4AfKnhYosTAQAGw4Sv69PeXvEnQAPnD6g1PujEk6AQBwsf1+T/KvCR2AC7joBIzHYyVJosFg4GZQANAxjt7qJ5H8L0IH4AIuOgH5q4T3+72bQQFAh5D860cBcCGXRUCasg0VAHJpmpL8PWAKoCAX0wFhGCpJEk0mvX0JFQBI+i/5Hw7Wp7HnSP4F0QEoyEUn4HA4aDababvduhkUALTQdrsl+XtEAWDBVRHw999/s0UQQC/Fcay///6b5O8RBYCl0x+4UocFSdK3b9/YJgigV1arlb59K3Xgau5fkr891gCUFARBJOmm7H3m87niOGabIIDOyvf4393dubgdx/uWRAHggKsiYDwea7vdajQalR4TADRJlmVaLBYuVvpLJH8nKAAccVUEsEMAQNc4XOkvkfydYQ2AI6c/kF8klfoTfjgc9OXLFxYHAuiEOI715csXF8n/IOkLyd8dOgCOBUEwkZRICsveixcJAWgzR2f6S8fkPzPGcIqaQxQAFQiCYCRpK2lc9l68QwBA2zg81leSdpIWxpjMxc3wHwqAigRBMNCxE1C6CGBdAIC2cDzfv9PxyZ+XqFSANQAVOf2BnankgUHSf+sCNptN6XEBQFU2m42r+X7p+LOT5F8hOgA1CIJgI+nKxb04LwBA0zje3y9JP4wxK1c3w9soAGriapugJA2HQ223W6YEAHiXpqkWi4Wenp5c3ZJtfjVhCqAmrrYJStLT0xNTAgC8y1v+jpI/2/xqRgegZi53CEhMCQCoXwUtf1b6e0AB4MFph0Asae7ifmEYvrxWEwCqlCSJFouFq4V+knQnKWKxX/2YAvDAGLM3xizk4G2C0nGXwNevX7VasWYGQHVWq5W+fv3qMvn/a4xZkPz9oAPgWRAECx27AaVPDpSOBwfFccwCQQDOpGmqKIpcHewjHef7I2PM1tUNURwdAM9OfwFmOs6Blbbb7fTlyxet12sXtwPQc+v1Wl++fHGZ/PPDfUj+ntEBaAjX6wIkaTqdKo5jXi8MoLAsyxRFkR4eHlzelvn+BqED0BBn6wL+cXXPh4cHTSYTtgsCKGSz2WgymbhO/v8w398sdAAa6PRGwa2koat7TqfTl7/UAPCWNE21Wq1cJ/4nHbf48Sa/hqED0ECnvygTHdtlTjw8PLA2AMC78rn+Clr+E5J/M9EBaLggCFaSrl3eczwea7PZcG4AACVJotVq5XKRX+4fYwzzjw1GB6DhTn+BvsjRLgHpuFMgPzdgv2c6Duij/X7/sq/fcfLf6XikL8m/4egAtMRpl8BG0tLlfcMw1GazURRFLm8LoMHiONZqtXJ5oE/uVtKKhX7tQAHQMq4PDsqxSBDovooW+Ukc7NNKTAG0zOkv2EiS07/B+SJBpgWA7snb/RUs8pOOP4tGJP/2oQBoodOZATMdzwxw2sP78eOHRqOR4jh2eVsAnmw2G41GI/348cP1rQ86LvSb0fJvJ6YAWu70euFY0tT1vdktALRXhav7peNTf8Tre9uNAqAjTtsF13K8NkDiSGGgTSo6wjd3kLRmhX83MAXQEae/kBM5XhsgHdcH/O9//1MURcqyzPXtATiQJ/7//e9/VSX/Bx0P9SH5dwQdgA6qshsQhqFWq5VWq5UGg4Hr2wMoaL/fa7PZaLPZVLGtT+Kpv7MoADqqircLnqMQAPyqIfFLvL2v0ygAOi4IgpmOhYCzFwudoxAA6lVT4n/SMfEnVX0A/KMA6IFTN2Al6XtVnzEcDrVer7VYLCgEgArs93vFcazNZqOnp6cqP+pfSRue+ruPAqBHqtwymKMjALhV0xO/xNa+3qEA6KHTccIbVTQtIFEIAGXVmPifdDy/n5P8eoYCoKfOpgVWqmC3QC4MQ0VRpNVqxTkCwAWyLNNms1Ecx1Unfol2f69RAPTcaVpgo4p2C5xbLpdarVa8cAh4Q5qm2mw2ur29rePjbnXc2pfV8WFoJgoASHrZLbBWhesDctPpVKvVSovFouqPAhpvu91qs9lUdXjPaw86Jv6kjg9Ds1EA4DdBEEQ6FgKVrQ/IDYdDrVYrRVHEOgH0So0r+nNPOib+uI4PQztQAOBNVZ4m+FoYhlosFkwPoPPyNv92u61jfl/iFD98gAIA76proeC56XSqKIoURVEdHwdUbr/fv7T5K3oz31sOOq7tYYEf3kUBgE/5KAToCqDtPDztSyR+FEABgIuddgysJS3r/NzxePzSFWCtAJosn9uP47jOp/3crY77+Un8uAgFAArzVQhI0nw+12KxYIoAjRLHsbbbre7u7nx8PFv6YIUCANZOhUCkGqcGcvkUQR5A3bbb7UvU2OLP5a3+mMQPWxQAKM3HGoFzFAOoi+ekLzHHD4coAODMqRCIdCwEKj9H4C0UA3CtAUlfOu7jz5/4SfxwggIAlTgdKLSSNPY1hjAMNZvNXooBFhDiEvm2ve12qyRJfCZ9Sdrp+LQf+xwEuokCAJU6HTG8Ug3vGvjMeDx+KQbYWohzaZq+JH0Pq/ffcqdj4k98DwTdRQGAWpwWDK50nCKofZ3Aa/lUwWw202w2402FPZNlmZIkUZIkvlv75w6SYh0Tf+Z3KOgDCgDU6rROYCHP0wOvDYfD3woCpgu6Zb/f/5bwazp//1I7Hef3t8zvo04UAPDmND0QycN5Ap8Zj8eaTCZ0CFrq/Ak/TdOmtPVfu9VxUV/ieyDoJwoAeHe2eyBSg7oC5/IFhedFAZphv98rTdOXZN+AhXsf4WkfjUEBgEYJgmCi4/TAQg1YK/CRvEtwHkwdVOs82WdZ1uSn+3MHSVsd5/ZT34MBchQAaKwgCBY6dgW87yC41HA41Gg0epk2yP8/isuTfN7Oz7KsaXP3n7nTscW/9T0Q4C0UAGi8pi4cLCIvDPIuQb7QsO/bEdM0fVmglz/dtzDRn6PFj9agAECrnLYT5p2BVhYDr4Vh+FIY5AVB3jXIuwhtlD+9S8eneem/hJ+maZPn6Yva6bh9b8v2PbQJBQBaq4vFwEfG4/HLGoPXhcF7hUKZdQl5on7tPLG//vV+v2/DnLwLJH20HgUAOuFUDMx0LAhas2YArXKn42K+hKSPLqAAQOec1gzMdCwGZvL0YiK03pOkRP8lfeb00SkUAOi809bCvBiY+h0NGu5Bp6TPlj10HQUAeuWsO5BH59cO4EM7HRN+Ip7y0TMUAOg1CoLeIeEDJxQAwJlXBcFETBm03YOkVCR84A8UAMAnTi8tmpwFXYJm2umY7FNJKS/ZAT5GAQBYeFUUjESnoG4ke6AkCgDAkdNug5F+LwzoFpSzk5Tpv2SfsTofcIMCAKjY6ZCikY7rCgY6FgcDURzkdpL2Oib4vY7z9RmH7QDVogAAPDotOszfCDQ7/W9eIHShSMiTe57gpWOCl46texblAZ5QAAAtcNZFkP7rIpybvXGZiwIiT+CvJa9+nZ59HU/vQAv8f/4SC3GPcgGYAAAAAElFTkSuQmCC;" parent="Xht5l7l8JJ4m-X1HlJ2U-74" vertex="1">
          <mxGeometry x="355" y="460" width="100" height="100" as="geometry" />
        </mxCell>
        <mxCell id="Xht5l7l8JJ4m-X1HlJ2U-41" value="" style="shape=image;imageAspect=0;aspect=fixed;verticalLabelPosition=bottom;verticalAlign=top;image=https://raw.githubusercontent.com/qdm12/gluetun/c826707d420e43936f53a70b40d3cc433ec55227/title.svg;" parent="Xht5l7l8JJ4m-X1HlJ2U-74" vertex="1">
          <mxGeometry x="500" y="471.29999999999995" width="100" height="77.41" as="geometry" />
        </mxCell>
        <mxCell id="Xht5l7l8JJ4m-X1HlJ2U-42" value="&lt;span style=&quot;font-size: 16px;&quot;&gt;Gluetun&lt;br&gt;&lt;/span&gt;" style="text;html=1;strokeColor=none;fillColor=none;align=center;verticalAlign=middle;whiteSpace=wrap;rounded=0;" parent="Xht5l7l8JJ4m-X1HlJ2U-74" vertex="1">
          <mxGeometry x="485" y="570" width="130" height="30" as="geometry" />
        </mxCell>
        <mxCell id="Xht5l7l8JJ4m-X1HlJ2U-43" value="" style="shape=image;imageAspect=0;aspect=fixed;verticalLabelPosition=bottom;verticalAlign=top;image=https://github.com/NX211/homer-icons/blob/master/png/lidarr.png?raw=true;" parent="Xht5l7l8JJ4m-X1HlJ2U-74" vertex="1">
          <mxGeometry x="650" y="460.01" width="100" height="100" as="geometry" />
        </mxCell>
        <mxCell id="Xht5l7l8JJ4m-X1HlJ2U-44" value="" style="shape=image;imageAspect=0;aspect=fixed;verticalLabelPosition=bottom;verticalAlign=top;image=https://github.com/NX211/homer-icons/blob/master/png/portainer.png?raw=true;" parent="Xht5l7l8JJ4m-X1HlJ2U-74" vertex="1">
          <mxGeometry x="800" y="460.01" width="71.48" height="100" as="geometry" />
        </mxCell>
        <mxCell id="Xht5l7l8JJ4m-X1HlJ2U-45" value="&lt;span style=&quot;font-size: 16px;&quot;&gt;Lidarr&lt;br&gt;&lt;/span&gt;" style="text;html=1;strokeColor=none;fillColor=none;align=center;verticalAlign=middle;whiteSpace=wrap;rounded=0;" parent="Xht5l7l8JJ4m-X1HlJ2U-74" vertex="1">
          <mxGeometry x="635" y="570" width="130" height="30" as="geometry" />
        </mxCell>
        <mxCell id="Xht5l7l8JJ4m-X1HlJ2U-46" value="&lt;span style=&quot;font-size: 16px;&quot;&gt;Portainer&lt;br&gt;&lt;/span&gt;" style="text;html=1;strokeColor=none;fillColor=none;align=center;verticalAlign=middle;whiteSpace=wrap;rounded=0;" parent="Xht5l7l8JJ4m-X1HlJ2U-74" vertex="1">
          <mxGeometry x="770.7399999999998" y="570" width="130" height="30" as="geometry" />
        </mxCell>
        <mxCell id="Xht5l7l8JJ4m-X1HlJ2U-47" value="" style="shape=image;imageAspect=0;aspect=fixed;verticalLabelPosition=bottom;verticalAlign=top;image=https://github.com/NX211/homer-icons/blob/master/png/portainer.png?raw=true;" parent="Xht5l7l8JJ4m-X1HlJ2U-74" vertex="1">
          <mxGeometry x="650" y="175" width="71.48" height="100" as="geometry" />
        </mxCell>
        <mxCell id="Xht5l7l8JJ4m-X1HlJ2U-48" value="&lt;span style=&quot;font-size: 16px;&quot;&gt;Portainer&lt;br&gt;&lt;/span&gt;" style="text;html=1;strokeColor=none;fillColor=none;align=center;verticalAlign=middle;whiteSpace=wrap;rounded=0;" parent="Xht5l7l8JJ4m-X1HlJ2U-74" vertex="1">
          <mxGeometry x="620.7399999999998" y="280" width="130" height="30" as="geometry" />
        </mxCell>
        <mxCell id="Xht5l7l8JJ4m-X1HlJ2U-49" value="" style="shape=image;imageAspect=0;aspect=fixed;verticalLabelPosition=bottom;verticalAlign=top;image=https://github.com/NX211/homer-icons/blob/master/png/prowlarr.png?raw=true;" parent="Xht5l7l8JJ4m-X1HlJ2U-74" vertex="1">
          <mxGeometry x="355" y="620" width="100" height="100" as="geometry" />
        </mxCell>
        <mxCell id="Xht5l7l8JJ4m-X1HlJ2U-50" value="" style="shape=image;imageAspect=0;aspect=fixed;verticalLabelPosition=bottom;verticalAlign=top;image=https://github.com/NX211/homer-icons/blob/master/png/radarr.png?raw=true;" parent="Xht5l7l8JJ4m-X1HlJ2U-74" vertex="1">
          <mxGeometry x="500" y="620" width="100" height="100" as="geometry" />
        </mxCell>
        <mxCell id="Xht5l7l8JJ4m-X1HlJ2U-51" value="" style="shape=image;imageAspect=0;aspect=fixed;verticalLabelPosition=bottom;verticalAlign=top;image=https://github.com/NX211/homer-icons/blob/master/png/sabnzbd.png?raw=true;" parent="Xht5l7l8JJ4m-X1HlJ2U-74" vertex="1">
          <mxGeometry x="650" y="620" width="100" height="100" as="geometry" />
        </mxCell>
        <mxCell id="Xht5l7l8JJ4m-X1HlJ2U-52" value="" style="shape=image;imageAspect=0;aspect=fixed;verticalLabelPosition=bottom;verticalAlign=top;image=https://github.com/NX211/homer-icons/blob/master/png/sonarr.png?raw=true;" parent="Xht5l7l8JJ4m-X1HlJ2U-74" vertex="1">
          <mxGeometry x="785.7399999999998" y="620" width="100" height="100" as="geometry" />
        </mxCell>
        <mxCell id="Xht5l7l8JJ4m-X1HlJ2U-53" value="&lt;span style=&quot;font-size: 16px;&quot;&gt;Prowlarr&lt;/span&gt;" style="text;html=1;strokeColor=none;fillColor=none;align=center;verticalAlign=middle;whiteSpace=wrap;rounded=0;" parent="Xht5l7l8JJ4m-X1HlJ2U-74" vertex="1">
          <mxGeometry x="340" y="730" width="130" height="30" as="geometry" />
        </mxCell>
        <mxCell id="Xht5l7l8JJ4m-X1HlJ2U-54" value="&lt;span style=&quot;font-size: 16px;&quot;&gt;Radarr&lt;/span&gt;" style="text;html=1;strokeColor=none;fillColor=none;align=center;verticalAlign=middle;whiteSpace=wrap;rounded=0;" parent="Xht5l7l8JJ4m-X1HlJ2U-74" vertex="1">
          <mxGeometry x="485" y="730" width="130" height="30" as="geometry" />
        </mxCell>
        <mxCell id="Xht5l7l8JJ4m-X1HlJ2U-55" value="&lt;span style=&quot;font-size: 16px;&quot;&gt;SABnzbd&lt;/span&gt;" style="text;html=1;strokeColor=none;fillColor=none;align=center;verticalAlign=middle;whiteSpace=wrap;rounded=0;" parent="Xht5l7l8JJ4m-X1HlJ2U-74" vertex="1">
          <mxGeometry x="635" y="730" width="130" height="30" as="geometry" />
        </mxCell>
        <mxCell id="Xht5l7l8JJ4m-X1HlJ2U-56" value="&lt;span style=&quot;font-size: 16px;&quot;&gt;Sonarr&lt;/span&gt;" style="text;html=1;strokeColor=none;fillColor=none;align=center;verticalAlign=middle;whiteSpace=wrap;rounded=0;" parent="Xht5l7l8JJ4m-X1HlJ2U-74" vertex="1">
          <mxGeometry x="770.7399999999998" y="730" width="130" height="30" as="geometry" />
        </mxCell>
        <mxCell id="Xht5l7l8JJ4m-X1HlJ2U-57" value="" style="rounded=1;whiteSpace=wrap;html=1;fillColor=#d0cee2;strokeColor=#56517e;arcSize=8;" parent="Xht5l7l8JJ4m-X1HlJ2U-74" vertex="1">
          <mxGeometry x="240" y="870" width="540" height="220" as="geometry" />
        </mxCell>
        <mxCell id="Xht5l7l8JJ4m-X1HlJ2U-58" value="" style="fontColor=#0066CC;verticalAlign=top;verticalLabelPosition=bottom;labelPosition=center;align=center;html=1;outlineConnect=0;fillColor=#CCCCCC;strokeColor=#6881B3;gradientColor=none;gradientDirection=north;strokeWidth=2;shape=mxgraph.networks.server;" parent="Xht5l7l8JJ4m-X1HlJ2U-74" vertex="1">
          <mxGeometry x="220" y="840" width="90" height="100" as="geometry" />
        </mxCell>
        <mxCell id="Xht5l7l8JJ4m-X1HlJ2U-59" value="&lt;font size=&quot;1&quot; style=&quot;&quot;&gt;&lt;b style=&quot;font-size: 16px;&quot;&gt;Proxmox Node (pve-03)&lt;/b&gt;&lt;/font&gt;" style="text;html=1;strokeColor=none;fillColor=none;align=left;verticalAlign=middle;whiteSpace=wrap;rounded=0;" parent="Xht5l7l8JJ4m-X1HlJ2U-74" vertex="1">
          <mxGeometry x="320" y="840" width="200" height="30" as="geometry" />
        </mxCell>
        <mxCell id="Xht5l7l8JJ4m-X1HlJ2U-62" value="&lt;span style=&quot;font-size: 16px;&quot;&gt;Pi-Hole&lt;/span&gt;" style="text;html=1;strokeColor=none;fillColor=none;align=center;verticalAlign=middle;whiteSpace=wrap;rounded=0;" parent="Xht5l7l8JJ4m-X1HlJ2U-74" vertex="1">
          <mxGeometry x="340" y="1020" width="130" height="30" as="geometry" />
        </mxCell>
        <mxCell id="Xht5l7l8JJ4m-X1HlJ2U-64" value="" style="shape=image;imageAspect=0;aspect=fixed;verticalLabelPosition=bottom;verticalAlign=top;image=https://github.com/NX211/homer-icons/blob/master/png/portainer.png?raw=true;" parent="Xht5l7l8JJ4m-X1HlJ2U-74" vertex="1">
          <mxGeometry x="650" y="915" width="71.48" height="100" as="geometry" />
        </mxCell>
        <mxCell id="Xht5l7l8JJ4m-X1HlJ2U-65" value="&lt;span style=&quot;font-size: 16px;&quot;&gt;Portainer&lt;br&gt;&lt;/span&gt;" style="text;html=1;strokeColor=none;fillColor=none;align=center;verticalAlign=middle;whiteSpace=wrap;rounded=0;" parent="Xht5l7l8JJ4m-X1HlJ2U-74" vertex="1">
          <mxGeometry x="620.7399999999998" y="1020" width="130" height="30" as="geometry" />
        </mxCell>
        <mxCell id="Xht5l7l8JJ4m-X1HlJ2U-66" value="&lt;span style=&quot;font-size: 16px;&quot;&gt;Wireguard&lt;br&gt;&lt;/span&gt;" style="text;html=1;strokeColor=none;fillColor=none;align=center;verticalAlign=middle;whiteSpace=wrap;rounded=0;" parent="Xht5l7l8JJ4m-X1HlJ2U-74" vertex="1">
          <mxGeometry x="485" y="1020" width="130" height="30" as="geometry" />
        </mxCell>
        <mxCell id="Xht5l7l8JJ4m-X1HlJ2U-67" value="" style="shape=image;imageAspect=0;aspect=fixed;verticalLabelPosition=bottom;verticalAlign=top;image=https://github.com/NX211/homer-icons/blob/master/png/pihole.png?raw=true;" parent="Xht5l7l8JJ4m-X1HlJ2U-74" vertex="1">
          <mxGeometry x="355" y="915" width="100" height="100" as="geometry" />
        </mxCell>
        <mxCell id="Xht5l7l8JJ4m-X1HlJ2U-68" value="" style="shape=image;imageAspect=0;aspect=fixed;verticalLabelPosition=bottom;verticalAlign=top;image=https://github.com/NX211/homer-icons/blob/master/png/wireguard.png?raw=true;" parent="Xht5l7l8JJ4m-X1HlJ2U-74" vertex="1">
          <mxGeometry x="500" y="915" width="100" height="100" as="geometry" />
        </mxCell>
        <mxCell id="Xht5l7l8JJ4m-X1HlJ2U-72" value="" style="group;aspect=fixed;" parent="Xht5l7l8JJ4m-X1HlJ2U-74" vertex="1" connectable="0">
          <mxGeometry y="2.5" width="130" height="130" as="geometry" />
        </mxCell>
        <mxCell id="Xht5l7l8JJ4m-X1HlJ2U-71" value="" style="fontColor=#0066CC;verticalAlign=top;verticalLabelPosition=bottom;labelPosition=center;align=center;html=1;outlineConnect=0;fillColor=#CCCCCC;strokeColor=#6881B3;gradientColor=none;gradientDirection=north;strokeWidth=2;shape=mxgraph.networks.server;" parent="Xht5l7l8JJ4m-X1HlJ2U-72" vertex="1">
          <mxGeometry x="12.999999999999988" y="11.818181818181804" width="116.99999999999987" height="118.1818181818181" as="geometry" />
        </mxCell>
        <mxCell id="Xht5l7l8JJ4m-X1HlJ2U-70" value="" style="fontColor=#0066CC;verticalAlign=top;verticalLabelPosition=bottom;labelPosition=center;align=center;html=1;outlineConnect=0;fillColor=#CCCCCC;strokeColor=#6881B3;gradientColor=none;gradientDirection=north;strokeWidth=2;shape=mxgraph.networks.server;" parent="Xht5l7l8JJ4m-X1HlJ2U-72" vertex="1">
          <mxGeometry width="116.99999999999987" height="118.1818181818181" as="geometry" />
        </mxCell>
        <mxCell id="Xht5l7l8JJ4m-X1HlJ2U-73" value="&lt;font size=&quot;1&quot; style=&quot;&quot;&gt;&lt;b style=&quot;font-size: 30px;&quot;&gt;Proxmox Cluster&lt;/b&gt;&lt;/font&gt;" style="text;html=1;strokeColor=none;fillColor=none;align=left;verticalAlign=middle;whiteSpace=wrap;rounded=0;" parent="Xht5l7l8JJ4m-X1HlJ2U-74" vertex="1">
          <mxGeometry x="150" width="280" height="55" as="geometry" />
        </mxCell>
        <mxCell id="0v0pNmwwUlKoNdS4LQg7-40" value="" style="group" parent="1" vertex="1" connectable="0">
          <mxGeometry x="90" y="170" width="990" height="1440" as="geometry" />
        </mxCell>
        <mxCell id="Xht5l7l8JJ4m-X1HlJ2U-76" value="" style="rounded=1;whiteSpace=wrap;html=1;fillColor=#d5e8d4;strokeColor=#82b366;" parent="0v0pNmwwUlKoNdS4LQg7-40" vertex="1">
          <mxGeometry x="30" y="45" width="960" height="1395" as="geometry" />
        </mxCell>
        <mxCell id="Xht5l7l8JJ4m-X1HlJ2U-77" value="" style="rounded=1;whiteSpace=wrap;html=1;fillColor=#ffe6cc;strokeColor=#d79b00;arcSize=8;" parent="0v0pNmwwUlKoNdS4LQg7-40" vertex="1">
          <mxGeometry x="240" y="130" width="660" height="360" as="geometry" />
        </mxCell>
        <mxCell id="Xht5l7l8JJ4m-X1HlJ2U-79" value="&lt;font size=&quot;1&quot; style=&quot;&quot;&gt;&lt;b style=&quot;font-size: 16px;&quot;&gt;Ubuntu VM-01&lt;/b&gt;&lt;/font&gt;" style="text;html=1;strokeColor=none;fillColor=none;align=left;verticalAlign=middle;whiteSpace=wrap;rounded=0;" parent="0v0pNmwwUlKoNdS4LQg7-40" vertex="1">
          <mxGeometry x="320" y="100" width="200" height="30" as="geometry" />
        </mxCell>
        <mxCell id="Xht5l7l8JJ4m-X1HlJ2U-84" value="" style="rounded=1;whiteSpace=wrap;html=1;fillColor=#ffe6cc;strokeColor=#d79b00;arcSize=8;" parent="0v0pNmwwUlKoNdS4LQg7-40" vertex="1">
          <mxGeometry x="240" y="560" width="540" height="210" as="geometry" />
        </mxCell>
        <mxCell id="Xht5l7l8JJ4m-X1HlJ2U-86" value="&lt;font size=&quot;1&quot; style=&quot;&quot;&gt;&lt;b style=&quot;font-size: 16px;&quot;&gt;Ubuntu VM-02&lt;/b&gt;&lt;/font&gt;" style="text;html=1;strokeColor=none;fillColor=none;align=left;verticalAlign=middle;whiteSpace=wrap;rounded=0;" parent="0v0pNmwwUlKoNdS4LQg7-40" vertex="1">
          <mxGeometry x="320" y="530" width="200" height="30" as="geometry" />
        </mxCell>
        <mxCell id="Xht5l7l8JJ4m-X1HlJ2U-92" value="" style="shape=image;imageAspect=0;aspect=fixed;verticalLabelPosition=bottom;verticalAlign=top;image=https://github.com/NX211/homer-icons/blob/master/png/portainer.png?raw=true;" parent="0v0pNmwwUlKoNdS4LQg7-40" vertex="1">
          <mxGeometry x="369.2600000000002" y="590" width="71.48" height="100" as="geometry" />
        </mxCell>
        <mxCell id="Xht5l7l8JJ4m-X1HlJ2U-94" value="&lt;span style=&quot;font-size: 16px;&quot;&gt;Portainer&lt;br&gt;&lt;/span&gt;" style="text;html=1;strokeColor=none;fillColor=none;align=center;verticalAlign=middle;whiteSpace=wrap;rounded=0;" parent="0v0pNmwwUlKoNdS4LQg7-40" vertex="1">
          <mxGeometry x="340" y="699.9899999999998" width="130" height="30" as="geometry" />
        </mxCell>
        <mxCell id="Xht5l7l8JJ4m-X1HlJ2U-95" value="" style="shape=image;imageAspect=0;aspect=fixed;verticalLabelPosition=bottom;verticalAlign=top;image=https://github.com/NX211/homer-icons/blob/master/png/portainer.png?raw=true;" parent="0v0pNmwwUlKoNdS4LQg7-40" vertex="1">
          <mxGeometry x="369.26" y="157.5" width="71.48" height="100" as="geometry" />
        </mxCell>
        <mxCell id="Xht5l7l8JJ4m-X1HlJ2U-96" value="&lt;span style=&quot;font-size: 16px;&quot;&gt;Portainer&lt;br&gt;&lt;/span&gt;" style="text;html=1;strokeColor=none;fillColor=none;align=center;verticalAlign=middle;whiteSpace=wrap;rounded=0;" parent="0v0pNmwwUlKoNdS4LQg7-40" vertex="1">
          <mxGeometry x="339.9999999999998" y="262.5" width="130" height="30" as="geometry" />
        </mxCell>
        <mxCell id="Xht5l7l8JJ4m-X1HlJ2U-105" value="" style="rounded=1;whiteSpace=wrap;html=1;fillColor=#ffe6cc;strokeColor=#d79b00;arcSize=8;" parent="0v0pNmwwUlKoNdS4LQg7-40" vertex="1">
          <mxGeometry x="240" y="840" width="390" height="210" as="geometry" />
        </mxCell>
        <mxCell id="Xht5l7l8JJ4m-X1HlJ2U-107" value="&lt;font size=&quot;1&quot; style=&quot;&quot;&gt;&lt;b style=&quot;font-size: 16px;&quot;&gt;Ubuntu VM-03&lt;/b&gt;&lt;/font&gt;" style="text;html=1;strokeColor=none;fillColor=none;align=left;verticalAlign=middle;whiteSpace=wrap;rounded=0;" parent="0v0pNmwwUlKoNdS4LQg7-40" vertex="1">
          <mxGeometry x="320" y="810" width="200" height="30" as="geometry" />
        </mxCell>
        <mxCell id="Xht5l7l8JJ4m-X1HlJ2U-110" value="&lt;span style=&quot;font-size: 16px;&quot;&gt;Wazuh&lt;br&gt;&lt;/span&gt;" style="text;html=1;strokeColor=none;fillColor=none;align=center;verticalAlign=middle;whiteSpace=wrap;rounded=0;" parent="0v0pNmwwUlKoNdS4LQg7-40" vertex="1">
          <mxGeometry x="340" y="985" width="130" height="30" as="geometry" />
        </mxCell>
        <mxCell id="Xht5l7l8JJ4m-X1HlJ2U-114" value="" style="group;aspect=fixed;" parent="0v0pNmwwUlKoNdS4LQg7-40" vertex="1" connectable="0">
          <mxGeometry y="2.5" width="150" height="150" as="geometry" />
        </mxCell>
        <mxCell id="Xht5l7l8JJ4m-X1HlJ2U-116" value="" style="fontColor=#0066CC;verticalAlign=top;verticalLabelPosition=bottom;labelPosition=center;align=center;html=1;outlineConnect=0;fillColor=#CCCCCC;strokeColor=#6881B3;gradientColor=none;gradientDirection=north;strokeWidth=2;shape=mxgraph.networks.server;" parent="Xht5l7l8JJ4m-X1HlJ2U-114" vertex="1">
          <mxGeometry width="134.99999999999986" height="136.36363636363623" as="geometry" />
        </mxCell>
        <mxCell id="Xht5l7l8JJ4m-X1HlJ2U-117" value="&lt;font size=&quot;1&quot; style=&quot;&quot;&gt;&lt;b style=&quot;font-size: 30px;&quot;&gt;ESXi 8 Node&lt;/b&gt;&lt;/font&gt;" style="text;html=1;strokeColor=none;fillColor=none;align=left;verticalAlign=middle;whiteSpace=wrap;rounded=0;" parent="0v0pNmwwUlKoNdS4LQg7-40" vertex="1">
          <mxGeometry x="150" width="280" height="55" as="geometry" />
        </mxCell>
        <mxCell id="0v0pNmwwUlKoNdS4LQg7-4" value="" style="fontColor=#0066CC;verticalAlign=top;verticalLabelPosition=bottom;labelPosition=center;align=center;html=1;outlineConnect=0;fillColor=#CCCCCC;strokeColor=#6881B3;gradientColor=none;gradientDirection=north;strokeWidth=2;shape=mxgraph.networks.virtual_server;" parent="0v0pNmwwUlKoNdS4LQg7-40" vertex="1">
          <mxGeometry x="200" y="100" width="110" height="120" as="geometry" />
        </mxCell>
        <mxCell id="0v0pNmwwUlKoNdS4LQg7-5" value="" style="fontColor=#0066CC;verticalAlign=top;verticalLabelPosition=bottom;labelPosition=center;align=center;html=1;outlineConnect=0;fillColor=#CCCCCC;strokeColor=#6881B3;gradientColor=none;gradientDirection=north;strokeWidth=2;shape=mxgraph.networks.virtual_server;" parent="0v0pNmwwUlKoNdS4LQg7-40" vertex="1">
          <mxGeometry x="200" y="530" width="110" height="120" as="geometry" />
        </mxCell>
        <mxCell id="0v0pNmwwUlKoNdS4LQg7-6" value="" style="fontColor=#0066CC;verticalAlign=top;verticalLabelPosition=bottom;labelPosition=center;align=center;html=1;outlineConnect=0;fillColor=#CCCCCC;strokeColor=#6881B3;gradientColor=none;gradientDirection=north;strokeWidth=2;shape=mxgraph.networks.virtual_server;" parent="0v0pNmwwUlKoNdS4LQg7-40" vertex="1">
          <mxGeometry x="200" y="810" width="110" height="120" as="geometry" />
        </mxCell>
        <mxCell id="0v0pNmwwUlKoNdS4LQg7-7" value="" style="shape=image;imageAspect=0;aspect=fixed;verticalLabelPosition=bottom;verticalAlign=top;image=https://github.com/NX211/homer-icons/blob/master/png/guacamole.png?raw=true;" parent="0v0pNmwwUlKoNdS4LQg7-40" vertex="1">
          <mxGeometry x="470" y="160" width="142.08" height="100" as="geometry" />
        </mxCell>
        <mxCell id="0v0pNmwwUlKoNdS4LQg7-8" value="" style="shape=image;imageAspect=0;aspect=fixed;verticalLabelPosition=bottom;verticalAlign=top;image=https://gethomepage.dev/latest/assets/light_squircle@2x.png;" parent="0v0pNmwwUlKoNdS4LQg7-40" vertex="1">
          <mxGeometry x="630" y="160" width="100" height="100" as="geometry" />
        </mxCell>
        <mxCell id="0v0pNmwwUlKoNdS4LQg7-9" value="&lt;span style=&quot;font-size: 16px;&quot;&gt;Guacamole&lt;br&gt;&lt;/span&gt;" style="text;html=1;strokeColor=none;fillColor=none;align=center;verticalAlign=middle;whiteSpace=wrap;rounded=0;" parent="0v0pNmwwUlKoNdS4LQg7-40" vertex="1">
          <mxGeometry x="476.03999999999974" y="262.5" width="130" height="30" as="geometry" />
        </mxCell>
        <mxCell id="0v0pNmwwUlKoNdS4LQg7-10" value="&lt;span style=&quot;font-size: 16px;&quot;&gt;Homepage&lt;br&gt;&lt;/span&gt;" style="text;html=1;strokeColor=none;fillColor=none;align=center;verticalAlign=middle;whiteSpace=wrap;rounded=0;" parent="0v0pNmwwUlKoNdS4LQg7-40" vertex="1">
          <mxGeometry x="614.9999999999998" y="262.5" width="130" height="30" as="geometry" />
        </mxCell>
        <mxCell id="0v0pNmwwUlKoNdS4LQg7-13" value="" style="shape=image;imageAspect=0;aspect=fixed;verticalLabelPosition=bottom;verticalAlign=top;image=https://raw.githubusercontent.com/sethcottle/littlelink/3abea3d19966a182465a0e2aa8812cd3ac5a10b3/images/littlelink.svg;" parent="0v0pNmwwUlKoNdS4LQg7-40" vertex="1">
          <mxGeometry x="760" y="160" width="100" height="100" as="geometry" />
        </mxCell>
        <mxCell id="0v0pNmwwUlKoNdS4LQg7-14" value="&lt;span style=&quot;font-size: 16px;&quot;&gt;Littlelink&lt;br&gt;&lt;/span&gt;" style="text;html=1;strokeColor=none;fillColor=none;align=center;verticalAlign=middle;whiteSpace=wrap;rounded=0;" parent="0v0pNmwwUlKoNdS4LQg7-40" vertex="1">
          <mxGeometry x="744.9999999999998" y="262.5" width="130" height="30" as="geometry" />
        </mxCell>
        <mxCell id="0v0pNmwwUlKoNdS4LQg7-15" value="" style="shape=image;imageAspect=0;aspect=fixed;verticalLabelPosition=bottom;verticalAlign=top;image=https://github.com/NX211/homer-icons/blob/master/png/overseerr.png?raw=true;" parent="0v0pNmwwUlKoNdS4LQg7-40" vertex="1">
          <mxGeometry x="355" y="310" width="100" height="100" as="geometry" />
        </mxCell>
        <mxCell id="0v0pNmwwUlKoNdS4LQg7-16" value="&lt;span style=&quot;font-size: 16px;&quot;&gt;Overseerr&lt;br&gt;&lt;/span&gt;" style="text;html=1;strokeColor=none;fillColor=none;align=center;verticalAlign=middle;whiteSpace=wrap;rounded=0;" parent="0v0pNmwwUlKoNdS4LQg7-40" vertex="1">
          <mxGeometry x="339.9999999999998" y="420" width="130" height="30" as="geometry" />
        </mxCell>
        <mxCell id="0v0pNmwwUlKoNdS4LQg7-17" value="" style="shape=image;imageAspect=0;aspect=fixed;verticalLabelPosition=bottom;verticalAlign=top;image=https://github.com/NX211/homer-icons/blob/master/png/tautulli.png?raw=true;" parent="0v0pNmwwUlKoNdS4LQg7-40" vertex="1">
          <mxGeometry x="491.03999999999996" y="305" width="100" height="100" as="geometry" />
        </mxCell>
        <mxCell id="0v0pNmwwUlKoNdS4LQg7-18" value="&lt;span style=&quot;font-size: 16px;&quot;&gt;Tautulli&lt;br&gt;&lt;/span&gt;" style="text;html=1;strokeColor=none;fillColor=none;align=center;verticalAlign=middle;whiteSpace=wrap;rounded=0;" parent="0v0pNmwwUlKoNdS4LQg7-40" vertex="1">
          <mxGeometry x="476.03999999999974" y="420" width="130" height="30" as="geometry" />
        </mxCell>
        <mxCell id="0v0pNmwwUlKoNdS4LQg7-19" value="" style="shape=image;imageAspect=0;aspect=fixed;verticalLabelPosition=bottom;verticalAlign=top;image=https://github.com/NX211/homer-icons/blob/master/png/uptimekuma.png?raw=true;imageBackground=none;fontColor=default;" parent="0v0pNmwwUlKoNdS4LQg7-40" vertex="1">
          <mxGeometry x="630" y="305" width="100" height="100" as="geometry" />
        </mxCell>
        <mxCell id="0v0pNmwwUlKoNdS4LQg7-20" value="" style="shape=image;imageAspect=0;aspect=fixed;verticalLabelPosition=bottom;verticalAlign=top;image=https://github.com/NX211/homer-icons/blob/master/png/uptimekuma.png?raw=true;imageBackground=none;fontColor=default;" parent="0v0pNmwwUlKoNdS4LQg7-40" vertex="1">
          <mxGeometry x="630" y="305" width="100" height="100" as="geometry" />
        </mxCell>
        <mxCell id="0v0pNmwwUlKoNdS4LQg7-21" value="" style="shape=image;imageAspect=0;aspect=fixed;verticalLabelPosition=bottom;verticalAlign=top;image=https://github.com/NX211/homer-icons/blob/master/png/uptimekuma.png?raw=true;imageBackground=none;fontColor=default;" parent="0v0pNmwwUlKoNdS4LQg7-40" vertex="1">
          <mxGeometry x="630" y="305" width="100" height="100" as="geometry" />
        </mxCell>
        <mxCell id="0v0pNmwwUlKoNdS4LQg7-22" value="&lt;span style=&quot;font-size: 16px;&quot;&gt;UpTime&lt;br&gt;Kuma&lt;br&gt;&lt;/span&gt;" style="text;html=1;strokeColor=none;fillColor=none;align=center;verticalAlign=middle;whiteSpace=wrap;rounded=0;" parent="0v0pNmwwUlKoNdS4LQg7-40" vertex="1">
          <mxGeometry x="615" y="420" width="130" height="50" as="geometry" />
        </mxCell>
        <mxCell id="0v0pNmwwUlKoNdS4LQg7-23" value="" style="shape=image;imageAspect=0;aspect=fixed;verticalLabelPosition=bottom;verticalAlign=top;image=https://github.com/NX211/homer-icons/blob/master/png/watchtower.png?raw=true;" parent="0v0pNmwwUlKoNdS4LQg7-40" vertex="1">
          <mxGeometry x="760" y="305" width="100" height="100" as="geometry" />
        </mxCell>
        <mxCell id="0v0pNmwwUlKoNdS4LQg7-24" value="&lt;span style=&quot;font-size: 16px;&quot;&gt;Watchtower&lt;br&gt;&lt;/span&gt;" style="text;html=1;strokeColor=none;fillColor=none;align=center;verticalAlign=middle;whiteSpace=wrap;rounded=0;" parent="0v0pNmwwUlKoNdS4LQg7-40" vertex="1">
          <mxGeometry x="744.9999999999998" y="420" width="130" height="30" as="geometry" />
        </mxCell>
        <mxCell id="0v0pNmwwUlKoNdS4LQg7-25" value="" style="shape=image;imageAspect=0;aspect=fixed;verticalLabelPosition=bottom;verticalAlign=top;image=https://github.com/NX211/homer-icons/blob/master/png/cloudflare.png?raw=true;" parent="0v0pNmwwUlKoNdS4LQg7-40" vertex="1">
          <mxGeometry x="491.03999999999996" y="590" width="100" height="100" as="geometry" />
        </mxCell>
        <mxCell id="0v0pNmwwUlKoNdS4LQg7-26" value="&lt;span style=&quot;font-size: 16px;&quot;&gt;Cloudflare&lt;br&gt;Tunnel&lt;br&gt;&lt;/span&gt;" style="text;html=1;strokeColor=none;fillColor=none;align=center;verticalAlign=middle;whiteSpace=wrap;rounded=0;" parent="0v0pNmwwUlKoNdS4LQg7-40" vertex="1">
          <mxGeometry x="476.03999999999996" y="699.9899999999998" width="130" height="50" as="geometry" />
        </mxCell>
        <mxCell id="0v0pNmwwUlKoNdS4LQg7-27" value="" style="shape=image;imageAspect=0;aspect=fixed;verticalLabelPosition=bottom;verticalAlign=top;image=https://github.com/NX211/homer-icons/blob/master/png/grafana.png?raw=true;" parent="0v0pNmwwUlKoNdS4LQg7-40" vertex="1">
          <mxGeometry x="633.94" y="590" width="92.12" height="100" as="geometry" />
        </mxCell>
        <mxCell id="0v0pNmwwUlKoNdS4LQg7-28" value="&lt;span style=&quot;font-size: 16px;&quot;&gt;Grafana&lt;br&gt;&lt;/span&gt;" style="text;html=1;strokeColor=none;fillColor=none;align=center;verticalAlign=middle;whiteSpace=wrap;rounded=0;" parent="0v0pNmwwUlKoNdS4LQg7-40" vertex="1">
          <mxGeometry x="615" y="699.9899999999998" width="130" height="30" as="geometry" />
        </mxCell>
        <mxCell id="0v0pNmwwUlKoNdS4LQg7-29" value="" style="rounded=1;whiteSpace=wrap;html=1;fillColor=#ffe6cc;strokeColor=#d79b00;arcSize=8;" parent="0v0pNmwwUlKoNdS4LQg7-40" vertex="1">
          <mxGeometry x="240" y="1120" width="320" height="210" as="geometry" />
        </mxCell>
        <mxCell id="0v0pNmwwUlKoNdS4LQg7-30" value="&lt;font size=&quot;1&quot; style=&quot;&quot;&gt;&lt;b style=&quot;font-size: 16px;&quot;&gt;Windows Server 2022 VM-01&lt;/b&gt;&lt;/font&gt;" style="text;html=1;strokeColor=none;fillColor=none;align=left;verticalAlign=middle;whiteSpace=wrap;rounded=0;" parent="0v0pNmwwUlKoNdS4LQg7-40" vertex="1">
          <mxGeometry x="320" y="1090" width="230" height="30" as="geometry" />
        </mxCell>
        <mxCell id="0v0pNmwwUlKoNdS4LQg7-32" value="&lt;span style=&quot;font-size: 16px;&quot;&gt;Plex&lt;br&gt;&lt;/span&gt;" style="text;html=1;strokeColor=none;fillColor=none;align=center;verticalAlign=middle;whiteSpace=wrap;rounded=0;" parent="0v0pNmwwUlKoNdS4LQg7-40" vertex="1">
          <mxGeometry x="355" y="1262.5" width="130" height="30" as="geometry" />
        </mxCell>
        <mxCell id="0v0pNmwwUlKoNdS4LQg7-33" value="" style="fontColor=#0066CC;verticalAlign=top;verticalLabelPosition=bottom;labelPosition=center;align=center;html=1;outlineConnect=0;fillColor=#CCCCCC;strokeColor=#6881B3;gradientColor=none;gradientDirection=north;strokeWidth=2;shape=mxgraph.networks.virtual_server;" parent="0v0pNmwwUlKoNdS4LQg7-40" vertex="1">
          <mxGeometry x="200" y="1090" width="110" height="120" as="geometry" />
        </mxCell>
        <mxCell id="0v0pNmwwUlKoNdS4LQg7-34" value="" style="shape=image;imageAspect=0;aspect=fixed;verticalLabelPosition=bottom;verticalAlign=top;image=https://wazuh.com/uploads/2022/05/WAZUH.png;" parent="0v0pNmwwUlKoNdS4LQg7-40" vertex="1">
          <mxGeometry x="355" y="880" width="100" height="100" as="geometry" />
        </mxCell>
        <mxCell id="0v0pNmwwUlKoNdS4LQg7-35" value="" style="shape=image;imageAspect=0;aspect=fixed;verticalLabelPosition=bottom;verticalAlign=top;image=https://dockge.kuma.pet/icon.svg;" parent="0v0pNmwwUlKoNdS4LQg7-40" vertex="1">
          <mxGeometry x="491.03999999999996" y="880" width="100" height="100" as="geometry" />
        </mxCell>
        <mxCell id="0v0pNmwwUlKoNdS4LQg7-36" value="" style="shape=image;imageAspect=0;aspect=fixed;verticalLabelPosition=bottom;verticalAlign=top;image=https://dockge.kuma.pet/icon.svg;" parent="0v0pNmwwUlKoNdS4LQg7-40" vertex="1">
          <mxGeometry x="491.03999999999996" y="880" width="100" height="100" as="geometry" />
        </mxCell>
        <mxCell id="0v0pNmwwUlKoNdS4LQg7-37" value="" style="shape=image;imageAspect=0;aspect=fixed;verticalLabelPosition=bottom;verticalAlign=top;image=https://dockge.kuma.pet/icon.svg;" parent="0v0pNmwwUlKoNdS4LQg7-40" vertex="1">
          <mxGeometry x="491.03999999999996" y="880" width="100" height="100" as="geometry" />
        </mxCell>
        <mxCell id="0v0pNmwwUlKoNdS4LQg7-38" value="&lt;span style=&quot;font-size: 16px;&quot;&gt;Dockge&lt;br&gt;&lt;/span&gt;" style="text;html=1;strokeColor=none;fillColor=none;align=center;verticalAlign=middle;whiteSpace=wrap;rounded=0;" parent="0v0pNmwwUlKoNdS4LQg7-40" vertex="1">
          <mxGeometry x="476.03999999999996" y="985" width="130" height="30" as="geometry" />
        </mxCell>
        <mxCell id="0v0pNmwwUlKoNdS4LQg7-39" value="" style="shape=image;imageAspect=0;aspect=fixed;verticalLabelPosition=bottom;verticalAlign=top;image=https://github.com/NX211/homer-icons/blob/master/png/plex.png?raw=true;" parent="0v0pNmwwUlKoNdS4LQg7-40" vertex="1">
          <mxGeometry x="370" y="1157.5" width="100" height="100" as="geometry" />
        </mxCell>
        <mxCell id="B0Fw1Bfc6gQhAFYzD6GK-63" value="" style="group" vertex="1" connectable="0" parent="1">
          <mxGeometry x="1180" y="1388" width="890" height="490" as="geometry" />
        </mxCell>
        <mxCell id="B0Fw1Bfc6gQhAFYzD6GK-3" value="" style="rounded=1;whiteSpace=wrap;html=1;fillColor=#bac8d3;strokeColor=#23445d;" vertex="1" parent="B0Fw1Bfc6gQhAFYzD6GK-63">
          <mxGeometry x="40" y="45" width="850" height="445" as="geometry" />
        </mxCell>
        <mxCell id="B0Fw1Bfc6gQhAFYzD6GK-4" value="" style="rounded=1;whiteSpace=wrap;html=1;fillColor=#b0e3e6;strokeColor=#0e8088;arcSize=8;" vertex="1" parent="B0Fw1Bfc6gQhAFYzD6GK-63">
          <mxGeometry x="250" y="130" width="250" height="220" as="geometry" />
        </mxCell>
        <mxCell id="B0Fw1Bfc6gQhAFYzD6GK-5" value="&lt;font size=&quot;1&quot; style=&quot;&quot;&gt;&lt;b style=&quot;font-size: 16px;&quot;&gt;Container Manager&lt;/b&gt;&lt;/font&gt;" style="text;html=1;strokeColor=none;fillColor=none;align=left;verticalAlign=middle;whiteSpace=wrap;rounded=0;" vertex="1" parent="B0Fw1Bfc6gQhAFYzD6GK-63">
          <mxGeometry x="330" y="100" width="200" height="30" as="geometry" />
        </mxCell>
        <mxCell id="B0Fw1Bfc6gQhAFYzD6GK-17" value="&lt;font size=&quot;1&quot; style=&quot;&quot;&gt;&lt;b style=&quot;font-size: 30px;&quot;&gt;Synology NAS&lt;/b&gt;&lt;/font&gt;" style="text;html=1;strokeColor=none;fillColor=none;align=left;verticalAlign=middle;whiteSpace=wrap;rounded=0;" vertex="1" parent="B0Fw1Bfc6gQhAFYzD6GK-63">
          <mxGeometry x="160" width="280" height="55" as="geometry" />
        </mxCell>
        <mxCell id="B0Fw1Bfc6gQhAFYzD6GK-18" value="" style="fontColor=#0066CC;verticalAlign=top;verticalLabelPosition=bottom;labelPosition=center;align=center;html=1;outlineConnect=0;fillColor=#CCCCCC;strokeColor=#6881B3;gradientColor=none;gradientDirection=north;strokeWidth=2;shape=mxgraph.networks.virtual_server;" vertex="1" parent="B0Fw1Bfc6gQhAFYzD6GK-63">
          <mxGeometry x="210" y="100" width="110" height="120" as="geometry" />
        </mxCell>
        <mxCell id="B0Fw1Bfc6gQhAFYzD6GK-51" value="" style="fontColor=#0066CC;verticalAlign=top;verticalLabelPosition=bottom;labelPosition=center;align=center;html=1;outlineConnect=0;fillColor=#CCCCCC;strokeColor=#6881B3;gradientColor=none;gradientDirection=north;strokeWidth=2;shape=mxgraph.networks.server_storage;aspect=fixed;" vertex="1" parent="B0Fw1Bfc6gQhAFYzD6GK-63">
          <mxGeometry width="150" height="150" as="geometry" />
        </mxCell>
        <mxCell id="B0Fw1Bfc6gQhAFYzD6GK-52" value="" style="shape=image;imageAspect=0;aspect=fixed;verticalLabelPosition=bottom;verticalAlign=top;image=https://github.com/NX211/homer-icons/blob/master/png/cloudflare.png?raw=true;" vertex="1" parent="B0Fw1Bfc6gQhAFYzD6GK-63">
          <mxGeometry x="344.99999999999955" y="160" width="100" height="100" as="geometry" />
        </mxCell>
        <mxCell id="B0Fw1Bfc6gQhAFYzD6GK-53" value="&lt;span style=&quot;font-size: 16px;&quot;&gt;Cloudflare&lt;br&gt;Tunnel&lt;br&gt;&lt;/span&gt;" style="text;html=1;strokeColor=none;fillColor=none;align=center;verticalAlign=middle;whiteSpace=wrap;rounded=0;" vertex="1" parent="B0Fw1Bfc6gQhAFYzD6GK-63">
          <mxGeometry x="329.99999999999955" y="269.9899999999998" width="130" height="50" as="geometry" />
        </mxCell>
        <mxCell id="B0Fw1Bfc6gQhAFYzD6GK-62" value="" style="rounded=1;whiteSpace=wrap;html=1;fillColor=#b0e3e6;strokeColor=#0e8088;arcSize=8;" vertex="1" parent="B0Fw1Bfc6gQhAFYzD6GK-63">
          <mxGeometry x="530" y="70" width="330" height="390" as="geometry" />
        </mxCell>
        <mxCell id="B0Fw1Bfc6gQhAFYzD6GK-54" value="" style="fillColor=#28A8E0;verticalLabelPosition=bottom;sketch=0;html=1;strokeColor=#ffffff;verticalAlign=top;align=center;points=[[0.145,0.145,0],[0.5,0,0],[0.855,0.145,0],[1,0.5,0],[0.855,0.855,0],[0.5,1,0],[0.145,0.855,0],[0,0.5,0]];pointerEvents=1;shape=mxgraph.cisco_safe.compositeIcon;bgIcon=ellipse;resIcon=mxgraph.cisco_safe.capability.storage;aspect=fixed;" vertex="1" parent="B0Fw1Bfc6gQhAFYzD6GK-63">
          <mxGeometry x="575" y="100" width="100" height="100" as="geometry" />
        </mxCell>
        <mxCell id="B0Fw1Bfc6gQhAFYzD6GK-55" value="&lt;span style=&quot;font-size: 16px;&quot;&gt;NFS Share-01&lt;br&gt;&lt;/span&gt;" style="text;html=1;strokeColor=none;fillColor=none;align=center;verticalAlign=middle;whiteSpace=wrap;rounded=0;" vertex="1" parent="B0Fw1Bfc6gQhAFYzD6GK-63">
          <mxGeometry x="559.9999999999995" y="214.98999999999978" width="130" height="50" as="geometry" />
        </mxCell>
        <mxCell id="B0Fw1Bfc6gQhAFYzD6GK-56" value="" style="fillColor=#28A8E0;verticalLabelPosition=bottom;sketch=0;html=1;strokeColor=#ffffff;verticalAlign=top;align=center;points=[[0.145,0.145,0],[0.5,0,0],[0.855,0.145,0],[1,0.5,0],[0.855,0.855,0],[0.5,1,0],[0.145,0.855,0],[0,0.5,0]];pointerEvents=1;shape=mxgraph.cisco_safe.compositeIcon;bgIcon=ellipse;resIcon=mxgraph.cisco_safe.capability.storage;aspect=fixed;" vertex="1" parent="B0Fw1Bfc6gQhAFYzD6GK-63">
          <mxGeometry x="715" y="100" width="100" height="100" as="geometry" />
        </mxCell>
        <mxCell id="B0Fw1Bfc6gQhAFYzD6GK-57" value="&lt;span style=&quot;font-size: 16px;&quot;&gt;NFS Share-02&lt;br&gt;&lt;/span&gt;" style="text;html=1;strokeColor=none;fillColor=none;align=center;verticalAlign=middle;whiteSpace=wrap;rounded=0;" vertex="1" parent="B0Fw1Bfc6gQhAFYzD6GK-63">
          <mxGeometry x="699.9999999999995" y="214.98999999999978" width="130" height="50" as="geometry" />
        </mxCell>
        <mxCell id="B0Fw1Bfc6gQhAFYzD6GK-58" value="" style="fillColor=#28A8E0;verticalLabelPosition=bottom;sketch=0;html=1;strokeColor=#ffffff;verticalAlign=top;align=center;points=[[0.145,0.145,0],[0.5,0,0],[0.855,0.145,0],[1,0.5,0],[0.855,0.855,0],[0.5,1,0],[0.145,0.855,0],[0,0.5,0]];pointerEvents=1;shape=mxgraph.cisco_safe.compositeIcon;bgIcon=ellipse;resIcon=mxgraph.cisco_safe.capability.storage;aspect=fixed;" vertex="1" parent="B0Fw1Bfc6gQhAFYzD6GK-63">
          <mxGeometry x="575" y="280" width="100" height="100" as="geometry" />
        </mxCell>
        <mxCell id="B0Fw1Bfc6gQhAFYzD6GK-59" value="&lt;span style=&quot;font-size: 16px;&quot;&gt;NFS Share-03&lt;br&gt;&lt;/span&gt;" style="text;html=1;strokeColor=none;fillColor=none;align=center;verticalAlign=middle;whiteSpace=wrap;rounded=0;" vertex="1" parent="B0Fw1Bfc6gQhAFYzD6GK-63">
          <mxGeometry x="559.9999999999995" y="395" width="130" height="50" as="geometry" />
        </mxCell>
        <mxCell id="B0Fw1Bfc6gQhAFYzD6GK-60" value="" style="fillColor=#28A8E0;verticalLabelPosition=bottom;sketch=0;html=1;strokeColor=#ffffff;verticalAlign=top;align=center;points=[[0.145,0.145,0],[0.5,0,0],[0.855,0.145,0],[1,0.5,0],[0.855,0.855,0],[0.5,1,0],[0.145,0.855,0],[0,0.5,0]];pointerEvents=1;shape=mxgraph.cisco_safe.compositeIcon;bgIcon=ellipse;resIcon=mxgraph.cisco_safe.capability.storage;aspect=fixed;" vertex="1" parent="B0Fw1Bfc6gQhAFYzD6GK-63">
          <mxGeometry x="715" y="280" width="100" height="100" as="geometry" />
        </mxCell>
        <mxCell id="B0Fw1Bfc6gQhAFYzD6GK-61" value="&lt;span style=&quot;font-size: 16px;&quot;&gt;NFS Share-04&lt;br&gt;&lt;/span&gt;" style="text;html=1;strokeColor=none;fillColor=none;align=center;verticalAlign=middle;whiteSpace=wrap;rounded=0;" vertex="1" parent="B0Fw1Bfc6gQhAFYzD6GK-63">
          <mxGeometry x="699.9999999999995" y="395" width="130" height="50" as="geometry" />
        </mxCell>
      </root>
    </mxGraphModel>
  </diagram>
</mxfile>
